<svg width="558" height="571" viewBox="0 0 558 571" fill="none" xmlns="http://www.w3.org/2000/svg">
<path d="M349.056 93.6076H316.245C314.849 89.0657 313.22 84.5239 311.358 79.9821C296.93 40.6195 270.635 20.9382 232.471 20.9382H153.585V209.424H287.622V253.707H153.585V434.245H232.471C241.314 434.245 249.691 433.236 257.603 431.217C284.132 423.647 303.446 400.434 315.547 361.576H349.056V454.683H0V434.245H55.849V20.9382H0V0.5H349.056V93.6076Z" fill="#F6F6F6"/>
<path d="M554.075 519.12C543.608 516.471 535.356 514.011 529.317 511.74C523.078 509.469 518.448 506.347 515.429 502.372C512.208 498.398 510.196 493.1 509.39 486.476C508.585 479.853 508.183 470.864 508.183 459.509V146.122L558 130.794V108.652L249.133 108.369L206.26 102.691L221.658 151.8H265.135L398.283 146.69C415.593 145.933 430.488 145.46 442.968 145.271V305.654L270.872 297.422L271.174 351.357L442.968 342.557L460.781 511.74L422.135 542.397H554.075V519.12Z" fill="#F6F6F6"/>
<path d="M102.287 570.5V495.723H112.623V561.453H149.722V570.5H102.287Z" fill="#F6F6F6"/>
<path d="M160.616 570.5V495.723H170.952V570.5H160.616Z" fill="#F6F6F6"/>
<path d="M189.622 570.5V495.723H242.497V504.662H199.958V528.642H238.689V537.472H199.958V570.5H189.622Z" fill="#F6F6F6"/>
<path d="M256.239 570.5V495.723H313.683V504.662H266.574V527.77H308.896V536.709H266.574V561.562H314.336V570.5H256.239Z" fill="#F6F6F6"/>
</svg>
