<svg width="532" height="96" viewBox="0 0 532 96" fill="none" xmlns="http://www.w3.org/2000/svg">
<mask id="mask0_269_273" style="mask-type:luminance" maskUnits="userSpaceOnUse" x="0" y="0" width="37" height="59">
<path d="M0 0H36.9688V59H0V0Z" fill="white"/>
</mask>
<g mask="url(#mask0_269_273)">
<path d="M20.0934 25.25C16.4216 25.25 13.0413 26.474 10.3122 28.5104C10.5778 20.0052 17.1559 11.4948 30.1299 2.98438L28.2028 0C9.40592 11.6771 0.00488281 24.4948 0.00488281 38.4531C0.00488281 44.8594 1.74968 49.8802 5.23926 53.5104C8.72363 57.1458 13.1403 58.9583 18.4841 58.9583C23.8278 58.9583 28.1299 57.5 31.4111 54.5781C34.682 51.6615 36.3226 48.1354 36.3226 44.0052C36.3226 43.9583 36.3122 43.9271 36.3122 43.875C36.4163 43.1406 36.4841 42.401 36.4841 41.6406C36.4841 32.5885 29.1455 25.25 20.0934 25.25Z" fill="#ED3A19"/>
</g>
<mask id="mask1_269_273" style="mask-type:luminance" maskUnits="userSpaceOnUse" x="39" y="0" width="40" height="59">
<path d="M39.6357 0H78.0003V59H39.6357V0Z" fill="white"/>
</mask>
<g mask="url(#mask1_269_273)">
<path d="M73.0941 52.9531C73.3024 52.7083 73.5628 52.474 73.7555 52.2188C76.1722 49.3646 77.6357 45.6771 77.6357 41.6406C77.6357 32.5885 70.2972 25.25 61.2451 25.25C57.0993 25.25 53.3285 26.7969 50.4378 29.3385C50.4378 29.2396 50.4222 29.151 50.4222 29.0469C50.4222 20.3646 57.042 11.6719 70.292 2.98438L68.3701 0C49.568 11.6771 40.167 24.4948 40.167 38.4531C40.167 44.8646 41.9118 49.8854 45.4014 53.5104C48.891 57.1458 53.3076 58.9635 58.6462 58.9635C63.9847 58.9635 68.2972 57.5 71.5732 54.5781C72.0368 54.1719 72.3962 53.7135 72.792 53.276C72.8962 53.1719 72.9899 53.0625 73.0941 52.9531Z" fill="#ED3A19"/>
</g>
<path d="M86.7525 52.584H145.312V58.856H86.7525V52.584ZM107.808 47.08L115.36 49.064C113.995 51.2827 112.523 53.608 110.944 56.04C109.366 58.472 107.808 60.8187 106.272 63.08C104.736 65.2987 103.307 67.2827 101.984 69.032L94.6245 66.728C95.9472 65.0213 97.3978 63.0373 98.9765 60.776C100.555 58.5147 102.112 56.1893 103.648 53.8C105.227 51.4107 106.614 49.1707 107.808 47.08ZM126.304 55.656L133.792 57.576C132.171 61.3733 130.102 64.552 127.584 67.112C125.11 69.6293 122.08 71.656 118.496 73.192C114.955 74.728 110.859 75.9227 106.208 76.776C101.558 77.672 96.2458 78.3547 90.2725 78.824C90.0165 77.672 89.6112 76.4773 89.0565 75.24C88.5445 74.0027 87.9685 72.9573 87.3285 72.104C94.5392 71.8053 100.704 71.144 105.824 70.12C110.987 69.096 115.254 67.4533 118.624 65.192C121.995 62.888 124.555 59.7093 126.304 55.656ZM99.1685 67.304L103.136 61.672C108.043 62.6533 112.971 63.7627 117.92 65C122.87 66.1947 127.542 67.4533 131.936 68.776C136.331 70.056 140.107 71.272 143.264 72.424L138.592 78.76C135.52 77.5227 131.872 76.2213 127.648 74.856C123.467 73.4907 118.944 72.168 114.08 70.888C109.216 69.5653 104.246 68.3707 99.1685 67.304ZM113.184 18.6L120.224 20.392C119.03 23.72 117.494 26.9413 115.616 30.056C113.739 33.1707 111.755 35.7733 109.664 37.864C109.238 37.4373 108.662 36.968 107.936 36.456C107.254 35.9013 106.528 35.3467 105.76 34.792C105.035 34.2373 104.374 33.7893 103.776 33.448C105.824 31.6987 107.659 29.5013 109.28 26.856C110.944 24.2107 112.246 21.4587 113.184 18.6ZM85.9845 42.28C88.2458 41.384 90.9338 40.2107 94.0485 38.76C97.1632 37.2667 100.32 35.752 103.52 34.216L105.248 40.296C102.432 41.7893 99.5525 43.2827 96.6085 44.776C93.6645 46.2267 90.9552 47.592 88.4805 48.872L85.9845 42.28ZM124 27.176H127.904V31.592C127.904 32.1893 128.032 32.936 128.288 33.832C128.587 34.728 129.099 35.7093 129.824 36.776C130.592 37.8427 131.659 38.9093 133.024 39.976C134.39 41 136.139 41.9813 138.272 42.92C140.406 43.8587 143.008 44.6693 146.08 45.352C145.44 46.1627 144.715 47.208 143.904 48.488C143.136 49.7253 142.475 50.7707 141.92 51.624C139.19 50.9413 136.758 50.088 134.624 49.064C132.534 48.04 130.763 46.9307 129.312 45.736C127.862 44.4987 126.688 43.2613 125.792 42.024C124.939 40.7867 124.342 39.656 124 38.632C123.616 39.6133 122.955 40.7227 122.016 41.96C121.078 43.1973 119.862 44.4347 118.368 45.672C116.875 46.8667 115.083 47.9973 112.992 49.064C110.902 50.088 108.512 50.92 105.824 51.56C105.568 51.0053 105.206 50.3653 104.736 49.64C104.31 48.9147 103.84 48.2107 103.328 47.528C102.859 46.8027 102.39 46.2053 101.92 45.736C104.864 45.096 107.36 44.3067 109.408 43.368C111.499 42.4293 113.227 41.4053 114.592 40.296C115.958 39.1867 117.024 38.0987 117.792 37.032C118.603 35.9227 119.158 34.8987 119.456 33.96C119.798 32.9787 119.968 32.1893 119.968 31.592V27.176H124ZM136.736 24.424H138.016L139.232 24.04L144.992 25.96C144.139 28.136 143.158 30.3547 142.048 32.616C140.982 34.8773 139.979 36.8187 139.04 38.44L132.512 35.944C133.238 34.536 134.006 32.8507 134.816 30.888C135.627 28.9253 136.267 27.0693 136.736 25.32V24.424ZM88.6725 25.32L92.2565 20.136C93.5792 20.6053 95.0085 21.1813 96.5445 21.864C98.1232 22.504 99.6165 23.1867 101.024 23.912C102.475 24.5947 103.648 25.2773 104.544 25.96L100.768 31.656C99.8725 30.9733 98.7418 30.248 97.3765 29.48C96.0112 28.712 94.5605 27.9653 93.0245 27.24C91.4885 26.472 90.0378 25.832 88.6725 25.32ZM114.272 24.424H139.104V30.504H111.2L114.272 24.424ZM161.888 39.528H168.864V52.84L161.888 53.288V39.528ZM151.136 28.648H180.064V33.512H151.136V28.648ZM153.184 21.864H177.824V26.408H153.184V21.864ZM161.888 18.6H168.864V31.784H161.888V18.6ZM150.752 50.344C153.142 50.2587 155.851 50.152 158.88 50.024C161.952 49.8533 165.195 49.6827 168.608 49.512C172.022 49.2987 175.435 49.0853 178.848 48.872V53.928C175.52 54.1413 172.192 54.3547 168.864 54.568C165.579 54.7813 162.422 54.9947 159.392 55.208C156.363 55.3787 153.611 55.5707 151.136 55.784L150.752 50.344ZM158.24 32.488L163.68 32.808C163.083 35.24 161.888 37.224 160.096 38.76C158.347 40.296 156.064 41.448 153.248 42.216C152.992 41.6613 152.566 40.936 151.968 40.04C151.414 39.1013 150.88 38.3547 150.368 37.8C152.459 37.3733 154.208 36.7547 155.616 35.944C157.024 35.0907 157.899 33.9387 158.24 32.488ZM166.816 31.272H172.512V35.176C172.512 35.816 172.555 36.2 172.64 36.328C172.726 36.456 172.918 36.52 173.216 36.52C173.302 36.52 173.43 36.52 173.6 36.52C173.814 36.52 174.027 36.52 174.24 36.52C174.454 36.52 174.603 36.52 174.688 36.52C175.072 36.52 175.328 36.392 175.456 36.136C175.584 35.8373 175.691 35.2187 175.776 34.28C176.288 34.6213 176.992 34.9413 177.888 35.24C178.784 35.5387 179.574 35.752 180.256 35.88C180.086 37.6293 179.616 38.8453 178.848 39.528C178.123 40.168 177.014 40.488 175.52 40.488C175.264 40.488 174.923 40.488 174.496 40.488C174.07 40.488 173.643 40.488 173.216 40.488C172.832 40.488 172.491 40.488 172.192 40.488C170.699 40.488 169.568 40.3387 168.8 40.04C168.032 39.6987 167.499 39.144 167.2 38.376C166.944 37.608 166.816 36.5413 166.816 35.176V31.272ZM153.312 42.344H177.888V46.952H153.312V42.344ZM155.232 58.664H198.368V64.424H155.232V58.664ZM196.832 58.664H204.704C204.704 58.664 204.683 58.8347 204.64 59.176C204.598 59.5173 204.555 59.9227 204.512 60.392C204.512 60.8187 204.47 61.2027 204.384 61.544C204.086 64.4453 203.744 66.8987 203.36 68.904C202.976 70.9093 202.55 72.5093 202.08 73.704C201.611 74.8987 201.078 75.7947 200.48 76.392C199.67 77.16 198.816 77.6933 197.92 77.992C197.024 78.2907 195.979 78.4827 194.784 78.568C193.76 78.696 192.438 78.76 190.816 78.76C189.195 78.76 187.467 78.7173 185.632 78.632C185.59 77.608 185.355 76.4347 184.928 75.112C184.502 73.832 183.99 72.7227 183.392 71.784C185.056 71.9547 186.656 72.0613 188.192 72.104C189.728 72.1467 190.838 72.168 191.52 72.168C192.118 72.168 192.608 72.1467 192.992 72.104C193.376 72.0187 193.718 71.8267 194.016 71.528C194.443 71.2293 194.806 70.6107 195.104 69.672C195.446 68.7333 195.744 67.4533 196 65.832C196.299 64.168 196.555 62.0773 196.768 59.56L196.832 58.664ZM175.712 55.4H183.52C183.222 58.0027 182.752 60.392 182.112 62.568C181.515 64.744 180.598 66.7067 179.36 68.456C178.166 70.1627 176.544 71.6773 174.496 73C172.448 74.3653 169.824 75.5173 166.624 76.456C163.424 77.4373 159.52 78.248 154.912 78.888C154.699 77.9493 154.23 76.8613 153.504 75.624C152.779 74.4293 152.096 73.448 151.456 72.68C155.552 72.2107 158.987 71.6347 161.76 70.952C164.534 70.2693 166.774 69.4587 168.48 68.52C170.23 67.5387 171.574 66.4293 172.512 65.192C173.494 63.912 174.219 62.4613 174.688 60.84C175.158 59.2187 175.499 57.4053 175.712 55.4ZM179.744 39.464L182.816 34.6C184.608 35.2827 186.486 36.136 188.448 37.16C190.454 38.184 192.31 39.2507 194.016 40.36C195.766 41.4267 197.174 42.472 198.24 43.496L194.976 49C193.952 47.976 192.587 46.888 190.88 45.736C189.216 44.5413 187.403 43.3893 185.44 42.28C183.478 41.1707 181.579 40.232 179.744 39.464ZM181.28 25.576H200.416V31.656H181.28V25.576ZM197.792 25.576H204.576C204.534 28.904 204.512 32.04 204.512 34.984C204.512 37.928 204.555 40.5307 204.64 42.792C204.726 45.0107 204.875 46.7813 205.088 48.104C205.344 49.384 205.664 50.024 206.048 50.024C206.432 50.024 206.667 49.32 206.752 47.912C206.88 46.504 206.966 44.7333 207.008 42.6C207.648 43.368 208.331 44.1787 209.056 45.032C209.824 45.8427 210.528 46.504 211.168 47.016C210.912 50.2587 210.4 52.6693 209.632 54.248C208.907 55.8267 207.52 56.616 205.472 56.616C203.595 56.616 202.123 55.8267 201.056 54.248C200.032 52.6267 199.286 50.408 198.816 47.592C198.347 44.7333 198.048 41.4267 197.92 37.672C197.835 33.9173 197.792 29.8853 197.792 25.576ZM187.488 18.6H193.952C193.91 23.08 193.739 27.1973 193.44 30.952C193.184 34.664 192.672 38.0347 191.904 41.064C191.179 44.0933 190.048 46.7813 188.512 49.128C187.019 51.4747 185.014 53.5013 182.496 55.208C182.112 54.4827 181.515 53.6293 180.704 52.648C179.894 51.6667 179.126 50.92 178.4 50.408C180.534 48.9147 182.198 47.1867 183.392 45.224C184.63 43.2187 185.526 40.9147 186.08 38.312C186.635 35.6667 186.976 32.7227 187.104 29.48C187.275 26.2373 187.403 22.6107 187.488 18.6ZM265.312 31.016L272.544 32.552C272.032 34.344 271.499 36.1787 270.944 38.056C270.39 39.8907 269.835 41.6613 269.28 43.368C268.726 45.032 268.192 46.504 267.68 47.784L261.792 46.312C262.262 44.904 262.71 43.3253 263.136 41.576C263.606 39.784 264.032 37.9707 264.416 36.136C264.8 34.2587 265.099 32.552 265.312 31.016ZM240.928 32.936L247.008 31.592C247.52 33.128 247.968 34.792 248.352 36.584C248.779 38.376 249.12 40.1253 249.376 41.832C249.675 43.5387 249.867 45.0533 249.952 46.376L243.488 47.912C243.446 46.5467 243.296 45.0107 243.04 43.304C242.784 41.5547 242.464 39.784 242.08 37.992C241.739 36.1573 241.355 34.472 240.928 32.936ZM240.288 21.8H272.928V28.968H240.288V21.8ZM238.048 49.576H274.08V56.808H238.048V49.576ZM252.256 24.296H259.808V78.696H252.256V24.296ZM216.992 38.248H236.832V44.072H216.992V38.248ZM217.248 20.648H236.704V26.408H217.248V20.648ZM216.992 47.016H236.832V52.776H216.992V47.016ZM213.92 29.224H239.072V35.304H213.92V29.224ZM220.512 55.848H236.704V75.368H220.512V69.288H230.112V61.928H220.512V55.848ZM216.8 55.848H223.328V77.864H216.8V55.848ZM291.488 18.856L298.72 21.16C297.355 24.744 295.734 28.3707 293.856 32.04C291.979 35.6667 289.931 39.1227 287.712 42.408C285.536 45.6507 283.296 48.488 280.992 50.92C280.736 50.28 280.374 49.4693 279.904 48.488C279.435 47.464 278.923 46.44 278.368 45.416C277.814 44.392 277.323 43.56 276.896 42.92C278.816 40.9573 280.672 38.696 282.464 36.136C284.299 33.576 285.984 30.824 287.52 27.88C289.099 24.936 290.422 21.928 291.488 18.856ZM285.024 36.584L292.32 29.288V29.352V78.632H285.024V36.584ZM299.936 50.28H334.496V78.504H326.56V57.512H307.552V78.76H299.936V50.28ZM313.056 18.6H321.056V54.184H313.056V18.6ZM297.056 31.72H338.08V39.08H297.056V31.72ZM303.712 68.776H330.976V76.008H303.712V68.776ZM381.856 22.376H393.696V28.968H381.856V22.376ZM367.392 25.064H380.576V31.4H367.392V25.064ZM382.624 34.088H393.44V40.424H382.624V34.088ZM382.56 45.864H393.312V52.2H382.56V45.864ZM351.136 34.088H361.888V40.424H351.136V34.088ZM351.264 45.8H361.952V52.136H351.264V45.8ZM347.424 22.824L356 25.128C355.872 25.64 355.339 25.96 354.4 26.088L355.424 60.52H348.576L347.424 22.824ZM389.344 22.376H396.384C396.384 25.4907 396.363 28.776 396.32 32.232C396.278 35.6453 396.192 39.0587 396.064 42.472C395.979 45.8427 395.872 49.064 395.744 52.136C395.616 55.208 395.488 57.9387 395.36 60.328H388.128C388.342 57.8533 388.512 55.08 388.64 52.008C388.811 48.8933 388.939 45.6507 389.024 42.28C389.152 38.8667 389.238 35.4533 389.28 32.04C389.366 28.6267 389.387 25.4053 389.344 22.376ZM359.392 19.24L365.152 24.744C362.976 25.8533 360.694 26.92 358.304 27.944C355.915 28.9253 353.654 29.8 351.52 30.568C351.35 29.8853 351.03 29.0107 350.56 27.944C350.091 26.8773 349.664 26.0027 349.28 25.32C351.072 24.4667 352.886 23.4853 354.72 22.376C356.555 21.224 358.112 20.1787 359.392 19.24ZM364.128 43.88H370.272V59.816H364.128V43.88ZM364.32 19.432H370.784V35.752H377.568V41.704H364.32V19.432ZM373.856 35.752H380.32V60.008H373.856V35.752ZM342.496 57.448H401.696V64.488H342.496V57.448ZM376.352 68.712L382.112 63.592C384.416 64.616 386.763 65.7467 389.152 66.984C391.584 68.1787 393.888 69.352 396.064 70.504C398.24 71.656 400.075 72.68 401.568 73.576L393.952 78.824C392.63 77.8853 390.987 76.8187 389.024 75.624C387.104 74.472 385.035 73.2987 382.816 72.104C380.64 70.8667 378.486 69.736 376.352 68.712ZM360.608 63.784L367.392 68.648C365.686 69.8 363.744 71.016 361.568 72.296C359.392 73.5333 357.174 74.7067 354.912 75.816C352.694 76.968 350.603 77.9493 348.64 78.76C347.958 77.992 347.04 77.096 345.888 76.072C344.736 75.048 343.691 74.1733 342.752 73.448C344.8 72.68 346.934 71.7413 349.152 70.632C351.414 69.5227 353.547 68.3707 355.552 67.176C357.6 65.9387 359.286 64.808 360.608 63.784ZM412.064 40.36H426.976V47.336H412.064V40.36ZM407.904 23.528H431.456V49.448H424.032V30.632H407.904V23.528ZM407.84 40.36H415.328V60.008C415.328 61.1173 415.478 61.8213 415.776 62.12C416.075 62.4187 416.822 62.568 418.016 62.568C418.23 62.568 418.614 62.568 419.168 62.568C419.766 62.568 420.406 62.568 421.088 62.568C421.814 62.568 422.475 62.568 423.072 62.568C423.712 62.568 424.203 62.568 424.544 62.568C425.184 62.568 425.675 62.4187 426.016 62.12C426.358 61.7787 426.614 61.1387 426.784 60.2C426.955 59.2187 427.083 57.768 427.168 55.848C427.638 56.232 428.278 56.616 429.088 57C429.942 57.384 430.795 57.7253 431.648 58.024C432.502 58.3227 433.291 58.5787 434.016 58.792C433.718 61.6507 433.248 63.8907 432.608 65.512C431.968 67.0907 431.051 68.2 429.856 68.84C428.704 69.48 427.147 69.8 425.184 69.8C424.8 69.8 424.224 69.8 423.456 69.8C422.688 69.8 421.878 69.8 421.024 69.8C420.171 69.8 419.36 69.8 418.592 69.8C417.824 69.8 417.27 69.8 416.928 69.8C414.582 69.8 412.747 69.5227 411.424 68.968C410.102 68.4133 409.163 67.432 408.608 66.024C408.096 64.5733 407.84 62.5893 407.84 60.072V40.36ZM439.456 29.864H466.08V37.096H439.456V29.864ZM439.968 18.664L448.032 20.136C447.179 24.0613 446.112 27.88 444.832 31.592C443.552 35.2613 442.102 38.6747 440.48 41.832C438.859 44.9467 437.088 47.6773 435.168 50.024C434.742 49.5547 434.102 49.0213 433.248 48.424C432.438 47.784 431.584 47.1653 430.688 46.568C429.792 45.928 429.046 45.4373 428.448 45.096C430.326 43.0907 432.011 40.7013 433.504 37.928C434.998 35.1547 436.278 32.1253 437.344 28.84C438.454 25.5547 439.328 22.1627 439.968 18.664ZM453.92 32.936L461.792 33.768C460.982 39.6987 459.83 45.032 458.336 49.768C456.843 54.4613 454.923 58.664 452.576 62.376C450.23 66.0453 447.35 69.2667 443.936 72.04C440.566 74.7707 436.576 77.096 431.968 79.016C431.712 78.4187 431.307 77.6933 430.752 76.84C430.198 75.9867 429.6 75.1333 428.96 74.28C428.363 73.4267 427.808 72.7227 427.296 72.168C433.099 70.12 437.792 67.368 441.376 63.912C445.003 60.4133 447.798 56.1253 449.76 51.048C451.723 45.9707 453.11 39.9333 453.92 32.936ZM442.912 35.624C443.979 41.2133 445.494 46.3973 447.456 51.176C449.419 55.912 452 60.0507 455.2 63.592C458.443 67.1333 462.411 69.864 467.104 71.784C466.507 72.296 465.867 72.9573 465.184 73.768C464.502 74.5787 463.862 75.4107 463.264 76.264C462.667 77.1173 462.176 77.8853 461.792 78.568C456.715 76.1787 452.491 72.9787 449.12 68.968C445.792 64.9573 443.083 60.264 440.992 54.888C438.902 49.4693 437.195 43.4533 435.872 36.84L442.912 35.624ZM483.04 70.888H516.768V76.776H483.04V70.888ZM479.584 60.712H520.672V78.568H512.736V66.536H487.136V78.76H479.584V60.712ZM474.784 25.384H525.28V30.952H474.784V25.384ZM472.992 41.32H527.2V46.952H472.992V41.32ZM478.944 33.384H521.12V38.824H478.944V33.384ZM470.88 52.392H529.184V58.28H470.88V52.392ZM495.84 28.072H503.776V54.824H495.84V28.072ZM482.912 20.264L489.888 18.536C490.614 19.4747 491.275 20.5627 491.872 21.8C492.512 23.0373 493.003 24.1253 493.344 25.064L485.984 27.24C485.771 26.3013 485.366 25.1707 484.768 23.848C484.214 22.5253 483.595 21.3307 482.912 20.264ZM479.904 47.528L487.008 46.056C487.648 46.9093 488.246 47.8907 488.8 49C489.398 50.1093 489.803 51.0907 490.016 51.944L482.656 53.736C482.443 52.84 482.08 51.816 481.568 50.664C481.056 49.512 480.502 48.4667 479.904 47.528ZM509.408 18.472L517.536 19.752C516.768 21.16 516.022 22.44 515.296 23.592C514.571 24.744 513.888 25.768 513.248 26.664L506.336 25.32C506.848 24.296 507.403 23.144 508 21.864C508.64 20.584 509.11 19.4533 509.408 18.472ZM512.736 46.12L520.608 47.272C519.926 48.4667 519.286 49.5547 518.688 50.536C518.134 51.5173 517.643 52.3707 517.216 53.096L509.984 52.008C510.454 51.112 510.944 50.1307 511.456 49.064C512.011 47.9547 512.438 46.9733 512.736 46.12Z" fill="black"/>
</svg>
