<svg width="543" height="115" viewBox="0 0 543 115" fill="none" xmlns="http://www.w3.org/2000/svg">
<path d="M2.432 62.88H61.696V71.264H2.432V62.88ZM99.008 53.856H126.08V61.024H99.008V53.856ZM66.176 50.912H99.456V57.248H66.176V50.912ZM68.544 65.568H96.96V71.776H68.544V65.568ZM69.696 76H96.128V82.208H69.696V76ZM112.512 38.048H119.936V89.184C119.936 91.1467 119.701 92.6613 119.232 93.728C118.763 94.8373 117.952 95.712 116.8 96.352C115.605 96.9067 114.112 97.2907 112.32 97.504C110.571 97.7173 108.416 97.824 105.856 97.824C105.728 96.8 105.387 95.5627 104.832 94.112C104.32 92.704 103.787 91.5093 103.232 90.528C104.939 90.5707 106.517 90.592 107.968 90.592C109.461 90.592 110.485 90.592 111.04 90.592C111.595 90.592 111.979 90.4853 112.192 90.272C112.405 90.0587 112.512 89.696 112.512 89.184V38.048ZM100.224 66.72L106.56 64.608C107.371 66.1013 108.117 67.7013 108.8 69.408C109.525 71.1147 110.123 72.8 110.592 74.464C111.104 76.0853 111.445 77.5573 111.616 78.88L104.832 81.248C104.704 79.968 104.405 78.496 103.936 76.832C103.467 75.168 102.912 73.4613 102.272 71.712C101.632 69.9627 100.949 68.2987 100.224 66.72ZM66.176 41.568L71.488 39.264C72.4267 40.672 73.3013 42.2293 74.112 43.936C74.9227 45.6427 75.456 47.136 75.712 48.416L70.144 51.04C69.888 49.76 69.376 48.2453 68.608 46.496C67.8827 44.704 67.072 43.0613 66.176 41.568ZM70.848 58.528L76.736 56.48C77.4613 57.7173 78.144 59.0613 78.784 60.512C79.4667 61.9627 79.8933 63.2427 80.064 64.352L73.792 66.656C73.664 65.5893 73.3013 64.288 72.704 62.752C72.1493 61.216 71.5307 59.808 70.848 58.528ZM75.328 38.176H81.344V53.856H75.328V38.176ZM79.36 67.424H86.464V90.656H79.36V67.424ZM84.288 38.176H90.368V53.856H84.288V38.176ZM66.432 88.224C69.1627 87.968 72.2987 87.6693 75.84 87.328C79.424 86.9867 83.1787 86.624 87.104 86.24C91.0293 85.8133 94.9333 85.3867 98.816 84.96L98.944 91.68C95.232 92.1067 91.4773 92.5333 87.68 92.96C83.9253 93.4293 80.32 93.856 76.864 94.24C73.408 94.624 70.2507 94.9653 67.392 95.264L66.432 88.224ZM94.464 38.88L101.12 41.248C100.096 42.9973 99.072 44.7253 98.048 46.432C97.024 48.1387 96.0853 49.5893 95.232 50.784L90.112 48.736C90.5813 47.84 91.0933 46.816 91.648 45.664C92.2027 44.512 92.736 43.3387 93.248 42.144C93.76 40.9493 94.1653 39.8613 94.464 38.88ZM88.576 56.416L95.488 58.144C94.8053 59.5947 94.144 61.024 93.504 62.432C92.864 63.84 92.2667 65.056 91.712 66.08L85.696 64.544C86.0373 63.8187 86.3787 62.9867 86.72 62.048C87.104 61.0667 87.4453 60.0853 87.744 59.104C88.0853 58.1227 88.3627 57.2267 88.576 56.416ZM136.832 46.432H183.296V54.88H136.832V46.432ZM131.456 83.616H188.608V92.384H131.456V83.616ZM208.64 38.048H216.64V74.784H208.64V38.048ZM231.36 38.048H239.424V74.784H231.36V38.048ZM194.816 69.664H253.376V77.152H194.816V69.664ZM197.056 49.952H251.392V57.376H197.056V49.952ZM228.48 83.232L235.456 79.392C237.291 80.7147 239.296 82.208 241.472 83.872C243.691 85.4933 245.824 87.136 247.872 88.8C249.92 90.464 251.605 91.9573 252.928 93.28L245.312 97.76C244.16 96.48 242.603 94.9867 240.64 93.28C238.72 91.5733 236.693 89.8453 234.56 88.096C232.427 86.304 230.4 84.6827 228.48 83.232ZM211.392 79.648L219.584 82.784C217.963 84.6187 216.149 86.4533 214.144 88.288C212.139 90.1227 210.048 91.8507 207.872 93.472C205.696 95.136 203.563 96.5653 201.472 97.76C200.96 97.2053 200.32 96.5867 199.552 95.904C198.784 95.2213 198.016 94.56 197.248 93.92C196.523 93.3227 195.84 92.8107 195.2 92.384C197.248 91.2747 199.296 90.016 201.344 88.608C203.392 87.2 205.291 85.7067 207.04 84.128C208.832 82.5493 210.283 81.056 211.392 79.648ZM271.936 52.448H304V58.912H271.936V52.448ZM274.944 63.776H281.984V89.632H274.944V63.776ZM278.848 63.776H301.12V85.344H278.848V79.008H294.016V70.112H278.848V63.776ZM260.8 40.672H312V47.904H268.288V97.76H260.8V40.672ZM307.776 40.672H315.328V88.928C315.328 90.9333 315.093 92.512 314.624 93.664C314.155 94.816 313.301 95.712 312.064 96.352C310.827 96.9493 309.291 97.3333 307.456 97.504C305.621 97.7173 303.36 97.824 300.672 97.824C300.587 97.0987 300.395 96.2667 300.096 95.328C299.84 94.432 299.541 93.5147 299.2 92.576C298.859 91.68 298.475 90.8907 298.048 90.208C299.755 90.2933 301.397 90.3573 302.976 90.4C304.597 90.4 305.685 90.3787 306.24 90.336C306.837 90.2933 307.243 90.1653 307.456 89.952C307.669 89.7387 307.776 89.376 307.776 88.864V40.672ZM360.96 43.232H367.616V91.488H360.96V43.232ZM372.288 39.776H379.648V97.568H372.288V39.776ZM349.504 40.032H356.416V64.224C356.416 68.192 356.267 72.16 355.968 76.128C355.712 80.096 355.115 83.9147 354.176 87.584C353.28 91.2107 351.829 94.5813 349.824 97.696C349.397 97.184 348.821 96.608 348.096 95.968C347.371 95.3707 346.645 94.7947 345.92 94.24C345.195 93.6853 344.533 93.2587 343.936 92.96C345.6 90.2293 346.816 87.3067 347.584 84.192C348.395 81.0773 348.907 77.8347 349.12 74.464C349.376 71.0507 349.504 67.616 349.504 64.16V40.032ZM324.992 57.248H344.832V63.072H324.992V57.248ZM325.248 39.648H344.704V45.408H325.248V39.648ZM324.992 66.016H344.832V71.776H324.992V66.016ZM321.92 48.224H347.072V54.304H321.92V48.224ZM328.512 74.848H344.704V94.368H328.512V88.288H338.112V80.928H328.512V74.848ZM324.8 74.848H331.328V96.864H324.8V74.848ZM423.552 74.656H430.912V97.696H423.552V74.656ZM409.216 43.36H444.736V49.952H409.216V43.36ZM417.6 67.488V70.944H436.736V67.488H417.6ZM417.6 58.976V62.368H436.736V58.976H417.6ZM410.88 53.536H443.84V76.384H410.88V53.536ZM431.552 73.12C432.661 75.1253 434.048 77.152 435.712 79.2C437.419 81.248 439.253 83.1467 441.216 84.896C443.221 86.6453 445.184 88.1173 447.104 89.312C446.251 89.952 445.312 90.848 444.288 92C443.264 93.152 442.453 94.1973 441.856 95.136C439.893 93.6427 437.931 91.8293 435.968 89.696C434.005 87.52 432.171 85.1947 430.464 82.72C428.757 80.2027 427.285 77.7067 426.048 75.232L431.552 73.12ZM422.528 73.504L428.352 75.552C427.072 78.3253 425.493 80.992 423.616 83.552C421.781 86.112 419.755 88.4587 417.536 90.592C415.317 92.6827 413.013 94.4533 410.624 95.904C410.24 95.3067 409.749 94.624 409.152 93.856C408.555 93.1307 407.936 92.4267 407.296 91.744C406.656 91.0613 406.059 90.4853 405.504 90.016C407.808 88.864 410.027 87.4347 412.16 85.728C414.336 83.9787 416.32 82.0587 418.112 79.968C419.904 77.8773 421.376 75.7227 422.528 73.504ZM423.552 37.664H430.912V56.864H430.4V74.976H424.064V56.864H423.552V37.664ZM395.456 37.664L402.112 40.032C401.259 41.696 400.363 43.4027 399.424 45.152C398.485 46.8587 397.568 48.5227 396.672 50.144C395.776 51.7227 394.923 53.1093 394.112 54.304L388.992 52.192C389.76 50.8693 390.549 49.376 391.36 47.712C392.171 46.048 392.939 44.32 393.664 42.528C394.432 40.736 395.029 39.1147 395.456 37.664ZM402.688 45.28L408.96 48.096C407.381 50.4853 405.675 53.0027 403.84 55.648C402.005 58.2933 400.171 60.832 398.336 63.264C396.501 65.696 394.752 67.8293 393.088 69.664L388.672 67.232C389.867 65.7813 391.104 64.16 392.384 62.368C393.707 60.5333 394.987 58.6347 396.224 56.672C397.504 54.6667 398.699 52.6827 399.808 50.72C400.917 48.7573 401.877 46.944 402.688 45.28ZM385.6 52.64L389.376 47.456C390.443 48.48 391.552 49.5893 392.704 50.784C393.856 51.9787 394.923 53.1733 395.904 54.368C396.885 55.5627 397.611 56.672 398.08 57.696L393.984 63.52C393.515 62.496 392.811 61.344 391.872 60.064C390.976 58.784 389.973 57.504 388.864 56.224C387.755 54.9013 386.667 53.7067 385.6 52.64ZM400.512 60.576L405.888 58.4C406.741 59.808 407.552 61.344 408.32 63.008C409.088 64.672 409.771 66.2933 410.368 67.872C410.965 69.408 411.392 70.7947 411.648 72.032L405.824 74.592C405.653 73.3547 405.291 71.9253 404.736 70.304C404.181 68.6827 403.541 67.04 402.816 65.376C402.091 63.6693 401.323 62.0693 400.512 60.576ZM385.408 65.696C388.267 65.568 391.637 65.3973 395.52 65.184C399.403 64.928 403.349 64.672 407.36 64.416L407.488 70.688C403.733 70.9867 399.979 71.2853 396.224 71.584C392.512 71.84 389.163 72.096 386.176 72.352L385.408 65.696ZM402.496 76.512L407.872 74.848C408.597 76.5547 409.237 78.4107 409.792 80.416C410.389 82.3787 410.773 84.0853 410.944 85.536L405.248 87.392C405.12 85.8987 404.779 84.128 404.224 82.08C403.712 80.032 403.136 78.176 402.496 76.512ZM388.16 75.232L394.304 76.32C393.963 79.392 393.451 82.4213 392.768 85.408C392.128 88.352 391.36 90.848 390.464 92.896C390.037 92.5973 389.483 92.2773 388.8 91.936C388.117 91.5947 387.413 91.2747 386.688 90.976C385.963 90.6347 385.344 90.3787 384.832 90.208C385.771 88.288 386.496 85.984 387.008 83.296C387.52 80.608 387.904 77.92 388.16 75.232ZM395.136 69.152H401.792V97.76H395.136V69.152Z" fill="white"/>
<mask id="mask0_269_357" style="mask-type:luminance" maskUnits="userSpaceOnUse" x="482" y="0" width="36" height="48">
<path d="M517.905 47.8252L482.649 47.8017L482.735 0.219128L517.991 0.24264L517.905 47.8252Z" fill="white"/>
</mask>
<g mask="url(#mask0_269_357)">
<path d="M498.78 27.4487C502.282 27.4511 505.507 26.4661 508.113 24.8255C507.847 31.6846 501.561 38.5439 489.176 45.3992L491.01 47.8073C508.953 38.4019 517.937 28.0706 517.957 16.8134C517.966 11.6469 516.31 7.59658 512.987 4.66666C509.67 1.73254 505.46 0.267984 500.364 0.264586C495.268 0.261187 491.163 1.43457 488.03 3.78892C484.906 6.13908 483.336 8.98173 483.33 12.3127C483.33 12.3505 483.34 12.3757 483.34 12.4177C483.24 13.0099 483.174 13.6063 483.173 14.2196C483.16 21.5199 490.148 27.443 498.78 27.4487Z" fill="white"/>
</g>
<mask id="mask1_269_357" style="mask-type:luminance" maskUnits="userSpaceOnUse" x="443" y="0" width="37" height="48">
<path d="M479.613 47.7832L443.025 47.7588L443.111 0.175931L479.7 0.200332L479.613 47.7832Z" fill="white"/>
</mask>
<g mask="url(#mask1_269_357)">
<path d="M447.782 5.05533C447.583 5.25262 447.334 5.44147 447.15 5.64717C444.841 7.94748 443.44 10.9205 443.434 14.1758C443.421 21.4762 450.409 27.3993 459.042 27.405C462.995 27.4077 466.594 26.1626 469.354 24.1146C469.354 24.1944 469.369 24.2658 469.369 24.3498C469.356 31.352 463.03 38.3583 450.381 45.3562L452.21 47.7643C470.158 38.3588 479.142 28.0275 479.163 16.7703C479.172 11.5996 477.515 7.54922 474.193 4.62349C470.87 1.68936 466.661 0.220596 461.569 0.2172C456.478 0.213805 452.363 1.39139 449.235 3.74576C448.792 4.0731 448.449 4.44251 448.071 4.79509C447.971 4.87904 447.881 4.96719 447.782 5.05533Z" fill="white"/>
</g>
</svg>
