<svg width="523" height="96" viewBox="0 0 523 96" fill="none" xmlns="http://www.w3.org/2000/svg">
<path d="M14.464 18.6005H21.696V25.2565H14.464V18.6005ZM3.008 22.8885H33.472V28.0085H3.008V22.8885ZM33.088 28.2005H52.8V34.6005H33.088V28.2005ZM4.928 42.7285H26.176V47.2725H4.928V42.7285ZM12.8 33.8965V36.8405H23.232V33.8965H12.8ZM6.528 29.8645H29.888V40.8085H6.528V29.8645ZM24 42.7285H25.472L26.816 42.4085L30.464 45.5445C28.8 46.8245 26.9227 48.1045 24.832 49.3845C22.784 50.6645 20.7787 51.7525 18.816 52.6485C18.4747 52.1365 17.984 51.5392 17.344 50.8565C16.7467 50.1738 16.2347 49.6405 15.808 49.2565C17.3013 48.5738 18.816 47.6992 20.352 46.6325C21.9307 45.5658 23.1467 44.6058 24 43.7525V42.7285ZM14.656 48.7445H21.568V58.7925C21.568 60.2432 21.376 61.3312 20.992 62.0565C20.6507 62.7818 19.968 63.3578 18.944 63.7845C17.92 64.1258 16.704 64.3392 15.296 64.4245C13.888 64.5098 12.2453 64.5525 10.368 64.5525C10.1973 63.6992 9.92 62.8032 9.536 61.8645C9.152 60.9258 8.74667 60.0938 8.32 59.3685C9.42933 59.4112 10.5173 59.4538 11.584 59.4965C12.6507 59.4965 13.3547 59.4752 13.696 59.4325C14.0373 59.3898 14.272 59.3258 14.4 59.2405C14.5707 59.1125 14.656 58.8992 14.656 58.6005V48.7445ZM2.752 51.6245C5.26933 51.5392 8.128 51.4325 11.328 51.3045C14.5707 51.1765 17.984 51.0485 21.568 50.9205C25.152 50.7498 28.736 50.5792 32.32 50.4085L32.256 55.4005C28.8 55.5712 25.3227 55.7632 21.824 55.9765C18.3253 56.1472 14.976 56.3178 11.776 56.4885C8.61867 56.6165 5.76 56.7445 3.2 56.8725L2.752 51.6245ZM49.216 28.2005H56C55.9573 34.6005 55.9147 39.9552 55.872 44.2645C55.872 48.5312 56 51.7525 56.256 53.9285C56.512 56.0618 56.9813 57.1285 57.664 57.1285C58.048 57.1285 58.304 56.3605 58.432 54.8245C58.56 53.2885 58.6453 51.4325 58.688 49.2565C59.2853 50.0245 59.968 50.8565 60.736 51.7525C61.5467 52.6058 62.272 53.2672 62.912 53.7365C62.7413 56.0405 62.464 57.9392 62.08 59.4325C61.696 60.8832 61.12 61.9498 60.352 62.6325C59.584 63.3152 58.496 63.6565 57.088 63.6565C55.0827 63.6565 53.5253 62.9312 52.416 61.4805C51.3493 60.0298 50.5813 57.8538 50.112 54.9525C49.6427 52.0085 49.3653 48.3178 49.28 43.8805C49.2373 39.4005 49.216 34.1738 49.216 28.2005ZM31.104 42.9205L34.688 37.6725C36.48 38.8245 38.3787 40.1045 40.384 41.5125C42.3893 42.9205 44.2667 44.3498 46.016 45.8005C47.7653 47.2512 49.1733 48.5952 50.24 49.8325L46.336 55.8485C45.3547 54.5685 44.0107 53.1605 42.304 51.6245C40.5973 50.0885 38.7627 48.5525 36.8 47.0165C34.8373 45.4805 32.9387 44.1152 31.104 42.9205ZM20.928 66.7925L28.096 66.0245C28.5227 67.8592 28.864 69.8432 29.12 71.9765C29.4187 74.0672 29.5893 75.8165 29.632 77.2245L22.016 78.2485C22.016 76.7552 21.9307 74.9418 21.76 72.8085C21.5893 70.6325 21.312 68.6272 20.928 66.7925ZM33.792 66.7285L41.024 65.5125C41.7493 67.3045 42.4533 69.2458 43.136 71.3365C43.8187 73.4272 44.2667 75.1978 44.48 76.6485L36.8 78.1205C36.6293 76.6272 36.2453 74.8138 35.648 72.6805C35.0933 70.5045 34.4747 68.5205 33.792 66.7285ZM46.592 66.5365L54.016 64.3605C54.9547 65.5552 55.9147 66.8778 56.896 68.3285C57.92 69.7365 58.88 71.1445 59.776 72.5525C60.672 73.9178 61.376 75.1765 61.888 76.3285L53.952 78.8245C53.5253 77.7578 52.9067 76.4992 52.096 75.0485C51.2853 73.6405 50.3893 72.1898 49.408 70.6965C48.4693 69.2032 47.5307 67.8165 46.592 66.5365ZM9.792 64.5525L17.216 66.4725C16.4053 68.6912 15.3173 70.9098 13.952 73.1285C12.6293 75.3472 11.1787 77.2245 9.6 78.7605L2.304 75.8165C3.75467 74.5365 5.16267 72.8725 6.528 70.8245C7.89333 68.7765 8.98133 66.6858 9.792 64.5525ZM38.912 18.6005H45.376V34.4085C45.376 37.0965 45.2053 39.8058 44.864 42.5365C44.5227 45.2672 43.8827 47.9552 42.944 50.6005C42.0053 53.2032 40.6187 55.7205 38.784 58.1525C36.992 60.5845 34.6027 62.8458 31.616 64.9365C31.0613 64.1685 30.2933 63.3578 29.312 62.5045C28.3733 61.6085 27.4987 60.8618 26.688 60.2645C29.376 58.3872 31.5307 56.3818 33.152 54.2485C34.7733 52.1152 35.9893 49.9392 36.8 47.7205C37.6533 45.4592 38.208 43.1978 38.464 40.9365C38.7627 38.6752 38.912 36.4565 38.912 34.2805V18.6005ZM97.088 48.9365H120.192V55.4645H97.088V48.9365ZM101.888 38.5045H119.232V44.6485H101.888V38.5045ZM103.808 53.1605H110.592V78.6965H103.808V53.1605ZM116.48 48.9365H123.328V65.9605C123.328 67.4538 123.157 68.6912 122.816 69.6725C122.517 70.6112 121.877 71.3578 120.896 71.9125C119.915 72.4672 118.763 72.8085 117.44 72.9365C116.117 73.0218 114.539 73.0645 112.704 73.0645C112.619 72.0832 112.405 70.9738 112.064 69.7365C111.723 68.4992 111.317 67.4112 110.848 66.4725C111.872 66.5152 112.832 66.5365 113.728 66.5365C114.667 66.5365 115.307 66.5365 115.648 66.5365C115.989 66.5365 116.203 66.4725 116.288 66.3445C116.416 66.2165 116.48 66.0032 116.48 65.7045V48.9365ZM110.592 26.3445C109.781 28.3072 108.757 30.4405 107.52 32.7445C106.283 35.0058 104.875 37.2032 103.296 39.3365C101.76 41.4272 100.096 43.3045 98.304 44.9685C97.8773 43.9445 97.3013 42.8352 96.576 41.6405C95.8933 40.4032 95.2107 39.3578 94.528 38.5045C96.32 36.9685 98.0267 35.0485 99.648 32.7445C101.269 30.4405 102.72 28.0512 104 25.5765C105.28 23.0592 106.283 20.7338 107.008 18.6005H113.728C114.752 20.9045 115.968 23.2725 117.376 25.7045C118.827 28.0938 120.363 30.3338 121.984 32.4245C123.648 34.5152 125.312 36.2005 126.976 37.4805C126.293 38.4192 125.568 39.5285 124.8 40.8085C124.032 42.0885 123.392 43.3045 122.88 44.4565C121.259 42.9205 119.659 41.1285 118.08 39.0805C116.544 36.9898 115.136 34.8352 113.856 32.6165C112.619 30.3978 111.531 28.3072 110.592 26.3445ZM76.032 39.6565L79.808 40.1045C79.552 42.4512 79.0613 44.6485 78.336 46.6965C77.6107 48.7018 76.5653 50.3658 75.2 51.6885C74.944 51.3472 74.5173 50.8992 73.92 50.3445C73.3653 49.7472 72.8747 49.2992 72.448 49.0005C73.6 47.8485 74.432 46.4832 74.944 44.9045C75.456 43.3258 75.8187 41.5765 76.032 39.6565ZM83.456 39.7205L87.232 40.1685C86.9333 42.5152 86.3787 44.6698 85.568 46.6325C84.7573 48.5952 83.6053 50.2165 82.112 51.4965C81.856 51.1552 81.4507 50.7072 80.896 50.1525C80.3413 49.5552 79.8507 49.1072 79.424 48.8085C80.704 47.6992 81.6427 46.3765 82.24 44.8405C82.8373 43.3045 83.2427 41.5978 83.456 39.7205ZM76.032 57.3845L79.872 57.8325C79.616 60.2218 79.104 62.4405 78.336 64.4885C77.6107 66.4938 76.5653 68.1578 75.2 69.4805C74.944 69.1392 74.5173 68.6912 73.92 68.1365C73.3653 67.5818 72.8747 67.1338 72.448 66.7925C73.6427 65.6405 74.496 64.2752 75.008 62.6965C75.52 61.1178 75.8613 59.3472 76.032 57.3845ZM83.584 57.4485L87.296 57.8325C86.9973 60.2218 86.4427 62.4192 85.632 64.4245C84.8213 66.4298 83.6907 68.0938 82.24 69.4165C81.984 69.0752 81.5787 68.6272 81.024 68.0725C80.4693 67.5178 79.9787 67.0912 79.552 66.7925C80.832 65.6405 81.7707 64.2752 82.368 62.6965C83.008 61.1178 83.4133 59.3685 83.584 57.4485ZM65.92 32.5525H96.768V38.3765H65.92V32.5525ZM83.072 23.7205H94.976V29.2245H83.072V23.7205ZM70.784 51.7525H92.928V57.0645H70.784V51.7525ZM70.784 69.7365H93.184V75.2405H70.784V69.7365ZM78.976 18.6645H85.376V35.4325H78.976V18.6645ZM69.568 22.2485H75.52V35.0485H69.568V22.2485ZM67.776 39.9765H73.216V78.1845H67.776V39.9765ZM89.536 39.9765H95.104V77.4805H89.536V39.9765ZM75.648 45.8005L78.144 43.4325C78.8693 44.1578 79.5947 44.9472 80.32 45.8005C81.0453 46.6112 81.6213 47.3152 82.048 47.9125L79.36 50.6005C78.976 49.9605 78.4213 49.1925 77.696 48.2965C77.0133 47.3578 76.3307 46.5258 75.648 45.8005ZM83.264 46.0565L85.568 43.5605C86.3787 44.3285 87.2107 45.2032 88.064 46.1845C88.9173 47.1658 89.5787 47.9765 90.048 48.6165L87.552 51.4965C87.0827 50.7712 86.4213 49.8965 85.568 48.8725C84.7573 47.8485 83.9893 46.9098 83.264 46.0565ZM75.648 63.5925L78.144 61.2245C78.9547 61.9925 79.744 62.8245 80.512 63.7205C81.28 64.5738 81.856 65.3205 82.24 65.9605L79.68 68.7125C79.2533 68.0298 78.656 67.2192 77.888 66.2805C77.12 65.2992 76.3733 64.4032 75.648 63.5925ZM83.328 63.9125L85.696 61.2885C86.5493 62.1418 87.4027 63.0592 88.256 64.0405C89.1093 64.9792 89.7707 65.7898 90.24 66.4725L87.68 69.4165C87.2533 68.6912 86.6133 67.8165 85.76 66.7925C84.9067 65.7685 84.096 64.8085 83.328 63.9125ZM162.88 26.2165H189.184V33.1285H162.88V26.2165ZM163.648 18.4725L170.624 20.0725C169.429 24.0405 167.851 27.8592 165.888 31.5285C163.968 35.1978 161.941 38.2485 159.808 40.6805C159.381 40.2965 158.784 39.8485 158.016 39.3365C157.291 38.7818 156.544 38.2698 155.776 37.8005C155.008 37.2885 154.347 36.8832 153.792 36.5845C155.968 34.4085 157.909 31.7205 159.616 28.5205C161.365 25.2778 162.709 21.9285 163.648 18.4725ZM165.376 39.5925H188.416V46.3125H165.376V39.5925ZM158.336 52.9045H189.44V59.7525H158.336V52.9045ZM165.056 33.6405L171.968 35.2405C171.072 38.4405 169.899 41.5552 168.448 44.5845C167.04 47.5712 165.525 50.0885 163.904 52.1365C163.477 51.7525 162.901 51.3258 162.176 50.8565C161.451 50.3445 160.704 49.8538 159.936 49.3845C159.211 48.9152 158.549 48.5312 157.952 48.2325C159.573 46.4405 161.003 44.2645 162.24 41.7045C163.477 39.1018 164.416 36.4138 165.056 33.6405ZM130.432 28.9685H156.864V36.0725H130.432V28.9685ZM140.416 42.9845H150.976V49.9605H140.416V42.9845ZM141.056 18.7285H148.48V30.7605H141.056V18.7285ZM136.704 33.2565H144C143.915 37.6938 143.744 42.0672 143.488 46.3765C143.275 50.6432 142.869 54.7392 142.272 58.6645C141.675 62.5898 140.779 66.2592 139.584 69.6725C138.389 73.0858 136.789 76.1365 134.784 78.8245C134.229 77.9285 133.419 76.9472 132.352 75.8805C131.328 74.8565 130.347 74.0458 129.408 73.4485C131.115 71.1445 132.437 68.4992 133.376 65.5125C134.357 62.5258 135.083 59.2832 135.552 55.7845C136.021 52.2858 136.32 48.6378 136.448 44.8405C136.576 41.0432 136.661 37.1818 136.704 33.2565ZM148.992 42.9845H156.16C156.16 42.9845 156.139 43.1765 156.096 43.5605C156.096 43.9445 156.096 44.3712 156.096 44.8405C156.096 45.3098 156.075 45.7152 156.032 46.0565C155.861 50.9632 155.669 55.1872 155.456 58.7285C155.285 62.2272 155.072 65.1285 154.816 67.4325C154.603 69.7365 154.325 71.5498 153.984 72.8725C153.685 74.1525 153.301 75.1125 152.832 75.7525C152.235 76.6485 151.573 77.2672 150.848 77.6085C150.165 77.9925 149.355 78.2698 148.416 78.4405C147.648 78.6112 146.688 78.7178 145.536 78.7605C144.384 78.8032 143.125 78.7818 141.76 78.6965C141.717 77.6725 141.525 76.4778 141.184 75.1125C140.843 73.7898 140.395 72.6592 139.84 71.7205C140.864 71.8485 141.803 71.9338 142.656 71.9765C143.509 71.9765 144.171 71.9765 144.64 71.9765C145.109 71.9765 145.472 71.9125 145.728 71.7845C146.027 71.6565 146.325 71.4005 146.624 71.0165C147.008 70.4618 147.328 69.2885 147.584 67.4965C147.883 65.7045 148.139 62.9525 148.352 59.2405C148.608 55.4858 148.821 50.5152 148.992 44.3285V42.9845ZM177.856 57.9605C179.008 61.2032 180.715 64.1685 182.976 66.8565C185.28 69.5018 188.011 71.4858 191.168 72.8085C190.4 73.4912 189.525 74.4085 188.544 75.5605C187.605 76.7552 186.859 77.8005 186.304 78.6965C182.891 76.8618 180.011 74.2592 177.664 70.8885C175.317 67.4752 173.483 63.6565 172.16 59.4325L177.856 57.9605ZM170.688 43.4965H177.92V53.1605C177.92 55.1658 177.707 57.2992 177.28 59.5605C176.853 61.7792 176.043 64.0192 174.848 66.2805C173.653 68.5418 171.947 70.7392 169.728 72.8725C167.552 74.9632 164.693 76.8832 161.152 78.6325C160.64 77.8645 159.893 76.9685 158.912 75.9445C157.973 74.9205 157.077 74.0885 156.224 73.4485C159.552 71.9978 162.176 70.4192 164.096 68.7125C166.059 67.0058 167.509 65.2352 168.448 63.4005C169.387 61.5658 169.984 59.7738 170.24 58.0245C170.539 56.2325 170.688 54.5898 170.688 53.0965V43.4965ZM218.752 46.1205C221.483 52.8192 225.728 58.3232 231.488 62.6325C237.248 66.9418 244.629 69.8858 253.632 71.4645C253.077 72.0192 252.48 72.7018 251.84 73.5125C251.2 74.3658 250.603 75.2405 250.048 76.1365C249.493 77.0325 249.045 77.8218 248.704 78.5045C242.432 77.0965 236.949 75.0485 232.256 72.3605C227.605 69.6725 223.637 66.3018 220.352 62.2485C217.067 58.1952 214.315 53.4592 212.096 48.0405L218.752 46.1205ZM238.4 42.2165H239.872L241.28 41.8965L246.528 44.1365C245.248 48.9578 243.52 53.2245 241.344 56.9365C239.168 60.6485 236.587 63.8912 233.6 66.6645C230.613 69.4378 227.307 71.8058 223.68 73.7685C220.096 75.7312 216.213 77.3525 212.032 78.6325C211.605 77.6512 210.965 76.5205 210.112 75.2405C209.301 73.9605 208.491 72.9365 207.68 72.1685C211.435 71.1872 214.933 69.8645 218.176 68.2005C221.461 66.5365 224.448 64.5098 227.136 62.1205C229.824 59.7312 232.128 57.0005 234.048 53.9285C235.968 50.8138 237.419 47.3792 238.4 43.6245V42.2165ZM196.032 28.1365H251.904V35.6245H196.032V28.1365ZM214.208 42.2165H239.168V49.6405H211.968L214.208 42.2165ZM212.032 18.6005H220.032C219.989 20.0512 219.904 21.8858 219.776 24.1045C219.648 26.2805 219.435 28.7552 219.136 31.5285C218.837 34.3018 218.389 37.2458 217.792 40.3605C217.237 43.4325 216.491 46.5898 215.552 49.8325C214.613 53.0325 213.44 56.2112 212.032 59.3685C210.667 62.5258 209.003 65.5552 207.04 68.4565C205.077 71.3578 202.773 74.0032 200.128 76.3925C199.36 75.4112 198.4 74.4512 197.248 73.5125C196.096 72.5738 194.859 71.7205 193.536 70.9525C196.139 68.7765 198.379 66.3872 200.256 63.7845C202.176 61.1392 203.797 58.3445 205.12 55.4005C206.443 52.4565 207.531 49.5125 208.384 46.5685C209.237 43.5818 209.899 40.6592 210.368 37.8005C210.837 34.9418 211.179 32.2752 211.392 29.8005C211.605 27.2832 211.755 25.0645 211.84 23.1445C211.925 21.2245 211.989 19.7098 212.032 18.6005ZM271.04 70.8885H304.768V76.7765H271.04V70.8885ZM267.584 60.7125H308.672V78.5685H300.736V66.5365H275.136V78.7605H267.584V60.7125ZM262.784 25.3845H313.28V30.9525H262.784V25.3845ZM260.992 41.3205H315.2V46.9525H260.992V41.3205ZM266.944 33.3845H309.12V38.8245H266.944V33.3845ZM258.88 52.3925H317.184V58.2805H258.88V52.3925ZM283.84 28.0725H291.776V54.8245H283.84V28.0725ZM270.912 20.2645L277.888 18.5365C278.613 19.4752 279.275 20.5632 279.872 21.8005C280.512 23.0378 281.003 24.1258 281.344 25.0645L273.984 27.2405C273.771 26.3018 273.365 25.1712 272.768 23.8485C272.213 22.5258 271.595 21.3312 270.912 20.2645ZM267.904 47.5285L275.008 46.0565C275.648 46.9098 276.245 47.8912 276.8 49.0005C277.397 50.1098 277.803 51.0912 278.016 51.9445L270.656 53.7365C270.443 52.8405 270.08 51.8165 269.568 50.6645C269.056 49.5125 268.501 48.4672 267.904 47.5285ZM297.408 18.4725L305.536 19.7525C304.768 21.1605 304.021 22.4405 303.296 23.5925C302.571 24.7445 301.888 25.7685 301.248 26.6645L294.336 25.3205C294.848 24.2965 295.403 23.1445 296 21.8645C296.64 20.5845 297.109 19.4538 297.408 18.4725ZM300.736 46.1205L308.608 47.2725C307.925 48.4672 307.285 49.5552 306.688 50.5365C306.133 51.5178 305.643 52.3712 305.216 53.0965L297.984 52.0085C298.453 51.1125 298.944 50.1312 299.456 49.0645C300.011 47.9552 300.437 46.9738 300.736 46.1205ZM360.96 24.2325H367.616V72.4885H360.96V24.2325ZM372.288 20.7765H379.648V78.5685H372.288V20.7765ZM349.504 21.0325H356.416V45.2245C356.416 49.1925 356.267 53.1605 355.968 57.1285C355.712 61.0965 355.115 64.9152 354.176 68.5845C353.28 72.2112 351.829 75.5818 349.824 78.6965C349.397 78.1845 348.821 77.6085 348.096 76.9685C347.371 76.3712 346.645 75.7952 345.92 75.2405C345.195 74.6858 344.533 74.2592 343.936 73.9605C345.6 71.2298 346.816 68.3072 347.584 65.1925C348.395 62.0778 348.907 58.8352 349.12 55.4645C349.376 52.0512 349.504 48.6165 349.504 45.1605V21.0325ZM324.992 38.2485H344.832V44.0725H324.992V38.2485ZM325.248 20.6485H344.704V26.4085H325.248V20.6485ZM324.992 47.0165H344.832V52.7765H324.992V47.0165ZM321.92 29.2245H347.072V35.3045H321.92V29.2245ZM328.512 55.8485H344.704V75.3685H328.512V69.2885H338.112V61.9285H328.512V55.8485ZM324.8 55.8485H331.328V77.8645H324.8V55.8485ZM423.552 55.6565H430.912V78.6965H423.552V55.6565ZM409.216 24.3605H444.736V30.9525H409.216V24.3605ZM417.6 48.4885V51.9445H436.736V48.4885H417.6ZM417.6 39.9765V43.3685H436.736V39.9765H417.6ZM410.88 34.5365H443.84V57.3845H410.88V34.5365ZM431.552 54.1205C432.661 56.1258 434.048 58.1525 435.712 60.2005C437.419 62.2485 439.253 64.1472 441.216 65.8965C443.221 67.6458 445.184 69.1178 447.104 70.3125C446.251 70.9525 445.312 71.8485 444.288 73.0005C443.264 74.1525 442.453 75.1978 441.856 76.1365C439.893 74.6432 437.931 72.8298 435.968 70.6965C434.005 68.5205 432.171 66.1952 430.464 63.7205C428.757 61.2032 427.285 58.7072 426.048 56.2325L431.552 54.1205ZM422.528 54.5045L428.352 56.5525C427.072 59.3258 425.493 61.9925 423.616 64.5525C421.781 67.1125 419.755 69.4592 417.536 71.5925C415.317 73.6832 413.013 75.4538 410.624 76.9045C410.24 76.3072 409.749 75.6245 409.152 74.8565C408.555 74.1312 407.936 73.4272 407.296 72.7445C406.656 72.0618 406.059 71.4858 405.504 71.0165C407.808 69.8645 410.027 68.4352 412.16 66.7285C414.336 64.9792 416.32 63.0592 418.112 60.9685C419.904 58.8778 421.376 56.7232 422.528 54.5045ZM423.552 18.6645H430.912V37.8645H430.4V55.9765H424.064V37.8645H423.552V18.6645ZM395.456 18.6645L402.112 21.0325C401.259 22.6965 400.363 24.4032 399.424 26.1525C398.485 27.8592 397.568 29.5232 396.672 31.1445C395.776 32.7232 394.923 34.1098 394.112 35.3045L388.992 33.1925C389.76 31.8698 390.549 30.3765 391.36 28.7125C392.171 27.0485 392.939 25.3205 393.664 23.5285C394.432 21.7365 395.029 20.1152 395.456 18.6645ZM402.688 26.2805L408.96 29.0965C407.381 31.4858 405.675 34.0032 403.84 36.6485C402.005 39.2938 400.171 41.8325 398.336 44.2645C396.501 46.6965 394.752 48.8298 393.088 50.6645L388.672 48.2325C389.867 46.7818 391.104 45.1605 392.384 43.3685C393.707 41.5338 394.987 39.6352 396.224 37.6725C397.504 35.6672 398.699 33.6832 399.808 31.7205C400.917 29.7578 401.877 27.9445 402.688 26.2805ZM385.6 33.6405L389.376 28.4565C390.443 29.4805 391.552 30.5898 392.704 31.7845C393.856 32.9792 394.923 34.1738 395.904 35.3685C396.885 36.5632 397.611 37.6725 398.08 38.6965L393.984 44.5205C393.515 43.4965 392.811 42.3445 391.872 41.0645C390.976 39.7845 389.973 38.5045 388.864 37.2245C387.755 35.9018 386.667 34.7072 385.6 33.6405ZM400.512 41.5765L405.888 39.4005C406.741 40.8085 407.552 42.3445 408.32 44.0085C409.088 45.6725 409.771 47.2938 410.368 48.8725C410.965 50.4085 411.392 51.7952 411.648 53.0325L405.824 55.5925C405.653 54.3552 405.291 52.9258 404.736 51.3045C404.181 49.6832 403.541 48.0405 402.816 46.3765C402.091 44.6698 401.323 43.0698 400.512 41.5765ZM385.408 46.6965C388.267 46.5685 391.637 46.3978 395.52 46.1845C399.403 45.9285 403.349 45.6725 407.36 45.4165L407.488 51.6885C403.733 51.9872 399.979 52.2858 396.224 52.5845C392.512 52.8405 389.163 53.0965 386.176 53.3525L385.408 46.6965ZM402.496 57.5125L407.872 55.8485C408.597 57.5552 409.237 59.4112 409.792 61.4165C410.389 63.3792 410.773 65.0858 410.944 66.5365L405.248 68.3925C405.12 66.8992 404.779 65.1285 404.224 63.0805C403.712 61.0325 403.136 59.1765 402.496 57.5125ZM388.16 56.2325L394.304 57.3205C393.963 60.3925 393.451 63.4218 392.768 66.4085C392.128 69.3525 391.36 71.8485 390.464 73.8965C390.037 73.5978 389.483 73.2778 388.8 72.9365C388.117 72.5952 387.413 72.2752 386.688 71.9765C385.963 71.6352 385.344 71.3792 384.832 71.2085C385.771 69.2885 386.496 66.9845 387.008 64.2965C387.52 61.6085 387.904 58.9205 388.16 56.2325ZM395.136 50.1525H401.792V78.7605H395.136V50.1525Z" fill="white"/>
<mask id="mask0_270_411" style="mask-type:luminance" maskUnits="userSpaceOnUse" x="487" y="0" width="36" height="48">
<path d="M521.985 47.582L487.167 47.5578L487.251 0.0552985L522.069 0.0795059L521.985 47.582Z" fill="white"/>
</mask>
<g mask="url(#mask0_270_411)">
<path d="M503.097 27.2394C506.555 27.2419 509.741 26.2586 512.314 24.6208C512.052 31.4684 505.844 38.316 493.613 45.1595L495.423 47.5636C513.143 38.1744 522.016 27.8606 522.036 16.6224C522.045 11.4646 520.409 7.42104 517.127 4.49598C513.851 1.56673 509.694 0.104547 504.661 0.101047C499.628 0.0975484 495.574 1.26887 492.48 3.6192C489.395 5.96534 487.845 8.80318 487.839 12.1285C487.839 12.1663 487.848 12.1914 487.848 12.2334C487.749 12.8246 487.684 13.42 487.683 14.0322C487.67 21.3203 494.572 27.2335 503.097 27.2394Z" fill="white"/>
</g>
<mask id="mask1_270_411" style="mask-type:luminance" maskUnits="userSpaceOnUse" x="448" y="0" width="37" height="48">
<path d="M484.134 47.542L448 47.5169L448.084 0.0140606L484.218 0.039182L484.134 47.542Z" fill="white"/>
</mask>
<g mask="url(#mask1_270_411)">
<path d="M452.697 4.88632C452.5 5.08327 452.254 5.2718 452.073 5.47715C449.792 7.77354 448.409 10.7415 448.403 13.9914C448.39 21.2795 455.291 27.1927 463.817 27.1987C467.722 27.2014 471.275 25.9584 474.002 23.9139C474.001 23.9936 474.016 24.0649 474.016 24.1488C474.004 31.1392 467.756 38.1336 455.265 45.1195L457.07 47.5235C474.796 38.1343 483.668 27.8205 483.688 16.5823C483.697 11.4202 482.061 7.37664 478.78 4.45576C475.498 1.52649 471.341 0.0601104 466.313 0.0566147C461.285 0.053119 457.221 1.22864 454.131 3.57898C453.694 3.90576 453.355 4.27454 452.982 4.62653C452.883 4.71032 452.795 4.79832 452.697 4.88632Z" fill="white"/>
</g>
</svg>
