<svg width="522" height="96" viewBox="0 0 522 96" fill="none" xmlns="http://www.w3.org/2000/svg">
<mask id="mask0_269_311" style="mask-type:luminance" maskUnits="userSpaceOnUse" x="0" y="0" width="35" height="48">
<path d="M0 0H34.843V47.495H0V0Z" fill="white"/>
</mask>
<g mask="url(#mask0_269_311)">
<path d="M18.9383 20.3263C15.4776 20.3263 12.2917 21.3115 9.71951 22.9509C9.96986 16.1042 16.1697 9.25331 28.3977 2.40242L26.5814 0C8.86536 9.40005 0.00488281 19.7183 0.00488281 30.9548C0.00488281 36.1118 1.64935 40.1536 4.93828 43.0759C8.2223 46.0024 12.385 47.4615 17.4215 47.4615C22.458 47.4615 26.5127 46.2875 29.6053 43.9354C32.688 41.5875 34.2343 38.749 34.2343 35.4242C34.2343 35.3865 34.2245 35.3613 34.2245 35.3194C34.3227 34.7282 34.3865 34.1328 34.3865 33.5207C34.3865 26.2338 27.4699 20.3263 18.9383 20.3263Z" fill="#ED3A19"/>
</g>
<mask id="mask1_269_311" style="mask-type:luminance" maskUnits="userSpaceOnUse" x="37" y="0" width="37" height="48">
<path d="M37.3564 0H73.5151V47.495H37.3564V0Z" fill="white"/>
</mask>
<g mask="url(#mask1_269_311)">
<path d="M68.8907 42.6273C69.0871 42.4302 69.3325 42.2415 69.5141 42.0361C71.7918 39.7385 73.1712 36.7701 73.1712 33.5207C73.1712 26.2338 66.2547 20.3263 57.7231 20.3263C53.8156 20.3263 50.2616 21.5715 47.5372 23.6175C47.5372 23.5379 47.5225 23.4666 47.5225 23.3827C47.5225 16.3935 53.7616 9.39586 66.2497 2.40242L64.4384 0C46.7174 9.40005 37.8569 19.7183 37.8569 30.9548C37.8569 36.116 39.5014 40.1578 42.7903 43.0759C46.0793 46.0024 50.242 47.4657 55.2735 47.4657C60.3051 47.4657 64.3697 46.2875 67.4573 43.9354C67.8942 43.6084 68.2329 43.2394 68.606 42.8872C68.7042 42.8034 68.7925 42.7153 68.8907 42.6273Z" fill="#ED3A19"/>
</g>
<path d="M75.9471 43.88H135.211V52.264H75.9471V43.88ZM172.523 34.856H199.595V42.024H172.523V34.856ZM139.691 31.912H172.971V38.248H139.691V31.912ZM142.059 46.568H170.475V52.776H142.059V46.568ZM143.211 57H169.643V63.208H143.211V57ZM186.027 19.048H193.451V70.184C193.451 72.1467 193.216 73.6613 192.747 74.728C192.278 75.8373 191.467 76.712 190.315 77.352C189.12 77.9067 187.627 78.2907 185.835 78.504C184.086 78.7173 181.931 78.824 179.371 78.824C179.243 77.8 178.902 76.5627 178.347 75.112C177.835 73.704 177.302 72.5093 176.747 71.528C178.454 71.5707 180.032 71.592 181.483 71.592C182.976 71.592 184 71.592 184.555 71.592C185.11 71.592 185.494 71.4853 185.707 71.272C185.92 71.0587 186.027 70.696 186.027 70.184V19.048ZM173.739 47.72L180.075 45.608C180.886 47.1013 181.632 48.7013 182.315 50.408C183.04 52.1147 183.638 53.8 184.107 55.464C184.619 57.0853 184.96 58.5573 185.131 59.88L178.347 62.248C178.219 60.968 177.92 59.496 177.451 57.832C176.982 56.168 176.427 54.4613 175.787 52.712C175.147 50.9627 174.464 49.2987 173.739 47.72ZM139.691 22.568L145.003 20.264C145.942 21.672 146.816 23.2293 147.627 24.936C148.438 26.6427 148.971 28.136 149.227 29.416L143.659 32.04C143.403 30.76 142.891 29.2453 142.123 27.496C141.398 25.704 140.587 24.0613 139.691 22.568ZM144.363 39.528L150.251 37.48C150.976 38.7173 151.659 40.0613 152.299 41.512C152.982 42.9627 153.408 44.2427 153.579 45.352L147.307 47.656C147.179 46.5893 146.816 45.288 146.219 43.752C145.664 42.216 145.046 40.808 144.363 39.528ZM148.843 19.176H154.859V34.856H148.843V19.176ZM152.875 48.424H159.979V71.656H152.875V48.424ZM157.803 19.176H163.883V34.856H157.803V19.176ZM139.947 69.224C142.678 68.968 145.814 68.6693 149.355 68.328C152.939 67.9867 156.694 67.624 160.619 67.24C164.544 66.8133 168.448 66.3867 172.331 65.96L172.459 72.68C168.747 73.1067 164.992 73.5333 161.195 73.96C157.44 74.4293 153.835 74.856 150.379 75.24C146.923 75.624 143.766 75.9653 140.907 76.264L139.947 69.224ZM167.979 19.88L174.635 22.248C173.611 23.9973 172.587 25.7253 171.563 27.432C170.539 29.1387 169.6 30.5893 168.747 31.784L163.627 29.736C164.096 28.84 164.608 27.816 165.163 26.664C165.718 25.512 166.251 24.3387 166.763 23.144C167.275 21.9493 167.68 20.8613 167.979 19.88ZM162.091 37.416L169.003 39.144C168.32 40.5947 167.659 42.024 167.019 43.432C166.379 44.84 165.782 46.056 165.227 47.08L159.211 45.544C159.552 44.8187 159.894 43.9867 160.235 43.048C160.619 42.0667 160.96 41.0853 161.259 40.104C161.6 39.1227 161.878 38.2267 162.091 37.416ZM203.947 43.88H263.211V52.264H203.947V43.88ZM279.403 24.936H286.955V78.632H279.403V24.936ZM268.331 37.288H296.683V44.584H268.331V37.288ZM279.467 40.424L284.203 42.6C283.435 44.904 282.56 47.2933 281.579 49.768C280.598 52.2427 279.51 54.7173 278.315 57.192C277.12 59.624 275.862 61.928 274.539 64.104C273.259 66.2373 271.936 68.1147 270.571 69.736C270.187 68.6267 269.611 67.3467 268.843 65.896C268.075 64.4453 267.392 63.2293 266.795 62.248C268.032 60.968 269.27 59.4533 270.507 57.704C271.787 55.912 272.982 54.0347 274.091 52.072C275.243 50.0667 276.267 48.0613 277.163 46.056C278.102 44.0507 278.87 42.1733 279.467 40.424ZM291.499 18.856L296.875 24.616C294.358 25.64 291.584 26.5573 288.555 27.368C285.526 28.136 282.432 28.84 279.275 29.48C276.16 30.0773 273.11 30.568 270.123 30.952C269.952 30.0987 269.654 29.096 269.227 27.944C268.8 26.792 268.352 25.8107 267.883 25C270.742 24.5733 273.6 24.04 276.459 23.4C279.36 22.76 282.112 22.056 284.715 21.288C287.36 20.52 289.622 19.7093 291.499 18.856ZM286.571 45.864C287.126 46.248 287.872 46.9093 288.811 47.848C289.792 48.7867 290.838 49.8107 291.947 50.92C293.056 52.0293 294.059 53.0747 294.955 54.056C295.894 54.9947 296.576 55.656 297.003 56.04L292.459 61.864C291.904 60.968 291.2 59.9653 290.347 58.856C289.536 57.7467 288.662 56.5947 287.723 55.4C286.784 54.1627 285.867 53.0107 284.971 51.944C284.075 50.8773 283.307 49.9813 282.667 49.256L286.571 45.864ZM304.555 20.008L313.259 21.416C312.662 25.7253 311.958 30.1627 311.147 34.728C310.379 39.2933 309.526 43.816 308.587 48.296C307.691 52.7333 306.752 56.9787 305.771 61.032C304.79 65.0427 303.808 68.6907 302.827 71.976L295.467 70.44C296.363 67.112 297.259 63.3787 298.155 59.24C299.094 55.1013 299.968 50.792 300.779 46.312C301.632 41.832 302.379 37.352 303.019 32.872C303.659 28.392 304.171 24.104 304.555 20.008ZM290.155 68.456C292.758 68.2 295.808 67.9013 299.307 67.56C302.848 67.2187 306.603 66.856 310.571 66.472C314.539 66.0453 318.464 65.6187 322.347 65.192L322.603 72.232C319.019 72.744 315.392 73.256 311.723 73.768C308.096 74.3227 304.598 74.8347 301.227 75.304C297.899 75.7733 294.806 76.1787 291.947 76.52L290.155 68.456ZM312.043 52.008L319.403 49.896C320.726 52.6693 321.984 55.656 323.179 58.856C324.374 62.0133 325.398 65.1067 326.251 68.136C327.104 71.1653 327.702 73.8533 328.043 76.2L319.915 78.76C319.659 76.4133 319.126 73.7253 318.315 70.696C317.547 67.624 316.608 64.4667 315.499 61.224C314.432 57.9387 313.28 54.8667 312.043 52.008ZM356.139 20.136H364.971C364.886 21.928 364.736 24.232 364.523 27.048C364.31 29.864 363.904 33 363.307 36.456C362.752 39.8693 361.899 43.4533 360.747 47.208C359.595 50.9627 358.016 54.7173 356.011 58.472C354.048 62.184 351.531 65.7467 348.459 69.16C345.43 72.5307 341.739 75.5387 337.387 78.184C336.704 77.2027 335.766 76.1573 334.571 75.048C333.419 73.9387 332.203 72.936 330.923 72.04C335.19 69.6507 338.774 66.92 341.675 63.848C344.576 60.776 346.944 57.5547 348.779 54.184C350.614 50.7707 352.022 47.3573 353.003 43.944C353.984 40.488 354.688 37.224 355.115 34.152C355.542 31.08 355.798 28.328 355.883 25.896C355.968 23.464 356.054 21.544 356.139 20.136ZM364.651 21.864C364.694 22.6747 364.779 23.9547 364.907 25.704C365.035 27.4533 365.291 29.544 365.675 31.976C366.059 34.408 366.635 37.0533 367.403 39.912C368.214 42.728 369.28 45.6293 370.603 48.616C371.926 51.6027 373.568 54.5253 375.531 57.384C377.494 60.2427 379.862 62.888 382.635 65.32C385.451 67.752 388.736 69.864 392.491 71.656C391.254 72.552 390.102 73.5973 389.035 74.792C388.011 75.9867 387.179 77.1173 386.539 78.184C382.614 76.2213 379.179 73.896 376.235 71.208C373.334 68.4773 370.838 65.5333 368.747 62.376C366.699 59.176 364.992 55.9333 363.627 52.648C362.262 49.3627 361.152 46.1413 360.299 42.984C359.488 39.784 358.87 36.8187 358.443 34.088C358.016 31.3573 357.718 28.9893 357.547 26.984C357.419 24.9787 357.312 23.528 357.227 22.632L364.651 21.864ZM434.475 24.232H441.131V72.488H434.475V24.232ZM445.803 20.776H453.163V78.568H445.803V20.776ZM423.019 21.032H429.931V45.224C429.931 49.192 429.782 53.16 429.483 57.128C429.227 61.096 428.63 64.9147 427.691 68.584C426.795 72.2107 425.344 75.5813 423.339 78.696C422.912 78.184 422.336 77.608 421.611 76.968C420.886 76.3707 420.16 75.7947 419.435 75.24C418.71 74.6853 418.048 74.2587 417.451 73.96C419.115 71.2293 420.331 68.3067 421.099 65.192C421.91 62.0773 422.422 58.8347 422.635 55.464C422.891 52.0507 423.019 48.616 423.019 45.16V21.032ZM398.507 38.248H418.347V44.072H398.507V38.248ZM398.763 20.648H418.219V26.408H398.763V20.648ZM398.507 47.016H418.347V52.776H398.507V47.016ZM395.435 29.224H420.587V35.304H395.435V29.224ZM402.027 55.848H418.219V75.368H402.027V69.288H411.627V61.928H402.027V55.848ZM398.315 55.848H404.843V77.864H398.315V55.848ZM497.067 55.656H504.427V78.696H497.067V55.656ZM482.731 24.36H518.251V30.952H482.731V24.36ZM491.115 48.488V51.944H510.251V48.488H491.115ZM491.115 39.976V43.368H510.251V39.976H491.115ZM484.395 34.536H517.355V57.384H484.395V34.536ZM505.067 54.12C506.176 56.1253 507.563 58.152 509.227 60.2C510.934 62.248 512.768 64.1467 514.731 65.896C516.736 67.6453 518.699 69.1173 520.619 70.312C519.766 70.952 518.827 71.848 517.803 73C516.779 74.152 515.968 75.1973 515.371 76.136C513.408 74.6427 511.446 72.8293 509.483 70.696C507.52 68.52 505.686 66.1947 503.979 63.72C502.272 61.2027 500.8 58.7067 499.563 56.232L505.067 54.12ZM496.043 54.504L501.867 56.552C500.587 59.3253 499.008 61.992 497.131 64.552C495.296 67.112 493.27 69.4587 491.051 71.592C488.832 73.6827 486.528 75.4533 484.139 76.904C483.755 76.3067 483.264 75.624 482.667 74.856C482.07 74.1307 481.451 73.4267 480.811 72.744C480.171 72.0613 479.574 71.4853 479.019 71.016C481.323 69.864 483.542 68.4347 485.675 66.728C487.851 64.9787 489.835 63.0587 491.627 60.968C493.419 58.8773 494.891 56.7227 496.043 54.504ZM497.067 18.664H504.427V37.864H503.915V55.976H497.579V37.864H497.067V18.664ZM468.971 18.664L475.627 21.032C474.774 22.696 473.878 24.4027 472.939 26.152C472 27.8587 471.083 29.5227 470.187 31.144C469.291 32.7227 468.438 34.1093 467.627 35.304L462.507 33.192C463.275 31.8693 464.064 30.376 464.875 28.712C465.686 27.048 466.454 25.32 467.179 23.528C467.947 21.736 468.544 20.1147 468.971 18.664ZM476.203 26.28L482.475 29.096C480.896 31.4853 479.19 34.0027 477.355 36.648C475.52 39.2933 473.686 41.832 471.851 44.264C470.016 46.696 468.267 48.8293 466.603 50.664L462.187 48.232C463.382 46.7813 464.619 45.16 465.899 43.368C467.222 41.5333 468.502 39.6347 469.739 37.672C471.019 35.6667 472.214 33.6827 473.323 31.72C474.432 29.7573 475.392 27.944 476.203 26.28ZM459.115 33.64L462.891 28.456C463.958 29.48 465.067 30.5893 466.219 31.784C467.371 32.9787 468.438 34.1733 469.419 35.368C470.4 36.5627 471.126 37.672 471.595 38.696L467.499 44.52C467.03 43.496 466.326 42.344 465.387 41.064C464.491 39.784 463.488 38.504 462.379 37.224C461.27 35.9013 460.182 34.7067 459.115 33.64ZM474.027 41.576L479.403 39.4C480.256 40.808 481.067 42.344 481.835 44.008C482.603 45.672 483.286 47.2933 483.883 48.872C484.48 50.408 484.907 51.7947 485.163 53.032L479.339 55.592C479.168 54.3547 478.806 52.9253 478.251 51.304C477.696 49.6827 477.056 48.04 476.331 46.376C475.606 44.6693 474.838 43.0693 474.027 41.576ZM458.923 46.696C461.782 46.568 465.152 46.3973 469.035 46.184C472.918 45.928 476.864 45.672 480.875 45.416L481.003 51.688C477.248 51.9867 473.494 52.2853 469.739 52.584C466.027 52.84 462.678 53.096 459.691 53.352L458.923 46.696ZM476.011 57.512L481.387 55.848C482.112 57.5547 482.752 59.4107 483.307 61.416C483.904 63.3787 484.288 65.0853 484.459 66.536L478.763 68.392C478.635 66.8987 478.294 65.128 477.739 63.08C477.227 61.032 476.651 59.176 476.011 57.512ZM461.675 56.232L467.819 57.32C467.478 60.392 466.966 63.4213 466.283 66.408C465.643 69.352 464.875 71.848 463.979 73.896C463.552 73.5973 462.998 73.2773 462.315 72.936C461.632 72.5947 460.928 72.2747 460.203 71.976C459.478 71.6347 458.859 71.3787 458.347 71.208C459.286 69.288 460.011 66.984 460.523 64.296C461.035 61.608 461.419 58.92 461.675 56.232ZM468.651 50.152H475.307V78.76H468.651V50.152Z" fill="black"/>
</svg>
