<svg width="120" height="120" viewBox="0 0 120 120" fill="none" xmlns="http://www.w3.org/2000/svg">
<rect x="0.5" y="0.5" width="119" height="119" rx="59.5" fill="#EF6000"/>
<rect x="0.5" y="0.5" width="119" height="119" rx="59.5" stroke="#EF6000"/>
<path d="M76.7925 19.1663C80.0813 17.2678 83.6492 16.7318 87.3623 17.1171C88.5572 17.2399 89.6237 17.9379 90.679 18.4906C92.4155 19.3952 94.018 20.484 95.3078 22.0474C96.5027 23.4936 97.7143 24.9118 98.6747 26.5255C99.0153 27.1006 99.3782 27.6813 99.5402 28.329C100.171 30.8751 101.009 33.3598 101.461 35.9674C102.137 39.8703 102.008 43.7844 101.952 47.7041C101.941 48.7483 101.573 49.8036 101.282 50.831C100.796 52.5451 100.182 54.2146 99.4062 55.8283C98.7305 57.2354 97.8874 58.5531 97.3067 60.0049C97.0387 60.6805 96.3854 61.1216 96.0839 61.747C94.9393 64.1367 93.1693 66.1133 91.8236 68.3691C90.0424 71.3508 89.0597 74.5167 89.2216 78.0288C89.2775 79.2404 89.6125 80.3125 90.2658 81.2896C91.12 82.5683 92.3987 82.7246 93.5713 81.7475C93.7779 81.5744 93.951 81.3678 94.1687 81.217C94.5317 80.9658 94.9225 80.9602 95.2855 81.2338C95.6707 81.5297 95.693 81.9317 95.4809 82.3114C95.0286 83.1266 94.5875 83.9586 94.0515 84.7235C93.1525 86.0134 91.9688 86.6387 90.2937 86.5438C88.4623 86.4377 86.6308 86.5271 84.9558 85.6169C84.3081 85.2652 83.6827 84.8855 83.0573 84.5281C82.8451 84.757 82.9791 84.9246 83.0517 85.0697C85.0842 89.2463 86.1171 93.702 86.776 98.2582C86.8318 98.6547 86.9268 99.0455 86.9491 99.442C86.9659 99.7882 86.7816 100.039 86.4019 100.073C86.0948 100.101 85.8771 99.9166 85.7933 99.6541C85.6984 99.3638 85.6649 99.0455 85.6369 98.7328C85.0953 93.2106 83.6436 87.9565 80.8015 83.1601C78.0488 78.5202 74.5144 74.6395 69.6008 72.1827C69.383 71.9426 69.3551 71.6802 69.4724 71.3843C70.0307 70.6361 70.5947 71.0995 71.1586 71.3843C73.1129 72.3949 74.8326 73.7294 76.5636 75.4492C76.2676 71.7863 75.7763 68.3245 77.0549 64.9631C77.2057 64.6951 77.3453 64.4159 77.4346 64.12C77.6356 63.4723 78.2442 62.7743 77.1833 62.2662C77.0326 62.1936 77.0717 61.8586 77.0884 61.6353C77.5798 60.2394 78.0097 59.9323 79.4615 60.1556C80.8015 60.3622 82.1137 60.4236 83.4258 59.9993C87.2506 58.7541 88.3338 54.6222 85.609 51.6741C85.006 51.0208 84.2522 50.669 83.3868 50.5574C79.3833 50.0604 76.558 47.7544 74.2184 44.6611C73.4646 43.6616 73.1073 42.5337 72.9845 41.3165C72.8784 40.2724 72.4596 39.9987 71.382 40.2779C68.0206 41.1601 64.7263 42.2936 61.3538 43.1256C60.7452 43.2763 60.1533 43.4662 59.5168 43.388C58.5843 42.556 58.2772 41.3723 57.7858 40.2947C57.2722 39.1724 56.7808 38.0501 55.8428 37.0673C55.4407 37.6815 55.8093 38.0612 56.0549 38.4242C56.9036 39.6917 57.3615 41.1378 58.0371 42.489C58.2158 42.8464 58.3665 43.2261 58.1599 43.6337C57.6574 44.1865 57.0042 44.287 56.3062 44.2423C54.9606 43.0586 54.4245 41.3835 53.6316 39.8647C53.4027 39.4236 53.3971 38.7871 52.6378 38.7145C52.3977 39.3678 52.8611 39.8201 53.0844 40.3059C53.492 41.1936 54.0448 42.0088 54.458 42.8966C54.6758 43.3601 55.061 43.857 54.4022 44.2981C51.2028 44.7225 48.0368 44.4601 44.91 43.7118C44.0892 43.5164 43.2908 43.12 42.7771 44.2423C42.604 44.6164 42.1238 44.6555 41.705 44.5717C40.8061 44.1195 41.102 43.6951 41.7385 43.2819C41.8949 42.5393 41.8893 41.8078 41.7943 41.0485C41.6324 39.7586 41.8502 38.4577 42.0512 37.1902C42.6375 33.4157 44.2958 30.0711 46.4511 26.9666C47.2161 25.861 48.3495 25.0849 49.4216 24.292C51.6495 22.6393 54.1286 21.3997 56.563 20.0987C58.2269 19.2109 60.131 18.982 61.9736 18.6861C65.1786 18.1668 68.3612 18.379 71.4769 19.3393C72.4987 19.652 73.5093 20.0038 74.52 20.3388C74.6763 20.4449 74.8103 20.5845 74.7824 20.7688C74.5311 22.4606 75.6144 23.3986 76.7869 24.2641C77.8981 25.0849 79.0204 25.8889 80.3046 26.4306C80.7178 26.6036 81.1142 26.8047 81.5665 26.8382C82.2477 26.8884 82.9401 26.8828 83.4147 26.3021C83.9172 25.6879 83.7274 24.9844 83.3533 24.426C81.9071 22.2596 80.2432 20.3277 77.5184 19.7358C77.1945 19.6632 76.759 19.6967 76.8036 19.1551L76.7925 19.1663Z" fill="white"/>
<path d="M65.8653 74.6676C65.8653 76.8955 65.7871 79.1233 66.0049 81.3512C66.0607 81.9486 66.0998 82.373 66.8592 82.4065C67.4845 82.4288 67.6967 82.8699 67.7805 83.4953C68.2495 87.0521 69.7459 90.2291 71.4936 93.3057C71.6722 93.6128 71.8174 93.9813 72.0799 94.1935C73.4032 95.2544 73.459 96.6615 73.2747 98.1635C73.191 98.8726 73.1407 99.5817 73.0961 100.291C73.057 100.911 72.7387 101.274 72.1357 101.402C71.9179 101.447 71.7002 101.491 71.4768 101.519C70.0195 101.726 68.5622 101.888 67.1104 102.161C65.7034 102.424 64.2572 102.284 62.839 102.133C58.5396 101.676 54.2458 101.173 49.9464 100.71C48.7962 100.587 47.6348 100.47 46.4789 100.447C42.9836 100.386 39.5664 99.6934 36.1213 99.2579C35.1889 99.1406 35.0326 98.9843 35.0549 98.0853C35.0884 96.6615 35.1665 95.2321 35.2168 93.8082C35.2335 93.3225 35.4736 92.9875 35.7919 92.6469C38.2208 90.0728 39.8791 87.0521 41.0126 83.7187C41.2304 83.0821 41.3364 82.4233 41.4202 81.7588C41.5486 80.7258 41.6491 80.5527 42.5983 80.5471C43.1958 80.5471 43.4806 80.335 43.6983 79.8213C44.882 76.9848 46.4622 74.3326 47.5231 71.4403C48.0703 70.5804 48.6175 70.8931 49.1703 71.4403C49.4997 71.8479 49.4103 72.2834 49.2708 72.7245C48.1652 74.8072 47.2886 76.996 46.317 79.1401C45.781 80.3126 45.9429 80.4913 47.1937 80.6756C49.9687 81.0888 52.7885 80.8152 55.5691 81.1948C57.7746 81.4964 60.0081 81.3735 62.2136 81.6136C62.811 81.675 63.3862 81.7476 63.6877 81.0664C64.0004 79.0396 63.7938 76.9848 64.1176 74.9635C64.14 74.8351 64.1176 74.6955 64.1176 74.5615C64.14 73.5341 64.6202 72.9032 65.346 73.0595C66.3846 73.2773 65.91 74.059 65.8597 74.6676H65.8653Z" fill="white"/>
<path d="M76.7925 19.1667C79.1321 19.3789 80.6899 20.9088 82.2924 22.394C83.035 23.0808 83.5431 23.9016 83.8781 24.8341C84.3751 26.2076 83.7721 27.101 82.3036 27.2071C81.5274 27.263 80.8016 27.101 80.1036 26.7604C78.529 25.9955 77.1331 24.9681 75.7484 23.9072C74.5535 22.9915 74.2631 21.7575 74.5088 20.3393C75.1733 19.7642 75.8377 19.1723 76.7925 19.1611V19.1667Z" fill="#EF6000"/>
<path d="M48.9694 71.6637C48.9694 71.4907 48.9694 71.312 48.9694 71.1389C49.3881 70.8206 49.7232 71.111 50.0582 71.3008C52.2525 72.5571 54.5809 73.1266 57.1438 73.2383C59.8686 73.3556 62.5264 73.5398 65.1563 72.6129C65.9938 72.317 66.7867 71.9206 67.641 71.6805C67.9537 71.5967 68.2887 71.5967 68.5734 71.4125C68.7968 71.2785 69.0257 71.178 69.2937 71.217C69.4221 71.2505 69.5282 71.312 69.612 71.4125C69.6064 71.6693 69.6008 71.9262 69.5953 72.183C68.4339 72.5125 67.4567 73.2551 66.3288 73.6515C65.8486 73.819 66.139 74.3774 65.871 74.6677C65.8487 74.4946 65.8151 74.3159 65.8095 74.1429C65.7928 73.752 65.8821 73.2886 65.2624 73.2997C64.7375 73.3109 64.4639 73.6683 64.4471 74.2434C64.3857 76.4489 64.3076 78.6488 64.2182 80.8544C64.2126 81.0107 64.0674 81.1615 63.9893 81.3122C63.1797 79.8047 63.7269 78.1854 63.6264 76.622C63.6096 76.3149 63.6989 76.0078 63.7325 75.6951C63.7939 75.1144 63.5314 74.8352 62.9619 74.9469C60.0696 75.4997 57.2052 74.986 54.3464 74.7012C52.3865 74.5058 50.5663 73.7743 48.9973 72.5292C48.9749 72.2444 49.4049 71.9429 48.9749 71.6693L48.9694 71.6637Z" fill="white"/>
<path d="M21.9334 59.949C21.8887 60.1891 21.7882 60.3343 21.6095 60.3901C20.9842 60.5967 20.3588 60.8033 19.7223 60.9764C19.4542 61.049 19.1862 60.9764 19.0522 60.6916C18.9126 60.3901 19.069 60.1444 19.3314 60.0495C19.9958 59.815 20.6659 59.5861 21.3527 59.4409C21.6877 59.3683 21.911 59.6307 21.9389 59.9434L21.9334 59.949Z" fill="white"/>
<path d="M25.8809 52.3769C25.892 51.2825 26.1098 50.8526 26.5733 50.9866C27.327 51.2044 27.0423 51.8576 27.0032 52.3322C26.9641 52.8069 27.1986 53.6221 26.4672 53.6276C25.5905 53.6332 25.9981 52.7789 25.8809 52.3713V52.3769Z" fill="white"/>
<path d="M22.5699 52.5221C23.078 52.4886 24.0608 53.7952 23.8877 54.3089C23.7872 54.6048 23.5024 54.7388 23.2511 54.5601C22.743 54.1972 22.3298 53.7282 22.1623 53.1084C22.0842 52.818 22.2684 52.6059 22.5699 52.5221Z" fill="white"/>
<path d="M21.7099 57.1287C21.1907 56.9556 20.6881 56.8104 20.2024 56.615C20.046 56.5536 19.9678 56.3637 19.9846 56.1739C20.0069 55.9282 20.1577 55.7775 20.3699 55.6881C20.8668 55.4759 21.9724 55.9841 22.151 56.4978C22.2571 56.7993 22.0115 57.1287 21.7099 57.1287Z" fill="white"/>
<path d="M77.3452 64.9747V64.059C76.8203 64.8239 76.4127 65.3991 76.033 65.9853C74.8046 67.8614 73.2468 69.4304 71.5326 70.8543C71.2758 71.0664 70.8626 71.1781 70.9575 71.6471C70.5164 71.5187 70.1702 70.871 69.6063 71.407C69.4779 71.3903 69.3439 71.3735 69.2155 71.3568C69.9748 70.7537 70.7565 70.1675 71.4991 69.5365C74.0341 67.3701 75.9437 64.7346 77.334 61.7139C77.4569 62.235 77.8179 62.2834 78.4172 61.859C78.1939 63.0204 77.9371 64.0478 77.3452 64.9691V64.9747Z" fill="white"/>
<path d="M59.4273 43.1763C58.9973 43.2992 58.5953 43.5337 58.1263 43.4946C57.2999 41.7302 56.6355 39.8876 55.5411 38.2516C54.966 37.3917 54.9604 36.8278 55.4741 36.6547C56.2558 36.3923 56.4401 37.0623 56.7248 37.5481C57.7801 39.3516 58.506 41.3114 59.4329 43.1763H59.4273Z" fill="#EF6000"/>
<path d="M56.1051 43.9796C55.6193 44.1137 55.1279 44.069 54.6422 44.0355C53.961 42.7345 53.2742 41.4391 52.5986 40.1381C52.4143 39.7863 52.2636 39.4122 52.1128 39.0437C51.9788 38.7143 52.0458 38.4184 52.3529 38.2285C52.7047 38.0163 53.0397 38.0722 53.3021 38.396C53.4138 38.53 53.5143 38.6864 53.5701 38.8539C54.2011 40.6741 55.2787 42.2655 56.1107 43.9796H56.1051Z" fill="#EF6000"/>
<path d="M43.8602 85.8738C43.1064 85.8738 42.6709 85.455 42.6764 84.7459C42.6876 83.6236 43.2739 82.9201 44.1896 82.9368C45.0272 82.9536 45.4906 83.5008 45.4683 84.4556C45.4515 85.2764 44.7703 85.8738 43.8546 85.8682L43.8602 85.8738Z" fill="white"/>
<path d="M63.0624 86.002C63.0848 85.1644 63.6152 84.5446 64.302 84.5558C65.1116 84.567 65.7761 85.1142 65.7873 85.7842C65.804 86.5715 65.0391 87.3365 64.2629 87.3085C63.5482 87.2806 63.0401 86.7334 63.0569 86.002H63.0624Z" fill="white"/>
<path d="M48.9694 71.6634C48.5673 71.0771 48.0704 71.0882 47.5232 71.4456C47.177 71.2446 46.7583 71.1106 46.5014 70.8258C45.8202 70.0776 45.005 70.1334 44.1842 70.3791C43.2908 70.6471 42.3695 70.9152 41.5711 71.3786C39.1813 72.7745 36.9478 74.4049 34.8986 76.2699C34.491 76.6384 34.4017 77.0292 34.4408 77.5652C34.5971 79.7429 34.7088 81.9261 34.8149 84.1037C34.8372 84.5169 35.0326 85.1757 34.4408 85.2204C33.6702 85.2818 33.9494 84.5448 33.9103 84.1148C33.6591 81.0997 33.4804 78.0734 33.0505 75.0749C32.8271 73.5283 32.9388 71.9593 32.7155 70.4071C32.6205 69.7482 32.4363 69.5137 31.7439 69.5025C29.7282 69.469 27.7405 69.8096 25.7359 69.8319C25.2055 69.8375 25.105 70.139 25.0659 70.6081C24.9319 72.2887 24.7532 73.9582 24.7029 75.6557C24.6304 78.2409 24.6471 80.8261 24.6136 83.4113C24.5857 85.6894 24.8258 87.9396 25.5963 90.1172C26.2217 91.8928 27.2603 93.3445 28.7008 94.5283C28.8348 94.6399 29.0079 94.7181 29.1252 94.8465C29.2703 95.0141 29.3708 95.2206 29.2648 95.4552C29.1419 95.7288 28.913 95.8516 28.6227 95.8237C28.1481 95.779 27.7963 95.4831 27.5003 95.1536C25.8029 93.272 24.474 91.2004 23.9939 88.6543C23.7203 87.2082 23.5025 85.7508 23.5025 84.2768C23.5025 80.6642 23.4634 77.046 23.6141 73.439C23.6756 71.9537 23.8989 70.4517 24.2786 68.9832C24.5243 68.0396 24.3791 67.0345 24.3233 66.0518C24.1948 63.7514 24.742 61.624 26.0319 59.7144C27.2491 57.9221 28.779 57.3358 30.8952 57.816C31.2414 57.8941 31.5875 57.9947 31.9226 58.1063C34.1113 58.8322 35.0885 60.619 34.385 62.8077C34.0946 63.7123 33.8936 64.5387 34.1895 65.4935C34.4408 66.3087 34.3905 67.1741 33.8936 67.9447C33.6703 68.2909 33.5697 68.6594 33.6367 69.0893C33.9103 70.8537 33.9774 72.6405 34.0332 74.4217C34.0332 74.5892 34.1114 74.7567 34.2007 75.0973C37.5564 72.808 40.499 69.9883 44.5807 69.0502C44.0837 67.7492 43.3578 66.7386 42.8497 65.6275C41.8335 63.4108 40.7949 61.1941 40.8564 58.6535C40.8843 57.6373 40.5939 56.8891 39.5107 56.3475C37.4671 55.3368 36.3671 53.3993 35.4179 51.406C35.2057 50.9593 35.2392 50.4456 35.2392 49.9542C35.2337 46.1406 37.9306 43.3488 41.7218 43.2539C41.6381 43.6001 41.0685 43.8179 41.4594 44.2869C41.264 44.5828 40.9401 44.594 40.6442 44.6721C36.9813 45.599 35.5631 49.7365 37.8747 52.6902C38.7569 53.8181 39.5889 54.946 41.035 55.4597C41.8502 55.75 42.0792 56.5317 42.0568 57.3302C41.9452 61.4788 44.0167 64.8346 46.0045 68.2127C46.4735 69.0111 47.2273 69.6253 48.0425 70.1111C48.4557 70.3568 48.9414 70.5299 49.1313 71.0492C49.1704 71.2669 49.1257 71.4679 48.9694 71.6298V71.6634ZM25.4065 67.068C25.4065 67.3361 25.4009 67.6041 25.4065 67.8721C25.44 68.7487 25.4456 68.7822 26.311 68.732C28.1313 68.6315 29.946 68.3802 31.7774 68.4639C31.9951 68.4751 32.2074 68.4751 32.4028 68.3188C33.0728 67.7716 33.4916 66.4706 33.2347 65.661C33.0002 64.9239 32.9388 64.8681 32.2297 65.259C31.1744 65.8396 30.0744 66.0797 28.8851 65.8676C28.0364 65.7112 27.5506 65.1696 27.3719 64.3656C27.1877 63.5392 27.2993 62.7631 28.0084 62.1824C28.31 61.9367 28.6673 61.825 28.9856 62.0819C29.3318 62.3611 29.2424 62.7072 28.9688 63.0088C28.8795 63.1093 28.7511 63.1763 28.6841 63.2879C28.2318 64.0641 28.5556 64.6615 29.4546 64.762C30.8003 64.9128 31.9058 64.2986 32.8774 63.5224C33.8322 62.7575 33.7261 60.5519 32.8104 59.7479C30.8952 58.0672 27.9024 58.553 26.607 60.7474C25.5796 62.4951 25.2334 64.3935 25.3953 66.4259C25.3953 66.6214 25.3953 66.8447 25.3953 67.068H25.4065Z" fill="white"/>
<path d="M67.9481 71.921C68.1602 71.6809 68.4729 71.6809 68.7465 71.5859C68.6125 72.0103 68.2607 71.9265 67.9481 71.921Z" fill="black"/>
<path d="M57.8584 66.0514C55.731 66.0179 53.9666 65.2417 52.6712 63.5052C52.5372 63.3266 52.392 63.1535 52.2971 62.9525C52.0961 62.5281 51.6717 62.0088 52.2692 61.6682C52.9113 61.2997 53.09 61.953 53.2798 62.3718C54.3351 64.6778 57.5904 65.8336 60.3263 64.5885C60.8289 64.3595 61.1639 63.9407 61.538 63.5555C61.7558 63.3377 61.9679 63.092 62.2304 62.9469C62.5766 62.7514 62.9562 63.0585 62.9227 63.4606C62.8892 63.8012 62.6547 64.0133 62.4314 64.2311C61.1695 65.493 59.6451 66.1072 57.8528 66.0514H57.8584Z" fill="white"/>
<path d="M47.3053 53.7628C48.1875 53.7517 48.9078 54.4105 48.8911 55.2146C48.8743 56.1359 48.0926 56.9567 47.2272 56.9678C46.3226 56.979 45.647 56.3592 45.6582 55.5217C45.6637 54.5725 46.4175 53.774 47.3053 53.7684V53.7628Z" fill="#EF6000"/>
<path d="M68.4393 60.5067C67.3616 60.4732 66.9261 60.0432 66.9764 59.0661C67.0154 58.2285 67.719 57.6199 68.6012 57.659C69.5671 57.7037 70.3377 58.4016 70.293 59.2001C70.2484 60.0265 69.5113 60.5457 68.4393 60.5067Z" fill="#EF6000"/>
<path d="M57.7522 55.627C58.8633 55.6326 59.5445 56.3975 59.4608 57.5199C59.4329 57.8549 59.3603 58.1676 58.9806 58.1899C58.6735 58.2066 58.5451 57.9275 58.5004 57.6483C58.4725 57.4752 58.4836 57.2965 58.4557 57.1234C58.4111 56.8387 58.277 56.6209 57.9588 56.5986C57.6684 56.5762 57.4451 56.6879 57.3446 56.9838C57.3167 57.0676 57.2943 57.1513 57.272 57.2407C57.1603 57.6985 56.9984 58.1787 56.4066 57.9275C55.8705 57.6985 56.0603 57.1737 56.1776 56.7605C56.3954 55.9844 56.9314 55.6214 57.7578 55.627H57.7522Z" fill="white"/>
<path d="M67.1831 48.9385C67.7135 48.8995 68.2775 48.9944 68.8358 49.134C69.0424 49.1842 69.2546 49.2736 69.4332 49.3908C69.6622 49.5471 69.8185 49.7705 69.6845 50.0664C69.5561 50.3512 69.3048 50.4629 69.0312 50.3456C67.9257 49.8654 66.8145 49.8598 65.6699 50.1837C65.3851 50.2674 65.1395 50.0832 65.0669 49.7984C64.9943 49.5081 65.1562 49.2791 65.4354 49.1842C65.9826 48.9944 66.5521 48.9274 67.1831 48.9385Z" fill="white"/>
<path d="M52.3978 46.2021C53.1962 46.3864 54.0226 46.5595 54.8378 46.7717C55.0388 46.8219 55.2454 46.9615 55.3962 47.1123C55.5972 47.3077 55.6921 47.5646 55.4855 47.827C55.3347 48.0112 55.1225 48.1285 54.8992 48.0056C53.8941 47.4473 52.8277 47.2072 51.683 47.3077C51.4318 47.33 51.2475 47.1402 51.2028 46.9169C51.1414 46.6265 51.2978 46.3808 51.5769 46.2971C51.8282 46.2189 52.1018 46.2357 52.4033 46.2021H52.3978Z" fill="white"/>
<path d="M54.6532 52.0202C54.6644 52.6623 54.1339 53.2151 53.503 53.2207C52.8385 53.2319 52.4086 52.8131 52.4142 52.171C52.4142 51.54 52.8609 51.071 53.4695 51.0487C54.1228 51.0263 54.6476 51.4563 54.6588 52.0202H54.6532Z" fill="white"/>
<path d="M64.9217 53.1201C65.5639 53.148 66.044 53.6338 65.9994 54.2145C65.9547 54.8008 65.4019 55.2866 64.8268 55.2531C64.2293 55.214 63.7101 54.678 63.738 54.1252C63.7659 53.5445 64.2964 53.0978 64.9217 53.1257V53.1201Z" fill="white"/>
</svg>
