<svg width="120" height="121" viewBox="0 0 120 121" fill="none" xmlns="http://www.w3.org/2000/svg">
<rect x="0.5" y="0.976562" width="119" height="119" rx="59.5" fill="#EF6000"/>
<rect x="0.5" y="0.976562" width="119" height="119" rx="59.5" stroke="#EF6000"/>
<path d="M52.4603 77.5635C52.443 77.523 52.4314 77.4767 52.4025 77.4421C51.9093 76.8795 51.4662 76.9238 51.0732 77.575C51.1021 77.1011 50.7553 76.9335 50.4143 76.7485C49.4953 76.2341 48.5243 75.8064 47.6689 75.1822C47.1488 74.8065 46.5766 74.9337 46.0448 75.1822C45.4842 75.4481 44.9062 75.7024 44.3861 76.0434C41.502 77.9334 38.4792 79.5921 35.7454 81.7248C34.2831 82.8692 33.9826 84.2043 34.1444 85.8573C34.2947 87.3832 34.4103 88.909 34.5374 90.4406C34.5548 90.6314 34.5606 90.8279 34.5201 91.0128C34.4681 91.2671 34.3005 91.4232 34.0173 91.4232C33.7861 91.4232 33.6416 91.2498 33.6127 91.0822C33.5491 90.7123 33.5491 90.325 33.526 89.9436C33.3815 87.6548 33.2601 85.3603 33.0752 83.0715C33.0289 82.4878 33.1908 81.9445 33.1734 81.3723C33.0694 78.0143 33.0347 74.6563 32.9365 71.304C32.8671 69.0384 32.6128 68.7956 30.3761 68.8534C28.2202 68.9112 26.0644 69.0731 23.9086 69.1309C23.2266 69.1482 22.9607 69.4487 22.8913 70.0498C22.77 71.0497 22.6139 72.0438 22.5503 73.0495C22.14 79.1818 22.1169 85.3198 22.2036 91.4579C22.2267 92.8854 22.429 94.3072 22.7468 95.7233C23.2786 98.0814 24.8102 99.5957 26.8215 100.648C28.0411 101.283 29.3646 101.815 30.746 102C32.3527 102.214 33.9768 102.399 35.5084 101.474C36.15 101.087 36.936 100.931 37.6643 100.711C37.9706 100.619 38.2307 100.775 38.352 101.081C38.4734 101.387 38.3694 101.636 38.092 101.815C38.0515 101.838 38.011 101.867 37.9648 101.884C34.7917 103.023 31.6245 104.179 28.2491 102.555C27.2203 102.058 26.1395 101.723 25.1512 101.081C22.4868 99.3472 21.3482 96.7868 21.1921 93.7986C20.8973 88.0478 20.9494 82.297 21.2961 76.5462C21.4406 74.1997 21.5562 71.8589 21.9204 69.5354C22.0128 68.9401 21.9435 68.3506 22.6313 67.9345C23.1225 67.6397 23.059 66.9172 23.111 66.345C23.2381 64.8192 23.1225 63.2818 23.5098 61.7675C23.7467 60.837 23.9895 59.9122 24.3189 59.0106C25.3651 56.1785 28.8329 54.5833 31.636 55.7162C32.9827 56.2652 33.9306 57.2593 34.1097 58.8083C34.2196 59.762 34.4161 60.7272 33.9768 61.6404C33.7745 62.0565 33.9884 62.3859 34.0808 62.7385C34.5374 64.4608 34.5432 66.1428 33.7109 67.7726C33.6069 67.9749 33.4855 68.131 33.5665 68.42C34.156 70.5238 33.9942 72.6912 34.0577 74.8354C34.1213 76.945 34.0693 79.0546 34.0693 81.4416C35.6067 80.6036 36.6702 79.413 37.9995 78.6269C39.3982 77.8004 40.8489 77.0375 42.1435 76.0318C43.392 75.0608 44.9525 74.61 46.3223 73.5639C44.6462 71.3965 44.1318 68.8072 43.6463 66.2294C43.3226 64.5013 42.7273 62.8252 42.7562 61.0219C42.7735 59.866 42.6637 59.8198 41.5078 59.4961C41.0801 59.3747 40.6755 59.2013 40.3692 58.9066C39.2595 57.8315 38.1266 56.6814 37.8377 55.144C37.1961 51.7224 37.855 48.1447 41.1725 46.0525C41.7621 45.6768 41.606 45.3185 41.5598 44.8561C41.2881 42.2321 40.9125 39.6197 41.0859 36.9726C41.1148 36.4986 41.0627 36.0132 41.2419 35.5508C41.6696 35.8629 41.5482 36.3253 41.5482 36.7414C41.5193 39.1284 41.7621 41.4865 42.0973 43.8504C42.184 44.4573 42.2187 45.0931 41.9644 45.6942C41.7158 46.2837 41.8777 46.7229 42.4788 46.9657C43.0336 47.1853 43.259 47.5957 43.3284 48.1737C43.3804 48.6071 43.7214 48.873 44.1549 48.7401C44.6288 48.5898 44.9929 48.2661 44.9467 47.6939C44.9351 47.561 44.8311 47.4396 44.7733 47.3067C44.2763 46.1681 44.3687 45.8676 45.4611 45.2838C45.6634 45.174 45.9061 45.1393 46.1315 45.07C46.3685 46.434 45.9524 47.7286 45.5593 48.9886C45.2588 49.9538 44.3225 50.1503 43.4555 49.5781C43.1319 49.3643 42.8718 49.0811 42.6175 48.7921C41.4846 47.5379 41.161 47.561 40.2131 48.9597C38.641 51.2947 38.826 54.7452 40.6293 56.8432C41.0165 57.294 41.4673 57.6061 42.0222 57.82C43.8717 58.5309 44.0046 58.999 44.2589 61.0277C44.6982 64.5302 45.2126 68.0385 46.7153 71.304C47.5996 73.2229 48.9694 74.6042 50.9287 75.425C51.5876 75.7024 52.2407 76.0203 52.7666 76.5347C52.9863 76.8121 53.3042 77.0664 53.1365 77.4767C53.0036 77.7946 52.7435 77.7889 52.4834 77.6155L52.4603 77.5635ZM29.7114 65.7093C28.6017 65.9809 27.5382 65.5474 27.0874 64.7094C26.6193 63.8366 26.8273 62.2472 27.5035 61.5999C27.6885 61.4207 27.9081 61.3456 28.1566 61.4554C28.4688 61.5941 28.567 61.8658 28.463 62.1663C28.3532 62.4784 28.1509 62.7616 28.0353 63.0737C27.8619 63.5361 27.781 64.0389 28.1566 64.4262C28.515 64.7903 28.9832 64.8019 29.4918 64.6805C31.873 64.1314 33.4277 61.8484 33.0636 59.4152C32.9654 58.7447 32.7342 58.1668 32.3123 57.5946C30.6939 55.4387 26.0817 56.9415 25.3419 58.9759C24.3767 61.6404 24.1166 64.3626 23.9721 67.1369C23.9375 67.7611 24.1744 67.998 24.7929 67.9691C26.7984 67.8824 28.8098 67.8304 30.8153 67.7611C32.7342 67.6975 33.6243 66.6687 33.4162 64.7267C33.3815 64.4031 33.2544 64.0852 33.0925 63.4899C32.1678 64.8886 30.9887 65.3972 29.7172 65.7093H29.7114Z" fill="white"/>
<path d="M72.1229 80.7188C72.909 82.366 73.3193 84.1404 73.9146 85.8512C74.1401 86.4927 74.2556 87.1574 75.0706 87.3423C75.5445 87.4521 75.5388 87.8914 75.6023 88.2671C76.0705 90.9893 77.4807 93.2607 79.0066 95.4801C79.3649 96.0003 79.7753 96.48 80.3186 96.7979C81.0468 97.2198 81.2838 97.844 81.1624 98.6185C80.9717 99.8612 81.0237 101.104 80.989 102.352C80.9543 103.589 80.544 103.971 79.2782 104.231C76.6369 104.774 73.9898 104.959 71.2791 104.861C67.4009 104.716 63.5112 104.942 59.633 104.785C55.2693 104.606 50.8999 104.768 46.5477 104.364C45.4958 104.265 44.4555 104.08 43.4094 103.947C42.8083 103.872 42.4326 103.612 42.4384 102.942C42.4442 101.451 42.0454 99.9999 42.0107 98.5087C41.9933 97.7516 42.1205 97.2025 42.7274 96.769C43.6926 96.0812 44.3052 95.1045 44.8543 94.0872C45.6808 92.5672 46.3455 90.9777 47.0101 89.3883C47.2124 88.8971 47.3396 88.3942 47.3685 87.8567C47.3916 87.481 47.3974 86.9609 47.7499 86.8221C48.9694 86.3309 49.0157 85.1576 49.1891 84.2097C49.611 81.9325 50.3855 79.7709 51.0559 77.5746C51.2813 77.2625 50.9634 76.6094 51.6281 76.5921C52.183 76.5805 52.4662 76.962 52.5991 77.4706C52.6049 77.9214 52.5008 78.3491 52.4084 78.7884C52.2581 79.216 52.2812 79.6669 52.2465 80.1119C51.9807 81.6666 51.3102 83.1289 51.1715 84.7183C51.0444 86.1632 51.1311 86.25 52.524 86.4118C56.5177 86.8742 60.5462 86.8048 64.54 87.2325C66.6496 87.4579 68.736 86.9666 70.8398 86.9377C71.8628 86.9204 71.649 86.2268 71.4525 85.6026C70.7936 83.5508 70.1058 81.5106 69.6145 79.4126C69.5567 78.7594 69.3718 78.0428 70.2966 77.8058C71.0768 77.6093 71.7126 77.5399 71.6432 78.7132C71.6028 79.3952 71.6779 80.1177 72.1056 80.7246L72.1229 80.7188Z" fill="white"/>
<path d="M52.4602 77.5632C53.6277 77.3089 52.4025 76.9563 52.5007 76.6557C52.8995 76.3552 53.3214 76.4881 53.7433 76.5864C57.7891 77.5343 61.8985 77.8695 66.031 77.7308C68.4122 77.6498 70.8224 77.5285 72.9955 76.2569C74.9549 75.1183 76.3824 73.5405 77.0067 71.3904C77.9834 68.0093 78.4111 64.5241 78.2724 61.0043C78.1973 59.045 78.6712 57.5712 80.5438 56.6291C83.2372 55.2708 83.5377 50.5893 81.9772 48.8785C81.6246 48.4913 81.3125 47.9711 80.7114 48.0636C80.1277 48.1502 80.1335 48.7629 79.9716 49.1906C79.648 50.046 79.2492 50.8667 78.8157 51.6701C78.4458 52.3579 78.0412 53.115 77.1049 52.9243C76.1859 52.7393 76.0299 51.9244 76.001 51.121C75.9548 49.9709 75.608 48.8438 75.7004 47.6879C75.7524 47.0232 75.2265 46.5435 75.2265 45.9077C76.2033 45.8326 76.9315 46.058 77.3477 47.1215C77.6598 47.9191 78.5152 48.0404 79.2145 47.5029C79.5671 47.2313 79.8965 47.0059 80.3589 47.029C80.7692 47.0521 80.9715 46.8325 81.0004 46.4395C82.769 46.9538 84.3353 48.9305 84.422 50.9129C84.5665 54.034 83.6822 56.71 80.827 58.3803C80.1104 58.8022 79.8561 59.2935 79.885 60.0969C79.9948 62.981 79.6075 65.8361 79.1914 68.6855C78.9024 70.6737 78.5094 72.6388 77.2783 74.3728C78.6943 75.627 80.2028 76.7945 81.4108 78.2972C83.4741 80.8749 84.9538 83.7648 86.1155 86.8165C87.3812 90.1398 88.1268 93.6134 88.6123 97.1275C88.8493 98.8325 88.8839 100.561 88.9938 102.283C89.0111 102.52 88.9938 102.768 88.9244 102.988C88.855 103.225 88.6701 103.398 88.3927 103.387C88.1268 103.375 87.9419 103.219 87.9014 102.959C87.8609 102.722 87.8552 102.479 87.8609 102.242C88.0112 96.8443 86.861 91.6772 84.9942 86.6604C83.8383 83.5509 82.2546 80.6264 80.0352 78.1238C79.1856 77.1701 78.2782 76.2223 77.1396 75.5692C76.7003 75.3206 76.3767 75.3206 76.0357 75.7483C75.1109 76.9101 73.8683 77.6325 72.51 78.1469C71.8049 78.4128 71.6835 78.7942 71.8974 79.4531C72.0303 79.8577 72.0477 80.297 72.117 80.7247C71.5911 80.4357 71.5217 79.9386 71.4755 79.4127C71.4408 78.9561 71.5795 78.4764 71.3194 78.0429C70.3369 78.1585 69.9053 78.59 70.0248 79.3375C64.8346 79.6207 59.6386 79.8982 54.5005 78.7538C53.7029 78.5746 52.9978 78.6324 52.3215 79.0832C52.1192 79.0485 52.0557 78.933 52.1192 78.7364C52.2175 78.3434 52.0499 77.8753 52.4487 77.5689L52.4602 77.5632Z" fill="white"/>
<path d="M41.219 35.5214C41.034 34.9665 41.034 34.3886 41.0861 33.8164C41.3982 30.3081 42.479 27.0252 44.5018 24.1701C46.1491 21.8466 48.3858 20.078 51.0214 18.8816C53.6049 17.7026 56.3156 16.9281 59.0725 16.3097C60.055 16.09 61.0665 16.0322 62.0779 16.0842C63.2743 16.1478 64.4707 16.2056 65.6671 16.2808C67.8634 16.4195 69.8343 17.3442 71.8167 18.1707C74.1055 19.1244 75.9723 20.5635 76.7468 23.0604C76.874 23.4765 77.1803 23.4534 77.5444 23.4649C79.9719 23.5285 81.0758 24.4013 81.9659 26.6091C82.7808 28.6378 82.8444 30.678 82.5554 32.8165C82.0006 36.897 81.151 40.9312 80.5557 45.0059C80.4979 45.3816 80.4632 45.763 80.469 46.1445C80.4747 46.4971 80.8215 46.3468 81.0065 46.4393C81.0701 46.5144 81.151 46.6184 81.1163 46.6878C80.4632 48.0807 78.0588 48.4911 77.1052 47.3293C76.5966 46.7109 76.1342 46.1503 75.2325 46.3179C74.3367 46.4855 74.3367 47.2426 74.2616 47.8842C74.0882 49.3754 73.7356 50.8145 73.1692 52.1958C72.0884 54.8545 70.2447 55.9295 67.1005 55.7735C64.6326 55.6463 62.7946 54.08 62.049 51.5659C61.604 50.0631 61.5809 48.5431 61.5751 47.0057C61.5751 46.6126 61.6965 46 61.1069 45.9595C60.5521 45.9191 60.5116 46.5202 60.4481 46.919C60.188 48.5893 59.7429 50.2076 59.1014 51.7624C57.6565 55.2591 53.4777 56.6115 50.4781 54.4384C48.6054 53.0859 47.7096 51.0515 47.4957 48.7511C47.4322 48.0807 47.4726 47.4102 47.4726 46.734C47.4726 45.8497 47.1201 45.3585 46.1664 45.474C45.2532 45.6648 44.8429 46.1676 45.1087 47.1213C45.3283 47.9131 45.1434 48.5951 44.3285 48.8783C43.502 49.1615 43.0858 48.6124 42.8546 47.9131C42.7217 47.5027 42.3576 47.3467 42.0802 47.1039C41.8201 46.8785 41.5484 46.6069 41.6062 46.2601C42.1206 43.3413 41.0918 40.4977 41.2074 37.5905C41.2363 36.9028 41.6409 36.1976 41.219 35.5041V35.5214ZM49.7267 44.1043C53.4142 44.1563 57.0958 44.347 60.7891 44.3066C62.9911 44.2777 65.199 44.3586 67.401 44.4799C70.1695 44.636 72.9669 44.243 75.7123 44.9134C76.2787 45.0521 76.4521 44.7343 76.4636 44.1967C76.5099 42.2316 76.6428 40.2665 76.637 38.3014C76.637 36.3999 76.8855 36.5906 74.9089 36.7525C70.5625 37.1108 66.2278 37.5327 61.9912 38.7176C59.8701 39.3129 57.6738 39.7753 55.4544 39.4805C53.1425 39.1742 50.767 38.9545 48.7731 37.5096C48.5476 37.3478 48.2587 37.2669 47.9986 37.1513C47.6518 37.4981 47.6056 37.9431 47.4553 38.3419C46.808 40.0642 46.9351 41.9426 46.2473 43.7575C47.5246 44.0291 48.617 44.0811 49.7151 44.0985L49.7267 44.1043ZM64.0026 45.37C63.8812 45.3585 63.5518 45.318 63.3379 45.5145C63.2339 45.6128 63.1703 45.7688 63.1587 46.0289C63.0721 47.8611 63.1761 49.6701 63.6558 51.4445C63.8465 52.1554 64.2338 52.7565 64.7366 53.2824C66.511 55.1204 70.7417 55.0279 71.8399 51.7335C72.4352 49.9533 72.6953 48.1096 72.8802 46.2543C72.9322 45.7284 72.6664 45.6012 72.204 45.607C70.8111 45.6185 69.4239 45.607 68.031 45.607C66.0486 45.5145 64.6037 45.4394 64.0026 45.37ZM53.1252 45.2949C52.0212 45.3007 50.9173 45.2833 49.8134 45.2544C49.2932 45.2371 49.0274 45.4047 48.9927 45.9711C48.8597 48.1616 48.9811 50.2481 50.3625 52.1323C51.4144 53.5656 52.7437 54.1667 54.4487 53.9702C56.0439 53.7853 57.1132 52.768 57.6102 51.3578C58.2691 49.4736 58.9627 47.5547 58.8124 45.2949C56.8531 45.5261 54.992 45.2775 53.1252 45.2949Z" fill="white"/>
<path d="M51.6569 90.4977C51.6222 91.3126 50.9518 91.9773 50.1888 91.9599C49.3797 91.9426 48.6919 91.2837 48.6919 90.5266C48.6919 89.6423 49.3681 88.995 50.2582 89.0297C51.1425 89.0643 51.6916 89.6365 51.6569 90.4977Z" fill="#EF6000"/>
<path d="M72.5159 89.8907C73.3886 89.9022 73.9608 90.4917 73.9146 91.3471C73.8799 92.0696 73.2441 92.6476 72.4812 92.6534C71.6894 92.6534 70.9322 91.9714 70.9496 91.2547C70.9669 90.5264 71.7067 89.8849 72.5159 89.8907Z" fill="#EF6000"/>
<path d="M52.2002 79.0426C52.2002 79.3605 52.1829 79.6726 51.9112 79.898C51.9054 79.4934 51.7956 79.0715 52.1366 78.7305C52.1597 78.8345 52.1829 78.9385 52.2002 79.0426Z" fill="white"/>
<path d="M78.1395 50.4221C78.1106 50.74 78.1106 51.0752 78.0355 51.3988C77.9661 51.7052 77.7234 51.8901 77.4055 51.8901C77.0183 51.8901 76.7929 51.6589 76.7177 51.2833C76.6252 50.8267 77.2032 49.4511 77.5962 49.2372C77.7812 49.139 78.0008 49.1621 78.047 49.3991C78.1106 49.7227 78.1106 50.0637 78.1395 50.4163V50.4221Z" fill="white"/>
<path d="M60.0607 78.4302C59.5174 78.8175 58.9683 78.7943 58.2401 78.5111C58.9221 77.9967 59.4943 78.1412 60.0607 78.4302Z" fill="white"/>
<path d="M55.2173 77.9323C55.1075 78.1115 54.9399 78.1462 54.7665 78.0711C54.6336 78.0133 54.5873 77.8803 54.6625 77.7532C54.7434 77.6145 54.8879 77.6145 55.0208 77.6491C55.1537 77.6838 55.2578 77.7647 55.2173 77.9323Z" fill="white"/>
<path d="M61.2801 70.9397C58.5868 70.9917 56.1477 69.8358 54.0902 67.7897C53.7492 67.4487 53.4486 67.073 53.333 66.5933C53.2579 66.2928 53.333 66.0154 53.6104 65.8477C53.8937 65.6801 54.1769 65.7495 54.3907 65.9749C54.5525 66.1483 54.6624 66.3679 54.8011 66.5644C57.5233 70.4022 63.066 71.1188 66.6032 68.2406C67.1234 67.8186 67.632 67.3852 68.1464 66.9517C68.4527 66.6916 68.7995 66.4431 69.129 66.8476C69.4353 67.2291 69.1636 67.547 68.892 67.8475C67.239 69.6219 64.0717 70.957 61.2859 70.9397H61.2801Z" fill="white"/>
<path d="M61.1991 63.3863C59.315 63.3863 58.7717 62.6985 58.9739 60.8894C59.182 59.0399 59.2976 57.1731 59.4537 55.3178C59.4941 54.8439 59.5404 54.3642 59.6097 53.896C59.656 53.5839 59.8467 53.3643 60.1819 53.3643C60.5923 53.3643 60.7888 53.6359 60.8119 54.0058C60.835 54.3353 60.7888 54.6763 60.7541 55.0057C60.5692 57.0055 60.3669 59.0053 60.1993 61.0108C60.1126 62.0165 60.1472 62.0223 61.1645 62.0454C61.7251 62.0569 62.5054 61.9009 62.488 62.7158C62.4765 63.5077 61.6789 63.3343 61.1876 63.392L61.1991 63.3863Z" fill="white"/>
<path d="M67.9614 48.5489C67.9556 49.0749 67.4874 49.5719 66.9788 49.5893C66.3315 49.6124 65.7535 49.0691 65.7535 48.4449C65.7535 47.8438 66.2737 47.3699 66.8748 47.4219C67.4585 47.4681 67.9671 47.9941 67.9614 48.5489Z" fill="white"/>
<path d="M54.8184 49.4327C54.223 49.4327 53.6913 48.9472 53.674 48.3981C53.6566 47.826 54.1537 47.3116 54.7374 47.3C55.3443 47.2884 55.8818 47.7682 55.876 48.3172C55.8702 48.901 55.3616 49.4327 54.8184 49.4327Z" fill="white"/>
</svg>
