<svg width="111" height="113" viewBox="0 0 111 113" fill="none" xmlns="http://www.w3.org/2000/svg">
<rect x="0.5" y="0.929688" width="110" height="110.907" rx="54.9999" fill="#EF6000"/>
<rect x="0.5" y="0.929688" width="110" height="110.907" rx="54.9999" stroke="#EF6000"/>
<path d="M52.0047 69.3871C51.2173 68.6424 51.1013 68.6424 50.2956 69.4237C50.3627 69.0086 50.3139 68.6973 49.8317 68.502C49.1175 68.209 48.3728 68.1724 47.6831 68.3799C44.4418 69.3627 41.3837 70.6933 38.8811 73.08C37.1842 74.6914 35.4751 76.2785 33.9491 78.067C33.5645 78.5187 33.4913 78.8666 33.5706 79.3549C33.7659 80.5086 33.8636 81.6866 34.1932 82.7976C34.6571 84.3602 34.59 85.9838 34.944 87.5526C34.9867 87.7418 34.9745 87.9432 34.9623 88.1324C34.9501 88.3949 34.828 88.6086 34.5778 88.7001C34.3214 88.7917 34.1139 88.6696 33.9124 88.5109C33.6194 88.2728 33.534 87.9432 33.5279 87.6014C33.4485 84.3724 32.4414 81.2716 32.1484 78.0914C31.9225 75.6498 31.068 73.3669 30.8421 70.9436C30.7078 69.4725 30.5247 69.503 29.0415 69.5336C26.8379 69.5824 24.7381 70.3332 22.5407 70.3942C22.2355 70.4003 22.1195 70.5957 22.0951 70.8642C22.0768 71.0596 22.0829 71.2549 22.0829 71.4502C22.1867 78.2684 22.443 85.0621 23.4929 91.8254C24.1644 96.1653 26.4228 98.1003 30.4393 98.9731C30.6285 99.0159 30.8299 98.9976 31.0191 99.0342C31.4525 99.1074 31.7638 99.3516 31.6906 99.8155C31.6173 100.279 31.2328 100.42 30.8055 100.389C29.6152 100.316 28.5287 99.8216 27.4788 99.3577C24.9396 98.2468 23.1999 96.3789 22.6078 93.565C22.15 91.4164 21.9181 89.2373 21.6434 87.0642C20.9903 81.8331 20.8499 76.5593 21.0574 71.3098C21.1551 68.8927 20.9659 66.5731 20.5508 64.2353C20.3372 63.0084 20.502 61.8242 20.8621 60.64C21.8509 57.3622 24.9213 56.6236 27.5277 57.2279C30.0425 57.8078 31.3366 59.2544 31.599 61.4275C31.654 61.8792 31.7272 62.3858 31.4342 62.6971C30.7567 63.4174 31.1046 64.0522 31.3243 64.8152C31.654 65.9322 31.7394 67.1164 31.4464 68.27C31.361 68.6119 31.2938 68.8927 31.3976 69.2406C32.0812 71.5784 32.1911 74.0444 32.9846 76.3578C33.0274 76.486 33.0884 76.602 33.2166 76.9194C35.3896 74.8379 37.3917 72.7076 39.7234 70.9985C42.0369 69.3077 44.7348 68.2761 47.6892 67.3544C45.8763 65.981 44.8691 64.2353 43.5323 62.6727C42.7388 63.393 41.9087 63.8691 40.9015 63.9118C41.2433 62.8253 41.8782 62.1477 43.1173 62.3309C43.6666 62.4102 43.7582 62.0989 43.7948 61.6594C43.8742 60.7682 43.6483 59.9442 43.3248 59.1263C43.0074 58.3266 42.7266 57.5087 42.4275 56.703C42.2871 56.3245 42.336 55.94 42.3909 55.5615C43.2149 55.647 43.4774 56.3062 43.7399 56.9288C44.1611 57.9177 44.4724 58.9553 44.5761 60.0174C44.9302 63.5822 47.4816 65.4134 50.1613 67.1164C51.1257 67.7329 52.3099 68.0137 53.0057 69.0269C52.8592 69.7106 52.4991 69.7655 51.9864 69.381L52.0047 69.3871ZM22.3026 68.8682C22.3637 69.265 22.5712 69.4664 22.9924 69.4115C23.2793 69.3749 23.5906 69.4115 23.8653 69.3321C25.6537 68.8133 27.4849 68.5752 29.3344 68.5142C30.1402 68.4898 30.4759 68.0137 30.5919 67.3544C30.6895 66.7868 30.6834 66.1886 30.5308 65.6148C30.3172 64.8213 30.1646 64.7602 29.3222 65.0593C28.0465 65.5171 26.8074 66.0665 25.3668 65.8223C23.7737 65.5477 22.9252 63.7043 23.8714 62.398C24.1216 62.0501 24.439 61.8303 24.8541 62.0867C25.2142 62.3064 25.1715 62.6422 24.9884 62.9779C24.8968 63.1488 24.787 63.3197 24.7442 63.5028C24.555 64.333 24.7931 64.6076 25.672 64.7419C26.9478 64.9434 28.1136 64.4917 29.1635 63.9423C30.6529 63.1549 30.9825 61.4336 29.9815 60.0785C28.8034 58.4853 27.076 57.997 25.1837 58.2107C23.4441 58.406 22.2172 59.3094 21.7289 61.0978C21.5457 61.7693 21.4542 62.4285 21.3748 63.1244C21.6861 65.041 21.9913 66.9577 22.3026 68.8804V68.8682Z" fill="white"/>
<path d="M40.9138 63.912C40.0776 64.3942 39.3085 64.0524 38.5638 63.6861C38.1731 63.4969 37.8069 63.2283 37.4956 62.9292C33.9553 59.5354 30.7995 55.9219 29.2369 51.0875C28.248 48.0294 27.5949 44.9957 27.6987 41.785C27.7719 39.5754 28.2297 37.4451 28.6753 35.2965C29.2796 32.3726 30.8056 29.8761 32.1668 27.3002C32.4842 26.702 32.881 26.1221 33.3449 25.6338C34.9258 23.9735 36.4274 22.2156 38.1792 20.7506C41.9332 17.6193 45.9313 14.8298 50.607 13.2122C53.3294 12.2722 56.1189 11.6252 59.0122 11.4481C60.8495 11.3383 62.5952 11.7289 64.2982 12.3576C65.049 12.6323 65.7693 12.6201 66.575 12.5041C68.5466 12.2233 70.5182 12.2417 72.5325 12.4004C75.0413 12.5957 77.2753 13.377 79.4911 14.4025C79.8451 14.5673 80.2052 14.7321 80.5104 14.9701C82.4271 16.4778 84.3804 17.9306 86.1505 19.6153C87.0173 20.4393 87.4995 21.5197 88.1832 22.4659C89.7824 24.6816 91.2596 26.9584 92.4682 29.4244C94.5313 33.6484 95.6606 38.0799 95.9474 42.7616C96.1672 46.3996 95.6667 49.9583 95.0257 53.5108C94.8548 54.4752 94.5618 55.4091 94.1162 56.282C92.7734 58.9311 91.4061 61.5803 89.5138 63.8937C88.3297 65.3342 86.9441 66.5367 85.1129 67.1593C83.9592 67.55 82.8116 67.5561 81.6519 67.3119C80.4006 67.0555 79.5765 66.3048 79.2225 65.0595C79.137 64.266 78.4717 63.6251 78.5877 62.7705C78.6243 62.3738 78.7525 61.9831 79.0272 61.7023C82.2928 58.3757 83.0985 54.0235 84.0263 49.7324C84.4902 47.5838 84.6428 45.3864 85.0579 43.2316C85.241 42.2611 84.826 41.8766 83.9409 41.7728C82.1402 41.5592 80.4433 40.8755 78.667 40.5642C76.2865 40.143 74.3698 38.7269 72.4043 37.4878C70.1031 36.035 67.7348 34.6067 66.282 32.1529C65.7815 31.3105 65.1772 31.5852 64.5668 32.0491C61.8322 34.1306 58.8962 35.8702 55.6428 36.9873C51.724 38.3301 47.8297 39.8012 43.6179 39.9782C43.1784 39.9965 42.7511 40.1369 42.3177 40.1674C41.0969 40.2529 40.6697 40.9121 40.6636 42.1024C40.6391 46.2775 41.0298 50.3794 42.4093 54.347C42.5558 54.7621 42.6901 55.1772 42.7206 55.6228C42.745 56.813 43.3066 57.8507 43.6606 58.9494C43.8865 59.6392 44.1611 60.3106 44.1734 61.0492C44.1917 61.9038 44.0391 62.563 42.977 62.6546C42.1102 62.7278 41.5181 63.3565 40.9077 63.9059L40.9138 63.912Z" fill="white"/>
<path d="M71.9099 69.1375C72.7462 72.3909 74.1013 75.4795 74.8704 78.7574C75.0657 79.5814 75.2915 80.4543 76.1766 80.9182C76.4818 81.0769 76.549 81.4675 76.6222 81.8094C77.2204 84.5806 78.5999 86.8818 80.834 88.6214C81.6641 89.2684 81.9632 90.062 81.89 91.0325C81.7007 93.5107 81.9571 96.0012 81.6153 98.4794C81.4505 99.6819 81.1514 100.213 80.0344 100.408C78.4107 100.689 76.8175 101.104 75.139 101.116C67.8325 101.153 60.526 101.214 53.2195 101.324C49.5022 101.379 45.8215 101.257 42.1407 100.909C40.5171 100.756 40.3218 100.585 40.4011 98.9128C40.4683 97.5821 40.0288 96.3125 40.0471 94.9879C40.0471 94.6949 40.0166 94.4019 39.986 94.115C39.7968 92.3632 40.157 90.9348 41.4449 89.5065C43.4409 87.2908 44.7044 84.5684 45.3026 81.6018C45.4064 81.0708 45.6017 80.6191 46.1877 80.6252C46.8408 80.6252 46.9324 80.2528 47.085 79.7401C48.0494 76.4745 49.0566 73.221 50.0576 69.9615C50.1126 69.7784 50.2224 69.6075 50.3079 69.4366C50.961 68.2829 51.3578 68.2768 52.249 69.406C52.2856 69.5708 52.2978 69.7357 52.2795 69.9005C51.2479 72.8426 50.3323 75.8152 49.7097 78.8794C49.4106 80.3688 49.4106 80.4238 50.9854 80.4482C51.9621 80.4604 52.9326 80.436 53.9093 80.4482C56.7781 80.5092 59.647 80.3566 62.522 80.6862C65.3848 81.0158 68.2475 80.3932 71.1225 80.3749C72.6851 80.3627 72.85 80.027 72.4166 78.4339C71.6536 75.6138 70.7807 72.8243 69.9444 70.0287C69.8224 69.4427 69.8834 68.9177 70.4145 68.5393C70.5426 68.4538 70.683 68.3928 70.8295 68.3501C71.4827 68.2158 71.7879 68.5637 71.916 69.1436L71.9099 69.1375Z" fill="white"/>
<path d="M71.9098 69.1373C71.5863 68.7893 71.2445 68.4841 70.7256 68.4963C70.7256 68.008 71.1163 67.8615 71.452 67.6906C73.8326 66.4881 76.1277 65.1758 77.9039 63.1187C78.1542 62.8318 78.4655 62.5694 78.905 62.6182C78.8378 63.4544 79.375 64.2052 79.2346 65.0537C78.9233 64.9072 79.0332 64.5165 78.7524 64.2724C77.7452 64.9316 77.0921 65.9754 76.0117 66.7933C77.0127 67.3305 77.8978 67.7822 78.7707 68.2705C83.7515 71.0417 86.8646 75.2901 88.7019 80.6128C90.1424 84.7818 90.8871 89.0912 91.5769 93.4251C91.8027 94.8229 91.7356 96.2451 92.1201 97.6185C92.2178 97.9603 92.1384 98.3388 91.7173 98.4364C91.2228 98.5524 91.0153 98.2167 90.9359 97.7894C90.881 97.5025 90.8627 97.2095 90.8444 96.9166C90.5209 92.4362 89.7579 88.023 88.5859 83.6892C87.8046 80.8081 86.7425 78.043 85.1005 75.5281C82.8726 72.1099 79.7534 69.7721 76.1277 68.0324C75.2426 67.6113 74.388 67.4343 73.564 68.2278C73.1123 68.6612 72.392 68.6856 71.922 69.1373H71.9098Z" fill="white"/>
<path d="M21.5214 53.1687C21.5336 53.4861 21.497 53.7669 21.2955 53.9988C21.0331 54.3101 20.7096 54.3284 20.4227 54.072C20.0015 53.6936 20.0259 52.4728 20.4471 52.0699C20.7157 51.8136 20.9781 51.9173 21.1979 52.131C21.497 52.4179 21.5519 52.7963 21.5214 53.1687Z" fill="white"/>
<path d="M24.5429 52.3876C24.5123 52.8576 24.5123 53.5229 23.8226 53.5107C23.1939 53.4985 23.2793 52.8393 23.2671 52.3754C23.2488 51.8565 23.3831 51.3377 23.9874 51.3438C24.5673 51.3499 24.5306 51.8932 24.5429 52.3876Z" fill="white"/>
<path d="M18.1154 53.4378C18.5609 53.4073 18.9943 53.92 19.0737 54.5426C19.1225 54.9333 18.9882 55.2202 18.5976 55.3117C18.213 55.3972 17.5172 54.6281 17.4989 54.1337C17.4866 53.8163 17.7979 53.4622 18.1154 53.4378Z" fill="white"/>
<path d="M15.338 55.3967C16.04 55.3479 16.9067 56.1414 16.9006 56.6541C16.9006 56.8616 16.803 57.0326 16.6015 57.0936C16.1132 57.2462 15.7958 56.9044 15.4479 56.6602C15.1549 56.4527 14.9412 56.1902 15.0145 55.8179C15.0633 55.5798 15.2403 55.4028 15.3319 55.3967H15.338Z" fill="white"/>
<path d="M70.1398 69.7469C67.2526 71.0471 64.1945 71.6636 61.0692 71.4377C58.3774 71.2485 55.6306 71.0654 53.1096 69.8934C52.7556 69.7286 52.4077 69.5516 51.9987 69.6676C51.9743 69.5699 51.9804 69.4783 52.0048 69.3868C52.4443 69.4112 52.8716 69.4234 52.8899 68.8069C52.9875 68.8008 53.0974 68.752 53.1707 68.7886C55.2521 69.8568 57.5594 69.9728 59.7996 70.2536C62.9126 70.6442 65.983 70.278 68.9129 69.0511C69.4927 68.8069 70.0665 68.5566 70.7074 68.5078C70.4816 68.9046 70.0299 69.1976 70.1398 69.753V69.7469Z" fill="white"/>
<path d="M72.8804 86.7048C71.9831 86.7353 71.3483 86.2042 71.2995 85.3741C71.2445 84.4951 72.1052 83.61 73.0391 83.5856C73.8326 83.5612 74.5773 84.2143 74.6261 84.9712C74.6811 85.8929 73.8998 86.6681 72.8804 86.7048Z" fill="#EF6000"/>
<path d="M48.7453 86.4601C47.7503 86.4479 47.2864 86.0634 47.2803 85.2515C47.2681 84.2566 48.0189 83.4142 48.9284 83.3959C49.789 83.3776 50.4849 83.9697 50.5154 84.7571C50.552 85.6727 49.7219 86.4723 48.7453 86.4601Z" fill="#EF6000"/>
<path d="M61.5636 61.0184C59.5492 60.9513 57.8157 59.9258 56.2531 58.5524C55.893 58.2411 55.661 57.7772 55.5511 57.295C55.4901 57.0447 55.6305 56.825 55.8502 56.6846C56.1005 56.5259 56.3202 56.6175 56.5034 56.7884C56.6438 56.9166 56.7597 57.0814 56.8513 57.2462C57.6936 58.7539 59.1159 59.468 60.6663 59.938C62.2167 60.408 64.4569 59.4986 65.4213 58.1068C65.5312 57.9481 65.6166 57.7711 65.7143 57.6063C65.9523 57.1912 66.1782 56.5931 66.7703 56.9654C67.2708 57.2767 66.8801 57.7406 66.6665 58.1129C65.7509 59.6756 63.4863 60.994 61.5575 61.0123L61.5636 61.0184Z" fill="white"/>
<path d="M49.2274 54.524C48.1653 54.5117 47.5549 53.9075 47.5854 52.9186C47.616 51.9053 48.4766 51.1484 49.5387 51.1912C50.4116 51.2278 51.022 51.8321 51.022 52.6561C51.022 53.7487 50.2651 54.5362 49.2213 54.524H49.2274Z" fill="#EF6000"/>
<path d="M75.4684 52.3566C75.4745 53.3882 74.7847 54.0535 73.6982 54.0657C72.7338 54.0718 72.0196 53.4065 71.9769 52.4421C71.9342 51.557 72.6972 50.8611 73.6982 50.8672C74.8397 50.8672 75.4562 51.3922 75.4623 52.3566H75.4684Z" fill="#EF6000"/>
<path d="M59.8118 51.8017C59.8545 50.6908 60.6358 49.8423 61.582 49.8667C62.5403 49.8911 63.407 50.764 63.462 51.759C63.4803 52.1191 63.4376 52.4853 63.0164 52.5586C62.6746 52.6196 62.5037 52.3694 62.4487 52.0459C62.4243 51.9055 62.3755 51.7651 62.3511 51.6186C62.2839 51.1913 62.0825 50.8739 61.6064 50.8861C61.0692 50.8983 61.0509 51.3256 61.0204 51.7223C61.0143 51.82 61.0021 51.9177 60.9777 52.0092C60.8861 52.3511 60.7518 52.6685 60.3306 52.6807C59.9766 52.6929 59.7874 52.3572 59.8118 51.8017Z" fill="white"/>
<path d="M56.3384 46.6135C56.3628 47.2239 55.7219 47.9137 55.0627 47.9808C54.4157 48.048 53.7747 47.4315 53.7564 46.7234C53.7381 46.0947 54.2753 45.5026 54.904 45.4599C55.5876 45.4111 56.314 45.997 56.3384 46.6135Z" fill="white"/>
<path d="M69.5537 46.4842C69.5842 47.1618 68.9677 47.8027 68.2901 47.8027C67.6858 47.8027 67.0144 47.2106 66.9839 46.6612C66.9533 46.0386 67.6126 45.3733 68.284 45.355C68.9555 45.3367 69.5231 45.8433 69.5537 46.4842Z" fill="white"/>
<path d="M71.0491 42.182C70.4937 42.1148 69.8833 42.2674 69.2729 42.4566C68.9677 42.5482 68.6747 42.4566 68.5526 42.1331C68.3878 41.6998 68.7052 41.4373 69.0226 41.3884C69.8833 41.2542 70.7561 41.1687 71.629 41.1504C71.9769 41.1504 72.4836 41.2481 72.4592 41.773C72.4347 42.3651 71.9342 42.2003 71.568 42.2186C71.4215 42.2186 71.275 42.2003 71.043 42.182H71.0491Z" fill="white"/>
<path d="M53.5064 40.9309C53.9214 40.9736 54.5563 41.0041 55.1728 41.1262C55.4841 41.1872 55.8503 41.3765 55.716 41.8282C55.6184 42.1639 55.3009 42.2493 55.0141 42.1883C54.1595 41.9991 53.3049 41.877 52.426 41.938C52.1513 41.9563 51.9621 41.7793 51.9315 41.5107C51.8949 41.1628 52.1269 40.9736 52.4382 40.937C52.7251 40.9003 53.0181 40.9309 53.5125 40.9309H53.5064Z" fill="white"/>
</svg>
