<svg width="121" height="120" viewBox="0 0 121 120" fill="none" xmlns="http://www.w3.org/2000/svg">
<rect x="1" y="0.5" width="119" height="119" rx="59.5" fill="#EF6000"/>
<rect x="1" y="0.5" width="119" height="119" rx="59.5" stroke="#EF6000"/>
<path d="M38.344 42.2664C38.2637 41.5197 37.6836 40.9951 37.5046 40.2792C37.0665 38.4833 37.2701 36.8787 38.7451 35.6506C38.7081 35.5395 38.7019 35.4778 38.671 35.4469C36.9924 33.614 36.8134 31.5898 37.9552 29.4298C39.1894 27.0908 40.9113 25.4492 43.7687 25.4553C45.0215 25.4553 45.0153 25.4245 45.1326 24.11C45.3671 21.4377 46.373 19.1296 48.7614 17.7719C51.3472 16.2969 54.0565 16.1612 56.7225 17.8151C57.4076 17.0005 58.1111 16.1797 58.7962 15.3527C59.7836 14.1616 61.0673 13.4148 62.4929 12.8656C64.5973 12.051 66.5043 12.6064 67.8188 14.4455C68.1151 14.859 68.3619 15.3157 68.6149 15.723C68.9605 15.76 69.158 15.5749 69.3555 15.4144C70.9416 14.1431 72.6326 14.1369 74.4717 14.8466C75.8973 15.3959 76.8291 16.3154 77.1809 17.7904C77.3599 18.5433 77.5636 18.9938 78.5633 19.037C80.4333 19.1173 81.9206 20.6355 82.1675 22.5116C82.26 23.2089 82.476 23.4188 83.1302 23.2768C83.3832 23.2213 83.6424 23.2028 83.9016 23.1966C86.8022 23.0917 88.5919 24.8259 88.5673 27.7326C88.5673 28.2448 88.487 28.7571 88.4377 29.3804C89.5547 29.5038 90.5545 29.9297 91.474 30.6332C92.986 31.7934 93.3995 32.8241 92.8626 34.6632C92.733 35.1075 92.554 35.5457 92.3318 35.953C92.0973 36.3912 92.0541 36.7923 92.1776 37.286C92.7515 39.5263 92.7021 41.6925 91.184 43.618C91.005 44.0314 90.8507 44.4573 90.5421 44.7967C87.7218 47.2159 85.284 47.3517 82.4575 45.1793C81.7601 44.6424 80.9579 44.5066 80.1617 44.303C78.6436 43.9142 77.3229 43.2847 76.8291 41.6184C76.6502 41.0136 76.1935 40.7297 75.6504 40.4767C73.1139 39.2609 72.6202 38.4833 72.8177 35.7802C72.8794 34.8915 72.6326 34.4287 71.7747 34.188C69.9912 33.6881 68.7939 32.5649 68.3989 30.7073C68.2632 30.0531 67.9299 29.9358 67.4239 30.2999C66.4303 31.0035 65.3256 31.3985 64.1221 31.5651C63.5111 31.6515 63.1656 32.1205 62.8138 32.5834C61.7646 33.9658 60.4563 34.9039 58.6357 34.91C57.9507 34.91 57.4446 35.1384 57.1607 35.8172C56.272 37.9649 54.9205 39.5325 52.3778 39.6435C51.7484 39.6682 51.4151 40.2051 51.1127 40.6989C50.5079 41.6801 49.6994 42.4824 48.8848 43.2785C47.8357 44.3153 46.5643 44.8522 45.1079 44.8399C43.0836 44.8276 41.0594 44.7103 39.2635 43.5871C38.8562 43.223 38.4057 42.8835 38.344 42.2726V42.2664Z" fill="white"/>
<path d="M74.0148 73.6907C74.6937 76.2889 75.3232 78.8995 76.1687 81.4544C76.4094 82.1888 76.4958 82.9664 77.5326 83.0714C78.0324 83.1207 78.2299 83.6144 78.3348 84.102C78.4891 84.8055 78.6558 85.5152 78.8903 86.1879C80.0752 89.5637 81.9452 92.5384 84.7161 94.8033C86.1911 96.0067 86.8638 97.278 86.6725 99.1912C86.5367 100.567 86.7712 101.975 86.8576 103.369C86.9193 104.369 86.6231 105.307 86.3948 106.264C86.2466 106.868 85.8887 107.14 85.3086 107.165C84.173 107.208 83.0313 107.319 81.8958 107.263C76.5698 107.004 71.2377 106.677 65.9117 106.98C61.4683 107.233 57.0125 107.029 52.5752 107.436C50.1436 107.658 47.7183 107.226 45.2867 107.189C44.145 107.171 43.0094 107.047 41.8801 107.276C41.7258 107.307 41.5715 107.313 41.4172 107.325C39.2942 107.504 37.7946 106.844 38.0167 104.017C38.1402 102.419 38.2019 100.814 38.2698 99.2097C38.2945 98.5617 38.529 98.0495 38.9486 97.5373C41.9726 93.8406 44.1265 89.6933 45.262 85.0524C45.5274 83.9786 46.0088 83.3552 47.0888 83.3614C47.8602 83.3614 48.175 83.0467 48.3478 82.3246C49.0204 79.566 50.014 76.8814 50.1128 74.0055C50.23 73.197 50.5139 72.5737 51.5137 72.7342C51.6803 72.7465 51.847 72.7835 52.0074 72.8329C52.9146 73.123 53.5688 73.5797 53.1985 74.6905C52.6986 76.9061 52.2913 79.1401 51.847 81.3742C51.6371 82.4172 51.921 83.0096 53.1059 82.8307C56.241 82.3616 59.4008 82.5838 62.5421 82.6147C65.597 82.6455 68.6271 82.3493 71.6697 82.2752C72.7867 82.2506 73.1632 81.8 72.8423 80.72C72.4288 79.3376 71.8672 77.9922 71.7746 76.5296C71.7499 76.0668 71.8055 75.5915 71.6573 75.1349C71.6141 74.9929 71.5833 74.8448 71.5586 74.6905C71.2685 73.6043 71.5154 72.7589 72.6386 72.3083C72.7805 72.2466 72.9287 72.2096 73.0829 72.1973C74.2555 72.1602 73.7063 73.1909 74.0148 73.6969V73.6907Z" fill="white"/>
<path d="M46.3236 71.8086C46.7741 72.3579 46.8482 72.8022 46.0459 73.1108C41.3926 74.9005 38.4673 78.5355 35.937 82.5901C35.6161 83.1085 35.3631 83.6331 34.857 84.0651C34.3078 84.5341 34.1967 85.3303 34.2646 86.0647C34.4621 88.1383 34.0301 90.1995 34.1535 92.2731C34.1658 92.4768 34.1658 92.6866 34.135 92.8903C34.1041 93.1063 33.9498 93.2667 33.7338 93.3038C33.4438 93.3531 33.2216 93.1927 33.1229 92.9396C32.913 92.3904 33.0056 91.8103 33.0303 91.2487C33.2278 86.5892 33.0056 81.9421 32.7526 77.2888C32.7032 76.4002 32.4687 75.5547 32.3453 74.6845C32.2527 74.0303 31.8639 73.8205 31.2899 73.7834C29.4323 73.6785 27.5685 73.5119 25.7109 73.4811C23.8472 73.4502 23.6188 73.7279 23.3473 75.5485C22.9029 78.4799 22.9585 81.4361 22.8289 84.3798C22.6622 88.2061 22.6005 92.0386 22.508 95.8711C22.4709 97.4448 22.7795 98.963 23.409 100.407C24.5445 103.011 26.6922 104.289 29.3706 104.801C30.3334 104.986 31.3146 105.116 32.2897 105.202C33.0118 105.264 33.7338 105.202 34.425 104.906C34.8879 104.709 35.4186 104.678 35.6161 105.233C35.8445 105.875 35.3446 106.171 34.82 106.326C34.3263 106.474 33.8326 106.646 33.3018 106.597C30.932 106.393 28.5375 106.326 26.3651 105.19C24.6803 104.314 23.2424 103.172 22.4277 101.388C21.644 99.6727 21.1873 97.8953 21.212 95.9883C21.2922 89.8786 21.5205 83.775 21.8229 77.6715C21.8846 76.3755 22.1747 75.1103 22.3413 73.8328C22.4524 72.9997 22.9091 72.6911 23.6003 72.4813C24.7605 72.1233 25.9578 72.0431 27.1365 72.2159C28.5807 72.4257 30.0248 72.4443 31.4751 72.4504C32.9069 72.4504 33.3882 72.796 33.6845 74.271C33.9251 75.4806 34.0671 76.7211 34.135 77.9554C34.209 79.2946 34.1535 80.6461 34.1535 82.1951C35.0175 81.8187 35.2273 81.1522 35.5853 80.6523C37.4182 78.1282 39.3437 75.6904 41.9357 73.8945C43.2811 72.9565 44.6079 71.9197 46.3668 71.8394L46.3359 71.8086H46.3236Z" fill="white"/>
<path d="M51.6557 73.0488C50.8472 72.8946 50.4276 73.3574 50.1128 73.9992C50.0573 73.524 49.6932 73.3389 49.329 73.1723C48.3293 72.7094 47.3295 72.2589 46.3235 71.8084L46.3544 71.8392C46.2989 71.4751 45.9718 71.3702 45.7187 71.2283C42.8243 69.6237 41.0408 67.1489 39.8497 64.1064C39.0351 62.0266 38.2945 59.9592 38.2513 57.6943C38.2328 56.8303 37.9304 56.2625 37.0725 55.7441C35.3569 54.7134 33.6906 53.5038 33.3573 51.2513C33.2092 50.2638 33.166 49.3011 33.5795 48.363C33.7214 48.0359 33.8757 47.6965 33.9621 47.3509C34.5484 44.8947 36.1221 43.3024 38.3438 42.2656C38.6277 42.568 38.9116 42.8766 39.1955 43.179C39.1461 43.4505 38.9919 43.6727 38.7573 43.79C36.5418 44.8947 35.8074 47.0053 35.1409 49.1468C34.6225 50.8254 35.4741 52.9361 37.4922 53.8988C39.3066 54.7628 39.7509 56.1267 39.8867 57.8547C40.1706 61.6255 41.4851 65.0321 43.9537 67.8772C45.6385 69.8212 48.033 70.8271 50.298 71.9688C50.8102 72.228 51.5569 72.2465 51.6557 73.0427V73.0488Z" fill="white"/>
<path d="M96.4973 101.839C96.4973 102.524 96.522 102.889 96.4911 103.247C96.4603 103.58 96.269 103.827 95.9048 103.851C95.5469 103.876 95.3 103.679 95.2322 103.339C95.1704 103.037 95.1704 102.722 95.1643 102.413C95.1026 99.5683 94.9359 96.6924 94.2879 93.9461C93.0289 88.614 91.628 83.2819 88.1103 78.8508C85.9009 76.0674 83.3891 73.6359 80.0627 72.1979C79.8714 72.1177 79.6739 72.0437 79.5135 71.9264C79.2481 71.7289 79.0876 71.4574 79.2604 71.1241C79.39 70.8711 79.6492 70.7847 79.9146 70.8032C80.4515 70.8402 80.8835 71.1426 81.334 71.3895C85.7405 73.7964 88.9558 77.3634 91.3503 81.7143C92.7574 84.2693 93.5659 87.0526 94.5039 89.7928C95.8802 93.8165 95.9912 98.0131 96.5035 101.839H96.4973Z" fill="white"/>
<path d="M33.1228 69.7841C32.697 69.5002 32.3391 69.8396 31.9626 69.926C30.6728 70.2284 29.494 69.9384 28.4017 69.2533C27.2661 68.5436 27.0501 66.8712 27.9265 65.8529C28.198 65.5381 28.5128 65.4332 28.8892 65.6245C29.2965 65.8343 29.2965 66.1861 29.1299 66.5564C29.0435 66.7416 28.9262 66.9144 28.8213 67.0995C28.5374 67.6056 28.6856 67.9635 29.1484 68.2783C30.1729 68.9633 32.3082 68.9386 33.271 68.2104C34.0054 67.6549 34.7089 65.4209 34.4435 64.4828C34.1226 63.3226 31.8947 61.8044 30.3827 61.7303C27.8771 61.6069 25.8467 62.8165 25.3159 65.3221C24.9333 67.1365 24.1804 68.8769 24.2915 70.79C24.3162 71.222 24.2359 71.6911 23.662 71.6355C23.1251 71.5862 23.1066 71.1171 23.1066 70.6851C23.1127 68.5868 23.7299 66.5996 24.2483 64.6001C24.6186 63.1745 25.4455 62.1191 26.686 61.323C28.556 60.1319 31.4504 59.9221 33.5302 61.5699C33.5734 61.6007 33.6104 61.6316 33.6536 61.6686C35.9802 63.5633 36.295 65.0568 34.9064 67.7599C34.5484 68.4511 34.246 69.1052 34.3263 69.9507C34.4065 70.79 33.7832 71.3702 33.1228 71.8145C32.839 72.0058 32.5119 71.9688 32.2773 71.7096C32.012 71.4257 32.1354 71.148 32.3637 70.8888C32.6538 70.5555 33.1722 70.3704 33.129 69.7902L33.1228 69.7841Z" fill="white"/>
<path d="M74.0149 73.691C73.6076 73.2528 73.7989 72.253 72.7806 72.3888C73.0213 71.4199 73.947 71.2841 74.6506 70.9447C77.1685 69.7165 79.4705 68.2416 81.6675 66.4518C84.1361 64.44 85.0248 61.8047 85.7037 58.9905C86.0678 57.497 86.2406 55.9357 86.0493 54.3681C85.9258 53.3437 86.3332 52.5722 87.2342 52.0353C89.314 50.801 90.1286 48.8817 90.1348 46.5489C90.1348 45.8207 90.2088 45.111 90.4125 44.4074C90.5976 44.068 90.7828 43.7347 91.1777 43.5928C91.5912 44.1544 91.7825 44.8024 91.7764 45.4874C91.7455 48.4929 91.1654 51.2762 88.4623 53.1153C87.8884 53.5041 87.6785 53.9546 87.697 54.652C87.7958 57.9723 86.8824 61.095 85.6913 64.1499C85.2038 65.4027 84.0929 66.1618 83.2104 67.0875C80.9578 69.4573 78.1745 71.0187 75.2369 72.3579C74.6629 72.6233 73.8792 72.7406 74.0149 73.6848V73.691Z" fill="white"/>
<path d="M71.8487 74.6721C71.645 74.2463 71.4599 73.8883 70.8304 74.0426C68.1149 74.7091 65.3131 74.8758 62.5483 75.1226C59.839 75.3633 57.0742 75.5238 54.4143 74.598C53.9268 74.4252 53.4269 74.3018 52.9023 74.3142C53.0689 73.9192 53.1306 73.5551 52.5752 73.4255C52.3407 73.3699 52.1 73.3267 51.9581 73.0984C52.7357 73.0614 53.5256 73.0182 54.2539 73.3144C56.8952 74.3882 59.6662 74.1167 62.3755 73.95C64.8379 73.8019 67.3188 73.6044 69.7565 73.1169C70.7687 72.9132 71.7376 72.5553 72.7559 72.3887C72.1058 72.9976 71.8014 73.7546 71.8425 74.6598L71.8487 74.6721Z" fill="white"/>
<path d="M76.6502 87.2807C76.6255 88.3237 75.8356 89.0026 74.6568 88.9902C73.6879 88.9841 72.9597 88.2743 72.9659 87.3548C72.972 86.3982 73.9163 85.5774 74.9839 85.6021C75.959 85.6206 76.6749 86.3427 76.6502 87.2807Z" fill="#EF6000"/>
<path d="M49.7301 87.8302C49.6746 88.793 49.0759 89.3237 48.107 89.2744C47.1504 89.225 46.6197 88.6696 46.7061 87.8117C46.7987 86.8922 47.6318 86.1146 48.4588 86.1763C49.2426 86.238 49.7795 86.9354 49.7301 87.8302Z" fill="#EF6000"/>
<path d="M72.1696 76.2036C71.8672 75.8272 71.8055 75.3952 71.8795 74.9385C72.3115 75.2841 72.2251 75.7469 72.1696 76.2036Z" fill="#1C1A1A"/>
<path d="M62.8322 65.54C58.8208 65.614 56.2781 64.3365 54.2539 61.942C54.0872 61.7445 53.9268 61.5347 53.7972 61.3187C53.5133 60.8558 53.2664 60.3436 53.8774 59.9795C54.4205 59.6524 54.7476 60.0782 54.9883 60.4855C55.5252 61.3866 56.2102 62.1148 57.0495 62.769C60.0118 65.0833 63.5543 64.7932 66.5536 62.7443C67.4114 62.158 68.2014 61.4977 68.4791 60.4115C68.5902 59.9918 68.8987 59.6277 69.3925 59.8375C69.8738 60.035 69.8245 60.4979 69.6887 60.9052C69.5035 61.4483 69.2011 61.942 68.8062 62.3555C66.9424 64.2933 64.6836 65.4227 62.8199 65.5461L62.8322 65.54Z" fill="white"/>
<path d="M59.6537 55.4796C59.734 54.3503 60.5116 53.5973 61.5978 53.4801C62.6839 53.3628 63.4924 53.8504 63.7578 54.7946C63.875 55.2081 63.9182 55.6463 63.4677 55.8869C63.011 56.1338 62.6778 55.9116 62.4926 55.4611C62.3322 55.0723 62.184 54.6773 61.6533 54.7144C61.0423 54.7514 60.9312 55.1772 60.8757 55.6771C60.8263 56.0659 60.6227 56.3992 60.1722 56.3251C59.6167 56.2387 59.6846 55.7512 59.6599 55.4796H59.6537Z" fill="white"/>
<path d="M69.849 42.6915C70.4353 42.7594 71.1759 42.7038 71.8547 42.9877C72.2003 43.1297 72.4966 43.395 72.3731 43.8209C72.2559 44.2282 71.9164 44.3455 71.5153 44.2837C71.3116 44.2529 71.1142 44.185 70.9167 44.1418C69.8552 43.9134 68.806 43.6604 67.7507 44.1912C67.4051 44.364 67.0225 44.3516 66.825 43.9381C66.5843 43.4321 66.9361 43.1173 67.3125 42.9631C68.084 42.6483 68.8986 42.5249 69.8552 42.6915H69.849Z" fill="white"/>
<path d="M55.0932 44.4446C54.5377 44.3705 54.0132 44.5865 53.5009 44.8272C53.1306 45 52.785 45 52.5937 44.5803C52.4086 44.173 52.6061 43.8027 52.964 43.6917C54.2971 43.2967 55.6548 43.0066 57.0372 43.4633C57.426 43.5929 57.679 43.8521 57.5371 44.2718C57.4013 44.6853 57.0248 44.784 56.6484 44.6667C56.1485 44.5124 55.6486 44.4199 55.0932 44.4384V44.4446Z" fill="white"/>
<path d="M55.8152 48.802C56.5681 48.7897 56.9816 49.1847 56.9878 49.9006C56.9878 50.6596 56.5064 51.3015 55.9016 51.3447C55.161 51.4002 54.5007 50.7707 54.5192 50.0302C54.5377 49.3328 55.087 48.8144 55.8214 48.802H55.8152Z" fill="white"/>
<path d="M68.7814 49.5669C68.7814 50.2581 68.0779 50.9864 67.4114 50.9802C66.8189 50.9802 66.3252 50.4001 66.3252 49.715C66.3252 48.9868 66.8744 48.4314 67.5718 48.4376C68.2569 48.4376 68.7753 48.9251 68.7753 49.5669H68.7814Z" fill="white"/>
<path d="M44.9967 53.6707C44.5523 53.646 44.2067 53.467 44.1635 52.9795C44.1327 52.5783 44.3672 52.3068 44.7683 52.2389C45.2312 52.1649 45.5768 52.3808 45.6755 52.8314C45.7866 53.3374 45.4349 53.5534 44.9967 53.6645V53.6707Z" fill="white"/>
<path d="M47.4528 55.4052C47.3108 55.9051 46.9714 56.0841 46.5147 55.9977C46.0148 55.9051 45.8667 55.5472 45.9778 55.0843C46.0765 54.677 46.3789 54.5042 46.7801 54.5659C47.2491 54.6399 47.4651 54.9485 47.4528 55.399V55.4052Z" fill="white"/>
<path d="M76.1193 56.751C76.5698 56.7942 76.9092 56.9731 76.9092 57.4792C76.9092 57.9914 76.5945 58.1889 76.1254 58.1704C75.6749 58.1519 75.3231 57.9606 75.317 57.4669C75.3108 56.9546 75.6811 56.8003 76.1254 56.7571L76.1193 56.751Z" fill="white"/>
<path d="M75.2615 55.0044C75.2122 55.5104 74.9653 55.7696 74.5765 55.7881C74.1198 55.8128 73.7989 55.5536 73.7927 55.0723C73.7927 54.6649 74.0396 54.4304 74.4531 54.3996C74.953 54.3625 75.1628 54.6649 75.2615 55.0044Z" fill="white"/>
<path d="M78.7362 55.2815C78.6436 55.6765 78.4152 55.9727 78.0079 55.9357C77.5698 55.8986 77.1995 55.6333 77.2735 55.1395C77.3352 54.689 77.6623 54.3928 78.1499 54.5039C78.5202 54.5903 78.767 54.8557 78.7423 55.2753L78.7362 55.2815Z" fill="white"/>
<path d="M49.1995 52.8074C49.2303 53.3628 48.9341 53.6344 48.4774 53.6652C48.0763 53.6961 47.7492 53.4492 47.7307 53.0419C47.706 52.579 48.0022 52.2643 48.4713 52.2273C48.8847 52.1964 49.1378 52.4371 49.1995 52.8074Z" fill="white"/>
<path d="M23.0757 37.5273C23.2731 36.3053 23.4336 35.2253 23.6188 34.1453C23.6866 33.738 23.7854 33.3245 23.9212 32.9296C24.0322 32.6086 24.3285 32.4667 24.6679 32.4605C25.032 32.4482 25.2974 32.6395 25.3591 32.9728C25.5998 34.2132 26.3959 35.1204 27.1797 36.04C27.2476 36.1202 27.3093 36.2066 27.371 36.2868C27.6549 36.6633 27.7783 37.0644 27.334 37.373C26.9698 37.626 26.6242 37.4347 26.3897 37.1138C26.0503 36.6509 25.7541 36.1572 25.4085 35.7005C25.2048 35.4352 25.1863 34.9723 24.5938 34.9538C24.4087 36.4658 23.9335 37.9037 24.347 39.5145C24.8839 41.6128 22.3474 43.7852 20.2862 43.1186C19.4407 42.8471 18.8235 42.2793 18.6075 41.403C18.3298 40.2551 18.5828 39.2183 19.4468 38.3789C20.3047 37.5458 21.2304 36.8916 22.5202 37.4656C22.6498 37.5211 22.8165 37.5026 23.088 37.5335L23.0757 37.5273Z" fill="white"/>
</svg>
