<svg width="124" height="126" viewBox="0 0 124 126" fill="none" xmlns="http://www.w3.org/2000/svg">
<path d="M77 20.5H69.762C69.454 19.5 69.0947 18.5 68.684 17.5C65.5013 8.83333 59.7007 4.5 51.282 4.5H33.88V46H63.448V55.75H33.88V95.5H51.282C53.2327 95.5 55.0807 95.2778 56.826 94.8333C62.678 93.1667 66.9387 88.0556 69.608 79.5H77V100H0V95.5H12.32V4.5H0V0H77V20.5Z" fill="#00001E"/>
<path d="M122.226 114.188C119.917 113.604 118.097 113.062 116.765 112.562C115.388 112.062 114.367 111.375 113.701 110.5C112.991 109.625 112.547 108.458 112.369 107C112.191 105.542 112.103 103.562 112.103 101.062V32.0625L123.092 28.6875V23.8125L54.9576 23.75L45.5 22.5L48.8967 33.3125H58.4875L87.8592 32.1875C91.6778 32.0208 94.9635 31.9167 97.7164 31.875V67.1875L59.7529 65.375L59.8195 77.25L97.7164 75.3125L101.646 112.562L93.1208 119.312H122.226V114.188Z" fill="#00001E"/>
<path d="M22.564 125.5V109.036H24.844V123.508H33.028V125.5H22.564Z" fill="#00001E"/>
<path d="M35.4312 125.5V109.036H37.7112V125.5H35.4312Z" fill="#00001E"/>
<path d="M41.8296 125.5V109.036H53.4936V111.004H44.1096V116.284H52.6536V118.228H44.1096V125.5H41.8296Z" fill="#00001E"/>
<path d="M56.5249 125.5V109.036H69.1969V111.004H58.8049V116.092H68.1409V118.06H58.8049V123.532H69.3409V125.5H56.5249Z" fill="#00001E"/>
</svg>
