<svg width="351" height="126" viewBox="0 0 351 126" fill="none" xmlns="http://www.w3.org/2000/svg">
<path d="M153 95.5083V82.2277H161.746V84.2957H155.561V87.7676H161.177V89.7597H155.561V93.4403H161.746V95.5083H153Z" fill="url(#paint0_linear_212_270)"/>
<path d="M165.448 95.5083L162.413 86.098H165.107L167.327 93.8198H167.421L169.66 86.098H172.335L169.3 95.5083H165.448Z" fill="url(#paint1_linear_212_270)"/>
<path d="M177.487 95.736C176.576 95.736 175.754 95.5273 175.021 95.1099C174.287 94.6925 173.705 94.1107 173.275 93.3644C172.858 92.6182 172.649 91.7644 172.649 90.8032C172.649 89.8292 172.864 88.9755 173.294 88.2419C173.724 87.4957 174.306 86.9138 175.039 86.4964C175.773 86.0791 176.589 85.8704 177.487 85.8704C178.398 85.8704 179.22 86.0791 179.953 86.4964C180.687 86.9138 181.262 87.4957 181.68 88.2419C182.11 88.9755 182.325 89.8292 182.325 90.8032C182.325 91.7771 182.11 92.6372 181.68 93.3834C181.25 94.117 180.668 94.6925 179.934 95.1099C179.213 95.5273 178.398 95.736 177.487 95.736ZM177.468 93.5731C177.885 93.5731 178.258 93.4719 178.587 93.2696C178.929 93.0672 179.201 92.7636 179.403 92.3589C179.605 91.9415 179.707 91.4229 179.707 90.8032C179.707 90.1834 179.605 89.6711 179.403 89.2664C179.201 88.849 178.929 88.5391 178.587 88.3368C178.258 88.1344 177.898 88.0332 177.506 88.0332C177.101 88.0332 176.728 88.1344 176.387 88.3368C176.045 88.5391 175.773 88.849 175.571 89.2664C175.368 89.6711 175.267 90.1834 175.267 90.8032C175.267 91.4229 175.368 91.9415 175.571 92.3589C175.773 92.7636 176.039 93.0672 176.368 93.2696C176.709 93.4719 177.076 93.5731 177.468 93.5731Z" fill="url(#paint2_linear_212_270)"/>
<path d="M183.645 95.5083V82.2277H186.206V95.5083H183.645Z" fill="url(#paint3_linear_212_270)"/>
<path d="M191.378 95.736C190.607 95.736 189.949 95.5715 189.405 95.2427C188.861 94.9138 188.444 94.4269 188.153 93.7818C187.862 93.1241 187.716 92.3209 187.716 91.3723V86.098H190.259V91.1447C190.259 91.9289 190.417 92.5296 190.733 92.947C191.062 93.3644 191.568 93.5731 192.251 93.5731C192.693 93.5731 193.079 93.4719 193.408 93.2696C193.75 93.0545 194.015 92.751 194.205 92.3589C194.395 91.9668 194.49 91.4988 194.49 90.9549V86.098H197.051V95.5083H194.869L194.641 94.0095H194.565C194.275 94.5407 193.863 94.9644 193.332 95.2806C192.814 95.5842 192.162 95.736 191.378 95.736Z" fill="url(#paint4_linear_212_270)"/>
<path d="M202.864 95.5083C202.193 95.5083 201.605 95.4071 201.099 95.2047C200.606 94.9897 200.22 94.6419 199.942 94.1613C199.664 93.668 199.524 92.9976 199.524 92.1502V88.147H197.912V86.098H199.524L199.809 83.5368H202.086V86.098H204.59V88.147H202.086V92.1881C202.086 92.6435 202.181 92.9597 202.37 93.1368C202.56 93.3012 202.883 93.3834 203.338 93.3834H204.533V95.5083H202.864Z" fill="url(#paint5_linear_212_270)"/>
<path d="M205.753 95.5083V86.098H208.314V95.5083H205.753ZM207.043 84.9028C206.575 84.9028 206.19 84.77 205.886 84.5043C205.595 84.2261 205.45 83.8783 205.45 83.4609C205.45 83.0435 205.595 82.6957 205.886 82.4174C206.19 82.1391 206.575 82 207.043 82C207.511 82 207.891 82.1391 208.182 82.4174C208.473 82.6957 208.618 83.0435 208.618 83.4609C208.618 83.8656 208.473 84.2071 208.182 84.4854C207.891 84.7636 207.511 84.9028 207.043 84.9028Z" fill="url(#paint6_linear_212_270)"/>
<path d="M214.69 95.736C213.78 95.736 212.958 95.5273 212.224 95.1099C211.49 94.6925 210.909 94.1107 210.479 93.3644C210.061 92.6182 209.853 91.7644 209.853 90.8032C209.853 89.8292 210.068 88.9755 210.498 88.2419C210.928 87.4957 211.509 86.9138 212.243 86.4964C212.977 86.0791 213.792 85.8704 214.69 85.8704C215.601 85.8704 216.423 86.0791 217.157 86.4964C217.89 86.9138 218.466 87.4957 218.883 88.2419C219.313 88.9755 219.528 89.8292 219.528 90.8032C219.528 91.7771 219.313 92.6372 218.883 93.3834C218.453 94.117 217.871 94.6925 217.138 95.1099C216.417 95.5273 215.601 95.736 214.69 95.736ZM214.671 93.5731C215.089 93.5731 215.462 93.4719 215.791 93.2696C216.132 93.0672 216.404 92.7636 216.607 92.3589C216.809 91.9415 216.91 91.4229 216.91 90.8032C216.91 90.1834 216.809 89.6711 216.607 89.2664C216.404 88.849 216.132 88.5391 215.791 88.3368C215.462 88.1344 215.102 88.0332 214.709 88.0332C214.305 88.0332 213.932 88.1344 213.59 88.3368C213.249 88.5391 212.977 88.849 212.774 89.2664C212.572 89.6711 212.471 90.1834 212.471 90.8032C212.471 91.4229 212.572 91.9415 212.774 92.3589C212.977 92.7636 213.242 93.0672 213.571 93.2696C213.913 93.4719 214.279 93.5731 214.671 93.5731Z" fill="url(#paint7_linear_212_270)"/>
<path d="M220.753 95.5083V86.098H222.935L223.163 87.6348H223.239C223.542 87.0783 223.953 86.6482 224.472 86.3447C224.991 86.0285 225.642 85.8704 226.426 85.8704C227.21 85.8704 227.874 86.0411 228.418 86.3826C228.962 86.7115 229.373 87.1984 229.651 87.8435C229.942 88.4885 230.088 89.2854 230.088 90.234V95.5083H227.527V90.4617C227.527 89.6775 227.368 89.0767 227.052 88.6593C226.736 88.2419 226.236 88.0332 225.553 88.0332C225.123 88.0332 224.738 88.1407 224.396 88.3557C224.055 88.5581 223.789 88.8553 223.599 89.2474C223.41 89.6269 223.315 90.0949 223.315 90.6514V95.5083H220.753Z" fill="url(#paint8_linear_212_270)"/>
<path d="M232.998 95.6032C232.53 95.6032 232.15 95.464 231.86 95.1858C231.569 94.8949 231.423 94.547 231.423 94.1423C231.423 93.7249 231.569 93.3771 231.86 93.0988C232.15 92.8079 232.53 92.6625 232.998 92.6625C233.453 92.6625 233.826 92.8079 234.117 93.0988C234.408 93.3771 234.554 93.7249 234.554 94.1423C234.554 94.547 234.408 94.8949 234.117 95.1858C233.826 95.464 233.453 95.6032 232.998 95.6032Z" fill="url(#paint9_linear_212_270)"/>
<path d="M239.876 95.5083V82.2277H248.622V84.2957H242.437V87.7676H248.053V89.7597H242.437V93.4403H248.622V95.5083H239.876Z" fill="url(#paint10_linear_212_270)"/>
<path d="M252.325 95.5083L249.289 86.098H251.983L254.203 93.8198H254.298L256.536 86.098H259.212L256.176 95.5083H252.325Z" fill="url(#paint11_linear_212_270)"/>
<path d="M264.439 95.736C263.478 95.736 262.624 95.5336 261.878 95.1289C261.144 94.7241 260.569 94.1549 260.151 93.4213C259.734 92.6877 259.525 91.8466 259.525 90.898C259.525 89.9115 259.728 89.0451 260.132 88.2988C260.55 87.5399 261.125 86.9455 261.859 86.5154C262.605 86.0854 263.465 85.8704 264.439 85.8704C265.388 85.8704 266.216 86.0727 266.924 86.4775C267.633 86.8822 268.189 87.4387 268.594 88.147C268.999 88.8427 269.201 89.6332 269.201 90.5186C269.201 90.6451 269.195 90.7905 269.182 90.9549C269.182 91.1067 269.176 91.2648 269.163 91.4292H261.347V89.8545H266.602C266.564 89.2601 266.343 88.7858 265.938 88.4316C265.546 88.0775 265.052 87.9004 264.458 87.9004C264.015 87.9004 263.611 88.0016 263.244 88.204C262.877 88.3937 262.586 88.6909 262.371 89.0957C262.156 89.4877 262.049 89.9874 262.049 90.5945V91.1447C262.049 91.6632 262.15 92.1123 262.352 92.4917C262.554 92.8585 262.833 93.1431 263.187 93.3455C263.554 93.5478 263.965 93.649 264.42 93.649C264.888 93.649 265.28 93.5478 265.596 93.3455C265.913 93.1304 266.153 92.8585 266.317 92.5296H268.916C268.739 93.1241 268.442 93.668 268.025 94.1613C267.607 94.6419 267.095 95.0277 266.488 95.3186C265.881 95.5968 265.198 95.736 264.439 95.736Z" fill="url(#paint12_linear_212_270)"/>
<path d="M270.333 95.5083V86.098H272.515L272.743 88.166H272.819C273.097 87.4957 273.401 87.0024 273.73 86.6862C274.058 86.3573 274.432 86.1423 274.849 86.0411C275.279 85.9273 275.76 85.8704 276.291 85.8704V88.5834H275.589C275.159 88.5834 274.773 88.634 274.432 88.7352C274.103 88.8237 273.824 88.9755 273.597 89.1905C273.369 89.3929 273.192 89.6648 273.066 90.0063C272.952 90.3478 272.895 90.7589 272.895 91.2395V95.5083H270.333Z" fill="url(#paint13_linear_212_270)"/>
<path d="M277.872 95.6032C277.404 95.6032 277.024 95.464 276.734 95.1858C276.443 94.8949 276.297 94.547 276.297 94.1423C276.297 93.7249 276.443 93.3771 276.734 93.0988C277.024 92.8079 277.404 92.6625 277.872 92.6625C278.327 92.6625 278.7 92.8079 278.991 93.0988C279.282 93.3771 279.428 93.7249 279.428 94.1423C279.428 94.547 279.282 94.8949 278.991 95.1858C278.7 95.464 278.327 95.6032 277.872 95.6032Z" fill="url(#paint14_linear_212_270)"/>
<path d="M284.75 95.5083V82.2277H293.402V84.2957H287.312V87.8435H292.206V89.8545H287.312V95.5083H284.75Z" fill="url(#paint15_linear_212_270)"/>
<path d="M298.491 95.736C297.58 95.736 296.758 95.5273 296.025 95.1099C295.291 94.6925 294.709 94.1107 294.279 93.3644C293.862 92.6182 293.653 91.7644 293.653 90.8032C293.653 89.8292 293.868 88.9755 294.298 88.2419C294.728 87.4957 295.31 86.9138 296.044 86.4964C296.777 86.0791 297.593 85.8704 298.491 85.8704C299.402 85.8704 300.224 86.0791 300.958 86.4964C301.691 86.9138 302.267 87.4957 302.684 88.2419C303.114 88.9755 303.329 89.8292 303.329 90.8032C303.329 91.7771 303.114 92.6372 302.684 93.3834C302.254 94.117 301.672 94.6925 300.939 95.1099C300.218 95.5273 299.402 95.736 298.491 95.736ZM298.472 93.5731C298.89 93.5731 299.263 93.4719 299.591 93.2696C299.933 93.0672 300.205 92.7636 300.407 92.3589C300.61 91.9415 300.711 91.4229 300.711 90.8032C300.711 90.1834 300.61 89.6711 300.407 89.2664C300.205 88.849 299.933 88.5391 299.591 88.3368C299.263 88.1344 298.902 88.0332 298.51 88.0332C298.105 88.0332 297.732 88.1344 297.391 88.3368C297.049 88.5391 296.777 88.849 296.575 89.2664C296.373 89.6711 296.271 90.1834 296.271 90.8032C296.271 91.4229 296.373 91.9415 296.575 92.3589C296.777 92.7636 297.043 93.0672 297.372 93.2696C297.713 93.4719 298.08 93.5731 298.472 93.5731Z" fill="url(#paint16_linear_212_270)"/>
<path d="M304.554 95.5083V86.098H306.736L306.964 88.166H307.039C307.318 87.4957 307.621 87.0024 307.95 86.6862C308.279 86.3573 308.652 86.1423 309.07 86.0411C309.5 85.9273 309.98 85.8704 310.511 85.8704V88.5834H309.809C309.379 88.5834 308.994 88.634 308.652 88.7352C308.323 88.8237 308.045 88.9755 307.817 89.1905C307.59 89.3929 307.413 89.6648 307.286 90.0063C307.172 90.3478 307.115 90.7589 307.115 91.2395V95.5083H304.554Z" fill="url(#paint17_linear_212_270)"/>
<path d="M315.853 95.736C314.892 95.736 314.038 95.5336 313.292 95.1289C312.558 94.7241 311.983 94.1549 311.566 93.4213C311.148 92.6877 310.939 91.8466 310.939 90.898C310.939 89.9115 311.142 89.0451 311.547 88.2988C311.964 87.5399 312.539 86.9455 313.273 86.5154C314.019 86.0854 314.879 85.8704 315.853 85.8704C316.802 85.8704 317.63 86.0727 318.339 86.4775C319.047 86.8822 319.604 87.4387 320.008 88.147C320.413 88.8427 320.615 89.6332 320.615 90.5186C320.615 90.6451 320.609 90.7905 320.596 90.9549C320.596 91.1067 320.59 91.2648 320.577 91.4292H312.761V89.8545H318.016C317.978 89.2601 317.757 88.7858 317.352 88.4316C316.96 88.0775 316.467 87.9004 315.872 87.9004C315.43 87.9004 315.025 88.0016 314.658 88.204C314.291 88.3937 314 88.6909 313.785 89.0957C313.57 89.4877 313.463 89.9874 313.463 90.5945V91.1447C313.463 91.6632 313.564 92.1123 313.766 92.4917C313.969 92.8585 314.247 93.1431 314.601 93.3455C314.968 93.5478 315.379 93.649 315.834 93.649C316.302 93.649 316.694 93.5478 317.011 93.3455C317.327 93.1304 317.567 92.8585 317.732 92.5296H320.331C320.154 93.1241 319.856 93.668 319.439 94.1613C319.022 94.6419 318.509 95.0277 317.902 95.3186C317.295 95.5968 316.612 95.736 315.853 95.736Z" fill="url(#paint18_linear_212_270)"/>
<path d="M323.897 95.5083L320.861 86.098H323.555L325.775 93.8198H325.87L328.109 86.098H330.784L327.748 95.5083H323.897Z" fill="url(#paint19_linear_212_270)"/>
<path d="M336.011 95.736C335.05 95.736 334.196 95.5336 333.45 95.1289C332.717 94.7241 332.141 94.1549 331.724 93.4213C331.306 92.6877 331.098 91.8466 331.098 90.898C331.098 89.9115 331.3 89.0451 331.705 88.2988C332.122 87.5399 332.698 86.9455 333.431 86.5154C334.177 86.0854 335.038 85.8704 336.011 85.8704C336.96 85.8704 337.788 86.0727 338.497 86.4775C339.205 86.8822 339.762 87.4387 340.166 88.147C340.571 88.8427 340.773 89.6332 340.773 90.5186C340.773 90.6451 340.767 90.7905 340.755 90.9549C340.755 91.1067 340.748 91.2648 340.736 91.4292H332.919V89.8545H338.174C338.136 89.2601 337.915 88.7858 337.51 88.4316C337.118 88.0775 336.625 87.9004 336.03 87.9004C335.588 87.9004 335.183 88.0016 334.816 88.204C334.449 88.3937 334.158 88.6909 333.943 89.0957C333.728 89.4877 333.621 89.9874 333.621 90.5945V91.1447C333.621 91.6632 333.722 92.1123 333.924 92.4917C334.127 92.8585 334.405 93.1431 334.759 93.3455C335.126 93.5478 335.537 93.649 335.992 93.649C336.46 93.649 336.853 93.5478 337.169 93.3455C337.485 93.1304 337.725 92.8585 337.89 92.5296H340.489C340.312 93.1241 340.015 93.668 339.597 94.1613C339.18 94.6419 338.668 95.0277 338.06 95.3186C337.453 95.5968 336.77 95.736 336.011 95.736Z" fill="url(#paint20_linear_212_270)"/>
<path d="M341.906 95.5083V86.098H344.088L344.315 88.166H344.391C344.67 87.4957 344.973 87.0024 345.302 86.6862C345.631 86.3573 346.004 86.1423 346.421 86.0411C346.851 85.9273 347.332 85.8704 347.863 85.8704V88.5834H347.161C346.731 88.5834 346.345 88.634 346.004 88.7352C345.675 88.8237 345.397 88.9755 345.169 89.1905C344.941 89.3929 344.764 89.6648 344.638 90.0063C344.524 90.3478 344.467 90.7589 344.467 91.2395V95.5083H341.906Z" fill="url(#paint21_linear_212_270)"/>
<path d="M349.444 95.6032C348.976 95.6032 348.597 95.464 348.306 95.1858C348.015 94.8949 347.87 94.547 347.87 94.1423C347.87 93.7249 348.015 93.3771 348.306 93.0988C348.597 92.8079 348.976 92.6625 349.444 92.6625C349.9 92.6625 350.273 92.8079 350.564 93.0988C350.855 93.3771 351 93.7249 351 94.1423C351 94.547 350.855 94.8949 350.564 95.1858C350.273 95.464 349.9 95.6032 349.444 95.6032Z" fill="url(#paint22_linear_212_270)"/>
<path d="M154 62.176V28.576H176.128V33.808H160.48V42.592H174.688V47.632H160.48V56.944H176.128V62.176H154Z" fill="white"/>
<path d="M183.238 62.416C182.054 62.416 181.094 62.064 180.358 61.36C179.622 60.624 179.254 59.744 179.254 58.72C179.254 57.664 179.622 56.784 180.358 56.08C181.094 55.344 182.054 54.976 183.238 54.976C184.39 54.976 185.334 55.344 186.07 56.08C186.806 56.784 187.174 57.664 187.174 58.72C187.174 59.744 186.806 60.624 186.07 61.36C185.334 62.064 184.39 62.416 183.238 62.416Z" fill="white"/>
<path d="M200.641 62.176V28.576H222.529V33.808H207.121V42.784H219.505V47.872H207.121V62.176H200.641Z" fill="white"/>
<path d="M226.035 62.416C224.851 62.416 223.891 62.064 223.155 61.36C222.419 60.624 222.051 59.744 222.051 58.72C222.051 57.664 222.419 56.784 223.155 56.08C223.891 55.344 224.851 54.976 226.035 54.976C227.187 54.976 228.131 55.344 228.867 56.08C229.603 56.784 229.971 57.664 229.971 58.72C229.971 59.744 229.603 60.624 228.867 61.36C228.131 62.064 227.187 62.416 226.035 62.416Z" fill="white"/>
<path d="M243.438 62.176V28.576H249.918V57.136H264.654V62.176H243.438Z" fill="white"/>
<path d="M268.059 62.176V38.368H274.539V62.176H268.059ZM271.323 35.344C270.139 35.344 269.163 35.008 268.395 34.336C267.659 33.632 267.291 32.752 267.291 31.696C267.291 30.64 267.659 29.76 268.395 29.056C269.163 28.352 270.139 28 271.323 28C272.507 28 273.467 28.352 274.203 29.056C274.939 29.76 275.307 30.64 275.307 31.696C275.307 32.72 274.939 33.584 274.203 34.288C273.467 34.992 272.507 35.344 271.323 35.344Z" fill="white"/>
<path d="M280.927 62.176V36.784C280.927 34.768 281.263 33.168 281.935 31.984C282.639 30.8 283.615 29.936 284.863 29.392C286.111 28.848 287.583 28.576 289.279 28.576H291.919V33.952H290.287C289.263 33.952 288.527 34.16 288.079 34.576C287.631 34.992 287.407 35.696 287.407 36.688V62.176H280.927ZM277.711 43.552V38.368H292.447V43.552H277.711Z" fill="white"/>
<path d="M306.566 62.752C304.134 62.752 301.974 62.24 300.086 61.216C298.23 60.192 296.774 58.752 295.718 56.896C294.662 55.04 294.134 52.912 294.134 50.512C294.134 48.016 294.646 45.824 295.67 43.936C296.726 42.016 298.182 40.512 300.038 39.424C301.926 38.336 304.102 37.792 306.566 37.792C308.966 37.792 311.062 38.304 312.854 39.328C314.646 40.352 316.054 41.76 317.078 43.552C318.102 45.312 318.614 47.312 318.614 49.552C318.614 49.872 318.598 50.24 318.566 50.656C318.566 51.04 318.55 51.44 318.518 51.856H298.742V47.872H312.038C311.942 46.368 311.382 45.168 310.358 44.272C309.366 43.376 308.118 42.928 306.614 42.928C305.494 42.928 304.47 43.184 303.542 43.696C302.614 44.176 301.878 44.928 301.334 45.952C300.79 46.944 300.518 48.208 300.518 49.744V51.136C300.518 52.448 300.774 53.584 301.286 54.544C301.798 55.472 302.502 56.192 303.398 56.704C304.326 57.216 305.366 57.472 306.518 57.472C307.702 57.472 308.694 57.216 309.494 56.704C310.294 56.16 310.902 55.472 311.318 54.64H317.894C317.446 56.144 316.694 57.52 315.638 58.768C314.582 59.984 313.286 60.96 311.75 61.696C310.214 62.4 308.486 62.752 306.566 62.752Z" fill="white"/>
<path d="M334.832 62.416C333.648 62.416 332.688 62.064 331.952 61.36C331.216 60.624 330.848 59.744 330.848 58.72C330.848 57.664 331.216 56.784 331.952 56.08C332.688 55.344 333.648 54.976 334.832 54.976C335.984 54.976 336.928 55.344 337.664 56.08C338.4 56.784 338.768 57.664 338.768 58.72C338.768 59.744 338.4 60.624 337.664 61.36C336.928 62.064 335.984 62.416 334.832 62.416Z" fill="white"/>
<path d="M77 20.5H69.762C69.454 19.5 69.0947 18.5 68.684 17.5C65.5013 8.83333 59.7007 4.5 51.282 4.5H33.88V46H63.448V55.75H33.88V95.5H51.282C53.2327 95.5 55.0807 95.2778 56.826 94.8333C62.678 93.1667 66.9387 88.0556 69.608 79.5H77V100H0V95.5H12.32V4.5H0V0H77V20.5Z" fill="white"/>
<path d="M122.226 114.188C119.917 113.604 118.097 113.062 116.765 112.562C115.388 112.062 114.367 111.375 113.701 110.5C112.991 109.625 112.547 108.458 112.369 107C112.191 105.542 112.103 103.562 112.103 101.062V32.0625L123.092 28.6875V23.8125L54.9576 23.75L45.5 22.5L48.8967 33.3125H58.4875L87.8592 32.1875C91.6778 32.0208 94.9635 31.9167 97.7164 31.875V67.1875L59.7529 65.375L59.8195 77.25L97.7164 75.3125L101.646 112.562L93.1208 119.312H122.226V114.188Z" fill="white"/>
<path d="M22.564 125.5V109.036H24.844V123.508H33.028V125.5H22.564Z" fill="white"/>
<path d="M35.4312 125.5V109.036H37.7112V125.5H35.4312Z" fill="white"/>
<path d="M41.8296 125.5V109.036H53.4936V111.004H44.1096V116.284H52.6536V118.228H44.1096V125.5H41.8296Z" fill="white"/>
<path d="M56.5249 125.5V109.036H69.1969V111.004H58.8049V116.092H68.1409V118.06H58.8049V123.532H69.3409V125.5H56.5249Z" fill="white"/>
<defs>
<linearGradient id="paint0_linear_212_270" x1="351" y1="88.868" x2="153" y2="88.868" gradientUnits="userSpaceOnUse">
<stop stop-color="#D43F8D"/>
<stop offset="0.208558" stop-color="#FAA72A"/>
<stop offset="0.417117" stop-color="#1CA9C2"/>
<stop offset="0.620192" stop-color="#0A1735"/>
<stop offset="0.81176" stop-color="#8545A2"/>
<stop offset="0.997806" stop-color="#6B48A9"/>
</linearGradient>
<linearGradient id="paint1_linear_212_270" x1="351" y1="88.868" x2="153" y2="88.868" gradientUnits="userSpaceOnUse">
<stop stop-color="#D43F8D"/>
<stop offset="0.208558" stop-color="#FAA72A"/>
<stop offset="0.417117" stop-color="#1CA9C2"/>
<stop offset="0.620192" stop-color="#0A1735"/>
<stop offset="0.81176" stop-color="#8545A2"/>
<stop offset="0.997806" stop-color="#6B48A9"/>
</linearGradient>
<linearGradient id="paint2_linear_212_270" x1="351" y1="88.868" x2="153" y2="88.868" gradientUnits="userSpaceOnUse">
<stop stop-color="#D43F8D"/>
<stop offset="0.208558" stop-color="#FAA72A"/>
<stop offset="0.417117" stop-color="#1CA9C2"/>
<stop offset="0.620192" stop-color="#0A1735"/>
<stop offset="0.81176" stop-color="#8545A2"/>
<stop offset="0.997806" stop-color="#6B48A9"/>
</linearGradient>
<linearGradient id="paint3_linear_212_270" x1="351" y1="88.868" x2="153" y2="88.868" gradientUnits="userSpaceOnUse">
<stop stop-color="#D43F8D"/>
<stop offset="0.208558" stop-color="#FAA72A"/>
<stop offset="0.417117" stop-color="#1CA9C2"/>
<stop offset="0.620192" stop-color="#0A1735"/>
<stop offset="0.81176" stop-color="#8545A2"/>
<stop offset="0.997806" stop-color="#6B48A9"/>
</linearGradient>
<linearGradient id="paint4_linear_212_270" x1="351" y1="88.868" x2="153" y2="88.868" gradientUnits="userSpaceOnUse">
<stop stop-color="#D43F8D"/>
<stop offset="0.208558" stop-color="#FAA72A"/>
<stop offset="0.417117" stop-color="#1CA9C2"/>
<stop offset="0.620192" stop-color="#0A1735"/>
<stop offset="0.81176" stop-color="#8545A2"/>
<stop offset="0.997806" stop-color="#6B48A9"/>
</linearGradient>
<linearGradient id="paint5_linear_212_270" x1="351" y1="88.868" x2="153" y2="88.868" gradientUnits="userSpaceOnUse">
<stop stop-color="#D43F8D"/>
<stop offset="0.208558" stop-color="#FAA72A"/>
<stop offset="0.417117" stop-color="#1CA9C2"/>
<stop offset="0.620192" stop-color="#0A1735"/>
<stop offset="0.81176" stop-color="#8545A2"/>
<stop offset="0.997806" stop-color="#6B48A9"/>
</linearGradient>
<linearGradient id="paint6_linear_212_270" x1="351" y1="88.868" x2="153" y2="88.868" gradientUnits="userSpaceOnUse">
<stop stop-color="#D43F8D"/>
<stop offset="0.208558" stop-color="#FAA72A"/>
<stop offset="0.417117" stop-color="#1CA9C2"/>
<stop offset="0.620192" stop-color="#0A1735"/>
<stop offset="0.81176" stop-color="#8545A2"/>
<stop offset="0.997806" stop-color="#6B48A9"/>
</linearGradient>
<linearGradient id="paint7_linear_212_270" x1="351" y1="88.868" x2="153" y2="88.868" gradientUnits="userSpaceOnUse">
<stop stop-color="#D43F8D"/>
<stop offset="0.208558" stop-color="#FAA72A"/>
<stop offset="0.417117" stop-color="#1CA9C2"/>
<stop offset="0.620192" stop-color="#0A1735"/>
<stop offset="0.81176" stop-color="#8545A2"/>
<stop offset="0.997806" stop-color="#6B48A9"/>
</linearGradient>
<linearGradient id="paint8_linear_212_270" x1="351" y1="88.868" x2="153" y2="88.868" gradientUnits="userSpaceOnUse">
<stop stop-color="#D43F8D"/>
<stop offset="0.208558" stop-color="#FAA72A"/>
<stop offset="0.417117" stop-color="#1CA9C2"/>
<stop offset="0.620192" stop-color="#0A1735"/>
<stop offset="0.81176" stop-color="#8545A2"/>
<stop offset="0.997806" stop-color="#6B48A9"/>
</linearGradient>
<linearGradient id="paint9_linear_212_270" x1="351" y1="88.868" x2="153" y2="88.868" gradientUnits="userSpaceOnUse">
<stop stop-color="#D43F8D"/>
<stop offset="0.208558" stop-color="#FAA72A"/>
<stop offset="0.417117" stop-color="#1CA9C2"/>
<stop offset="0.620192" stop-color="#0A1735"/>
<stop offset="0.81176" stop-color="#8545A2"/>
<stop offset="0.997806" stop-color="#6B48A9"/>
</linearGradient>
<linearGradient id="paint10_linear_212_270" x1="351" y1="88.868" x2="153" y2="88.868" gradientUnits="userSpaceOnUse">
<stop stop-color="#D43F8D"/>
<stop offset="0.208558" stop-color="#FAA72A"/>
<stop offset="0.417117" stop-color="#1CA9C2"/>
<stop offset="0.620192" stop-color="#0A1735"/>
<stop offset="0.81176" stop-color="#8545A2"/>
<stop offset="0.997806" stop-color="#6B48A9"/>
</linearGradient>
<linearGradient id="paint11_linear_212_270" x1="351" y1="88.868" x2="153" y2="88.868" gradientUnits="userSpaceOnUse">
<stop stop-color="#D43F8D"/>
<stop offset="0.208558" stop-color="#FAA72A"/>
<stop offset="0.417117" stop-color="#1CA9C2"/>
<stop offset="0.620192" stop-color="#0A1735"/>
<stop offset="0.81176" stop-color="#8545A2"/>
<stop offset="0.997806" stop-color="#6B48A9"/>
</linearGradient>
<linearGradient id="paint12_linear_212_270" x1="351" y1="88.868" x2="153" y2="88.868" gradientUnits="userSpaceOnUse">
<stop stop-color="#D43F8D"/>
<stop offset="0.208558" stop-color="#FAA72A"/>
<stop offset="0.417117" stop-color="#1CA9C2"/>
<stop offset="0.620192" stop-color="#0A1735"/>
<stop offset="0.81176" stop-color="#8545A2"/>
<stop offset="0.997806" stop-color="#6B48A9"/>
</linearGradient>
<linearGradient id="paint13_linear_212_270" x1="351" y1="88.868" x2="153" y2="88.868" gradientUnits="userSpaceOnUse">
<stop stop-color="#D43F8D"/>
<stop offset="0.208558" stop-color="#FAA72A"/>
<stop offset="0.417117" stop-color="#1CA9C2"/>
<stop offset="0.620192" stop-color="#0A1735"/>
<stop offset="0.81176" stop-color="#8545A2"/>
<stop offset="0.997806" stop-color="#6B48A9"/>
</linearGradient>
<linearGradient id="paint14_linear_212_270" x1="351" y1="88.868" x2="153" y2="88.868" gradientUnits="userSpaceOnUse">
<stop stop-color="#D43F8D"/>
<stop offset="0.208558" stop-color="#FAA72A"/>
<stop offset="0.417117" stop-color="#1CA9C2"/>
<stop offset="0.620192" stop-color="#0A1735"/>
<stop offset="0.81176" stop-color="#8545A2"/>
<stop offset="0.997806" stop-color="#6B48A9"/>
</linearGradient>
<linearGradient id="paint15_linear_212_270" x1="351" y1="88.868" x2="153" y2="88.868" gradientUnits="userSpaceOnUse">
<stop stop-color="#D43F8D"/>
<stop offset="0.208558" stop-color="#FAA72A"/>
<stop offset="0.417117" stop-color="#1CA9C2"/>
<stop offset="0.620192" stop-color="#0A1735"/>
<stop offset="0.81176" stop-color="#8545A2"/>
<stop offset="0.997806" stop-color="#6B48A9"/>
</linearGradient>
<linearGradient id="paint16_linear_212_270" x1="351" y1="88.868" x2="153" y2="88.868" gradientUnits="userSpaceOnUse">
<stop stop-color="#D43F8D"/>
<stop offset="0.208558" stop-color="#FAA72A"/>
<stop offset="0.417117" stop-color="#1CA9C2"/>
<stop offset="0.620192" stop-color="#0A1735"/>
<stop offset="0.81176" stop-color="#8545A2"/>
<stop offset="0.997806" stop-color="#6B48A9"/>
</linearGradient>
<linearGradient id="paint17_linear_212_270" x1="351" y1="88.868" x2="153" y2="88.868" gradientUnits="userSpaceOnUse">
<stop stop-color="#D43F8D"/>
<stop offset="0.208558" stop-color="#FAA72A"/>
<stop offset="0.417117" stop-color="#1CA9C2"/>
<stop offset="0.620192" stop-color="#0A1735"/>
<stop offset="0.81176" stop-color="#8545A2"/>
<stop offset="0.997806" stop-color="#6B48A9"/>
</linearGradient>
<linearGradient id="paint18_linear_212_270" x1="351" y1="88.868" x2="153" y2="88.868" gradientUnits="userSpaceOnUse">
<stop stop-color="#D43F8D"/>
<stop offset="0.208558" stop-color="#FAA72A"/>
<stop offset="0.417117" stop-color="#1CA9C2"/>
<stop offset="0.620192" stop-color="#0A1735"/>
<stop offset="0.81176" stop-color="#8545A2"/>
<stop offset="0.997806" stop-color="#6B48A9"/>
</linearGradient>
<linearGradient id="paint19_linear_212_270" x1="351" y1="88.868" x2="153" y2="88.868" gradientUnits="userSpaceOnUse">
<stop stop-color="#D43F8D"/>
<stop offset="0.208558" stop-color="#FAA72A"/>
<stop offset="0.417117" stop-color="#1CA9C2"/>
<stop offset="0.620192" stop-color="#0A1735"/>
<stop offset="0.81176" stop-color="#8545A2"/>
<stop offset="0.997806" stop-color="#6B48A9"/>
</linearGradient>
<linearGradient id="paint20_linear_212_270" x1="351" y1="88.868" x2="153" y2="88.868" gradientUnits="userSpaceOnUse">
<stop stop-color="#D43F8D"/>
<stop offset="0.208558" stop-color="#FAA72A"/>
<stop offset="0.417117" stop-color="#1CA9C2"/>
<stop offset="0.620192" stop-color="#0A1735"/>
<stop offset="0.81176" stop-color="#8545A2"/>
<stop offset="0.997806" stop-color="#6B48A9"/>
</linearGradient>
<linearGradient id="paint21_linear_212_270" x1="351" y1="88.868" x2="153" y2="88.868" gradientUnits="userSpaceOnUse">
<stop stop-color="#D43F8D"/>
<stop offset="0.208558" stop-color="#FAA72A"/>
<stop offset="0.417117" stop-color="#1CA9C2"/>
<stop offset="0.620192" stop-color="#0A1735"/>
<stop offset="0.81176" stop-color="#8545A2"/>
<stop offset="0.997806" stop-color="#6B48A9"/>
</linearGradient>
<linearGradient id="paint22_linear_212_270" x1="351" y1="88.868" x2="153" y2="88.868" gradientUnits="userSpaceOnUse">
<stop stop-color="#D43F8D"/>
<stop offset="0.208558" stop-color="#FAA72A"/>
<stop offset="0.417117" stop-color="#1CA9C2"/>
<stop offset="0.620192" stop-color="#0A1735"/>
<stop offset="0.81176" stop-color="#8545A2"/>
<stop offset="0.997806" stop-color="#6B48A9"/>
</linearGradient>
</defs>
</svg>
