<svg width="890" height="167" viewBox="0 0 890 167" fill="none" xmlns="http://www.w3.org/2000/svg">
<path d="M0 164.621V2.7745H106.587V27.9763H31.2132V70.2874H99.651V94.5644H31.2132V139.419H106.587V164.621H0Z" fill="#161616"/>
<path d="M140.837 165.777C135.134 165.777 130.509 164.081 126.964 160.69C123.419 157.145 121.646 152.906 121.646 147.974C121.646 142.887 123.419 138.648 126.964 135.257C130.509 131.712 135.134 129.939 140.837 129.939C146.386 129.939 150.933 131.712 154.478 135.257C158.023 138.648 159.796 142.887 159.796 147.974C159.796 152.906 158.023 157.145 154.478 160.69C150.933 164.081 146.386 165.777 140.837 165.777Z" fill="#161616"/>
<path d="M224.661 164.621V2.7745H330.092V27.9763H255.874V71.2123H315.526V95.7204H255.874V164.621H224.661Z" fill="#161616"/>
<path d="M346.983 165.777C341.28 165.777 336.656 164.081 333.11 160.69C329.565 157.145 327.793 152.906 327.793 147.974C327.793 142.887 329.565 138.648 333.11 135.257C336.656 131.712 341.28 129.939 346.983 129.939C352.532 129.939 357.079 131.712 360.624 135.257C364.169 138.648 365.942 142.887 365.942 147.974C365.942 152.906 364.169 157.145 360.624 160.69C357.079 164.081 352.532 165.777 346.983 165.777Z" fill="#161616"/>
<path d="M430.807 164.621V2.7745H462.02V140.344H533.001V164.621H430.807Z" fill="#161616"/>
<path d="M549.406 164.621V49.9411H580.619V164.621H549.406ZM565.128 35.3749C559.425 35.3749 554.724 33.7565 551.025 30.5195C547.479 27.1285 545.707 22.8897 545.707 17.8031C545.707 12.7165 547.479 8.47764 551.025 5.08658C554.724 1.69553 559.425 0 565.128 0C570.831 0 575.456 1.69553 579.001 5.08658C582.546 8.47764 584.319 12.7165 584.319 17.8031C584.319 22.7355 582.546 26.8973 579.001 30.2883C575.456 33.6794 570.831 35.3749 565.128 35.3749Z" fill="#161616"/>
<path d="M611.386 164.621V42.3112C611.386 32.6004 613.005 24.8935 616.242 19.1903C619.633 13.4872 624.334 9.32542 630.345 6.70505C636.357 4.08468 643.447 2.7745 651.617 2.7745H664.333V28.6699H656.472C651.54 28.6699 647.994 29.6718 645.836 31.6756C643.678 33.6794 642.599 37.0705 642.599 41.8488V164.621H611.386ZM595.895 74.9116V49.9411H666.876V74.9116H595.895Z" fill="#161616"/>
<path d="M734.886 167.395C723.172 167.395 712.767 164.929 703.673 159.996C694.733 155.064 687.719 148.128 682.633 139.188C677.546 130.248 675.003 119.997 675.003 108.437C675.003 96.414 677.469 85.8555 682.402 76.7613C687.488 67.5129 694.502 60.2684 703.442 55.0277C712.536 49.7869 723.017 47.1666 734.886 47.1666C746.447 47.1666 756.543 49.6328 765.174 54.5653C773.806 59.4977 780.588 66.2798 785.521 74.9116C790.453 83.3893 792.919 93.023 792.919 103.813C792.919 105.354 792.842 107.127 792.688 109.131C792.688 110.98 792.611 112.907 792.457 114.911H697.199V95.7204H761.244C760.781 88.4759 758.084 82.6956 753.152 78.3798C748.373 74.0639 742.362 71.9059 735.117 71.9059C729.722 71.9059 724.79 73.139 720.32 75.6052C715.85 77.9173 712.305 81.5396 709.684 86.4721C707.064 91.2504 705.754 97.3389 705.754 104.738V111.443C705.754 117.762 706.987 123.234 709.453 127.858C711.919 132.328 715.31 135.797 719.626 138.263C724.096 140.729 729.106 141.962 734.655 141.962C740.358 141.962 745.136 140.729 748.99 138.263C752.843 135.642 755.772 132.328 757.776 128.321H789.451C787.293 135.565 783.671 142.193 778.585 148.205C773.498 154.062 767.255 158.763 759.857 162.309C752.458 165.7 744.134 167.395 734.886 167.395Z" fill="#161616"/>
<path d="M871.041 165.777C865.338 165.777 860.714 164.081 857.168 160.69C853.623 157.145 851.851 152.906 851.851 147.974C851.851 142.887 853.623 138.648 857.168 135.257C860.714 131.712 865.338 129.939 871.041 129.939C876.59 129.939 881.137 131.712 884.682 135.257C888.227 138.648 890 142.887 890 147.974C890 152.906 888.227 157.145 884.682 160.69C881.137 164.081 876.59 165.777 871.041 165.777Z" fill="#161616"/>
</svg>
